<svg width="456" height="264" viewBox="0 0 456 264" fill="none" xmlns="http://www.w3.org/2000/svg">
<g clip-path="url(#clip0_2169_3881)">
<path d="M0 101.955L2.6687 101.427C4.40785 101.094 7.00159 100.525 10.4499 100.109C14.6398 99.5029 18.8655 99.1321 23.1038 98.9985C28.8659 98.873 34.6306 99.1002 40.3604 99.6785C55.7056 101.624 70.6223 105.802 84.5588 112.058C92.8048 115.528 101.276 119.511 110.496 123.438C120.159 127.73 130.201 131.25 140.512 133.958C151.849 136.745 163.574 137.943 175.295 137.511L179.807 137.358C181.322 137.233 182.881 137.011 184.425 136.859L189.103 136.304C190.677 136.151 192.176 135.762 193.736 135.485C196.85 134.948 199.933 134.262 202.971 133.431L207.619 132.182C209.163 131.751 210.647 131.21 212.117 130.794C224.321 126.908 236.195 121.606 248.294 116.541C260.361 111.11 273.002 106.85 286.016 103.828C299.462 101.009 313.357 100.534 326.991 102.426C333.904 103.414 340.718 104.923 347.366 106.937C350.694 108.047 354.038 109.088 357.366 110.337C360.694 111.586 363.993 112.835 367.276 114.237C380.455 119.663 393.528 126.02 407.637 130.835C421.801 135.916 436.826 138.632 452.015 138.857L457.727 138.593C459.586 138.482 461.385 138.538 463.35 138.246L469.092 137.511L471.97 137.15C472.9 137.011 473.829 136.789 474.744 136.609C478.463 135.941 482.141 135.093 485.764 134.069C487.578 133.556 489.407 133.111 491.176 132.556L496.483 130.78C510.622 126.02 523.59 119.566 536.829 114.195C540.112 112.766 543.441 111.572 546.739 110.295C550.037 109.019 553.336 108.075 556.754 106.881C563.412 104.866 570.236 103.357 577.159 102.371L582.302 101.719C584.026 101.483 585.75 101.524 587.489 101.413L592.632 101.177L592.961 101.177C593.036 101.108 592.961 101.177 593.156 101.163L593.816 101.191L595.135 101.247L597.774 101.358L603.037 101.566L608.044 102.177C609.708 102.413 611.387 102.496 613.022 102.843L617.969 103.814C630.979 106.827 643.616 111.083 655.676 116.513C667.775 121.606 679.664 126.894 691.868 130.78C703.716 134.71 716.133 136.979 728.705 137.511L733.248 137.664C734.942 137.705 736.247 137.664 737.776 137.497C739.305 137.33 740.67 137.4 742.169 137.289C742.888 137.261 743.608 137.233 744.343 137.164L746.547 136.872C749.47 136.47 752.424 136.206 755.227 135.637C758.031 135.068 760.82 134.513 763.548 133.875C773.855 131.167 783.896 127.657 793.564 123.383C802.784 119.455 811.255 115.333 819.501 112.002C833.447 105.734 848.381 101.559 863.745 99.6368C869.446 99.0785 875.18 98.8699 880.911 99.0123C885.154 99.1422 889.385 99.5083 893.58 100.109C897.013 100.511 899.592 101.094 901.361 101.427L904 101.955L901.361 101.344C899.637 100.941 897.058 100.303 893.655 99.7617C883.759 98.0403 873.654 97.5874 863.625 98.4155C850.611 99.3592 835.154 103.259 818.527 109.879C810.176 113.113 801.525 116.957 792.289 120.649C782.719 124.648 772.817 127.929 762.679 130.461L754.583 132.043C751.869 132.556 749.095 132.737 746.322 133.111L744.223 133.361C743.503 133.417 742.784 133.417 742.049 133.458L737.671 133.597C736.247 133.611 734.553 133.708 733.353 133.68L728.99 133.472C716.867 132.801 704.923 130.438 693.562 126.464C681.793 122.508 670.159 117.151 658.045 111.85C645.69 106.123 632.694 101.669 619.289 98.5682L614.056 97.6106C612.317 97.2497 610.503 97.0971 608.689 96.8612L603.351 96.2505L597.939 95.8758L595.3 95.7648L593.981 95.7093L593.321 95.6815C593.167 95.6611 593.011 95.6565 592.856 95.6676L592.512 95.6815L587.069 95.8897C585.24 96.0007 583.411 95.9452 581.612 96.195L576.17 96.8473C568.899 97.8523 561.729 99.4026 554.73 101.483C551.282 102.621 547.758 103.689 544.355 104.952C540.952 106.215 537.518 107.478 534.145 108.852C520.712 114.32 507.758 120.51 494.085 125.118L488.972 126.797C487.263 127.324 485.524 127.741 483.8 128.226C480.351 129.253 476.828 129.878 473.305 130.586C472.435 130.752 471.55 130.96 470.771 131.016L468.117 131.335L462.855 132.015C459.346 132.32 455.343 132.334 451.985 132.529C437.564 132.378 423.288 129.849 409.826 125.062C396.212 120.538 383.199 114.292 369.765 108.824C366.437 107.409 363.003 106.174 359.555 104.925C356.107 103.675 352.643 102.579 349.18 101.455C342.169 99.3588 334.983 97.8037 327.696 96.8057C313.355 94.9368 298.765 95.5486 284.666 98.6099C271.253 101.707 258.251 106.166 245.895 111.905C233.781 117.207 222.162 122.55 210.363 126.505C208.893 127.005 207.439 127.546 205.955 127.977C204.47 128.407 202.986 128.809 201.562 129.267C198.644 130.108 195.681 130.812 192.686 131.377C191.202 131.64 189.733 132.057 188.263 132.223L183.886 132.806C182.401 132.987 180.977 133.223 179.493 133.347C178.008 133.472 176.494 133.514 174.995 133.569C163.694 134.115 152.369 133.09 141.396 130.53C131.242 127.987 121.324 124.692 111.741 120.677C102.505 116.985 93.8393 113.127 85.4884 109.893C71.2107 103.906 56.0002 100.047 40.4203 98.4572C34.6461 97.9997 28.8433 97.9348 23.0588 98.2629C18.8077 98.5391 14.5776 99.0442 10.3899 99.7757C6.88165 100.248 4.37787 100.955 2.6687 101.372L0 101.955Z" fill="url(#paint0_linear_2169_3881)"/>
<path d="M0 211.165L2.6687 210.637C4.40785 210.304 7.00159 209.735 10.4499 209.319C14.6398 208.713 18.8655 208.342 23.1038 208.208C28.8659 208.083 34.6306 208.31 40.3604 208.888C55.7056 210.834 70.6223 215.012 84.5588 221.268C92.8048 224.738 101.276 228.721 110.496 232.648C120.159 236.94 130.201 240.46 140.512 243.168C151.849 245.955 163.574 247.153 175.295 246.721L179.807 246.568C181.322 246.443 182.881 246.221 184.425 246.069L189.103 245.513C190.677 245.361 192.176 244.972 193.736 244.695C196.85 244.158 199.933 243.472 202.971 242.641L207.619 241.392C209.163 240.961 210.647 240.42 212.117 240.004C224.321 236.118 236.195 230.816 248.294 225.751C260.361 220.32 273.002 216.06 286.016 213.038C299.462 210.219 313.357 209.744 326.991 211.636C333.904 212.624 340.718 214.133 347.366 216.147C350.694 217.257 354.038 218.298 357.366 219.547C360.694 220.796 363.993 222.045 367.276 223.447C380.455 228.873 393.528 235.23 407.637 240.045C421.801 245.126 436.826 247.842 452.015 248.067L457.727 247.803C459.586 247.692 461.385 247.748 463.35 247.456L469.092 246.721L471.97 246.36C472.9 246.221 473.829 245.999 474.744 245.819C478.463 245.151 482.141 244.303 485.764 243.279C487.578 242.766 489.407 242.321 491.176 241.766L496.483 239.99C510.622 235.23 523.59 228.776 536.829 223.405C540.112 221.976 543.441 220.782 546.739 219.505C550.037 218.229 553.336 217.285 556.754 216.091C563.412 214.076 570.236 212.567 577.159 211.581L582.302 210.929C584.026 210.693 585.75 210.734 587.489 210.623L592.632 210.387L592.961 210.387C593.036 210.318 592.961 210.387 593.156 210.373L593.816 210.401L595.135 210.457L597.774 210.568L603.037 210.776L608.044 211.387C609.708 211.622 611.387 211.706 613.022 212.053L617.969 213.024C630.979 216.037 643.616 220.292 655.676 225.723C667.775 230.816 679.664 236.104 691.868 239.99C703.716 243.92 716.133 246.189 728.705 246.721L733.248 246.874C734.942 246.915 736.247 246.874 737.776 246.707C739.305 246.54 740.67 246.61 742.169 246.499C742.888 246.471 743.608 246.443 744.343 246.374L746.547 246.082C749.47 245.68 752.424 245.416 755.227 244.847C758.031 244.278 760.82 243.723 763.548 243.085C773.855 240.377 783.896 236.867 793.564 232.593C802.784 228.665 811.255 224.543 819.501 221.212C833.447 214.944 848.381 210.769 863.745 208.847C869.446 208.288 875.18 208.08 880.911 208.222C885.154 208.352 889.385 208.718 893.58 209.319C897.013 209.721 899.592 210.304 901.361 210.637L904 211.164L901.361 210.554C899.637 210.151 897.058 209.513 893.655 208.972C883.759 207.25 873.654 206.797 863.625 207.625C850.611 208.569 835.154 212.469 818.527 219.089C810.176 222.323 801.525 226.167 792.289 229.859C782.719 233.857 772.817 237.139 762.679 239.671L754.583 241.253C751.869 241.766 749.095 241.947 746.322 242.321L744.223 242.571C743.503 242.627 742.784 242.627 742.049 242.668L737.671 242.807C736.247 242.821 734.553 242.918 733.353 242.89L728.99 242.682C716.867 242.011 704.923 239.648 693.562 235.674C681.793 231.718 670.159 226.361 658.045 221.06C645.69 215.332 632.694 210.879 619.289 207.778L614.056 206.821C612.317 206.46 610.503 206.307 608.689 206.071L603.351 205.46L597.939 205.086L595.3 204.975L593.981 204.919L593.321 204.891C593.167 204.871 593.011 204.866 592.856 204.878L592.512 204.891L587.069 205.1C585.24 205.211 583.411 205.155 581.612 205.405L576.17 206.057C568.899 207.062 561.729 208.613 554.73 210.693C551.282 211.831 547.758 212.899 544.355 214.162C540.952 215.425 537.518 216.688 534.145 218.062C520.712 223.53 507.758 229.72 494.085 234.327L488.972 236.007C487.263 236.534 485.524 236.95 483.8 237.436C480.351 238.463 476.828 239.088 473.305 239.796C472.435 239.962 471.55 240.17 470.771 240.226L468.117 240.545L462.855 241.225C459.346 241.53 455.343 241.544 451.985 241.739C437.564 241.588 423.288 239.059 409.826 234.272C396.212 229.748 383.199 223.502 369.765 218.034C366.437 216.619 363.003 215.384 359.555 214.134C356.107 212.885 352.643 211.789 349.18 210.665C342.169 208.569 334.983 207.014 327.696 206.016C313.355 204.147 298.765 204.759 284.666 207.82C271.253 210.917 258.251 215.376 245.895 221.115C233.781 226.417 222.162 231.76 210.363 235.715C208.893 236.215 207.439 236.756 205.955 237.186C204.47 237.617 202.986 238.019 201.562 238.477C198.644 239.318 195.681 240.022 192.686 240.587C191.202 240.85 189.733 241.267 188.263 241.433L183.886 242.016C182.401 242.197 180.977 242.432 179.493 242.557C178.008 242.682 176.494 242.724 174.995 242.779C163.694 243.324 152.369 242.3 141.396 239.74C131.242 237.197 121.324 233.902 111.741 229.886C102.505 226.195 93.8393 222.337 85.4884 219.103C71.2107 213.116 56.0002 209.256 40.4203 207.667C34.6461 207.21 28.8433 207.145 23.0588 207.473C18.8077 207.749 14.5776 208.254 10.3899 208.986C6.88165 209.458 4.37787 210.165 2.6687 210.582L0 211.165Z" fill="url(#paint1_linear_2169_3881)"/>
<path d="M0 73.7715L2.6687 73.2441C4.40785 72.911 7.00159 72.342 10.4499 71.9257C14.6398 71.3198 18.8655 70.949 23.1038 70.8154C28.8659 70.6899 34.6306 70.917 40.3604 71.4954C55.7056 73.4414 70.6223 77.6194 84.5588 83.8749C92.8048 87.3445 101.276 91.3276 110.496 95.2552C120.159 99.5473 130.201 103.067 140.512 105.775C151.849 108.562 163.574 109.76 175.295 109.328L179.807 109.175C181.322 109.05 182.881 108.828 184.425 108.676L189.103 108.12C190.677 107.968 192.176 107.579 193.736 107.302C196.85 106.765 199.933 106.079 202.971 105.248L207.619 103.999C209.163 103.568 210.647 103.027 212.117 102.611C224.321 98.7248 236.195 93.4232 248.294 88.3576C260.361 82.927 273.002 78.6668 286.016 75.645C299.462 72.8259 313.357 72.3505 326.991 74.2433C333.904 75.231 340.718 76.7395 347.366 78.7538C350.694 79.864 354.038 80.9049 357.366 82.154C360.694 83.403 363.993 84.6521 367.276 86.0538C380.455 91.4802 393.528 97.8365 407.637 102.652C421.801 107.733 436.826 110.449 452.015 110.674L457.727 110.41C459.586 110.299 461.385 110.355 463.35 110.063L469.092 109.328L471.97 108.967C472.9 108.828 473.829 108.606 474.744 108.426C478.463 107.758 482.141 106.91 485.764 105.886C487.578 105.372 489.407 104.928 491.176 104.373L496.483 102.597C510.622 97.8365 523.59 91.3831 536.829 86.0122C540.112 84.5827 543.441 83.3891 546.739 82.1123C550.037 80.8355 553.336 79.8917 556.754 78.6982C563.412 76.6827 570.236 75.1741 577.159 74.1878L582.302 73.5355C584.026 73.2996 585.75 73.3412 587.489 73.2302L592.632 72.9942L592.961 72.9942C593.036 72.9248 592.961 72.9942 593.156 72.9803L593.816 73.0081L595.135 73.0636L597.774 73.1746L603.037 73.3828L608.044 73.9935C609.708 74.2294 611.387 74.3127 613.022 74.6596L617.969 75.6311C630.979 78.6437 643.616 82.8994 655.676 88.3298C667.775 93.4232 679.664 98.7108 691.868 102.597C703.716 106.527 716.133 108.796 728.705 109.328L733.248 109.48C734.942 109.522 736.247 109.48 737.776 109.314C739.305 109.147 740.67 109.217 742.169 109.106C742.888 109.078 743.608 109.05 744.343 108.981L746.547 108.689C749.47 108.287 752.424 108.023 755.227 107.454C758.031 106.885 760.82 106.33 763.548 105.692C773.855 102.984 783.896 99.4742 793.564 95.1996C802.784 91.272 811.255 87.1502 819.501 83.8193C833.447 77.5505 848.381 73.3764 863.745 71.4537C869.446 70.8954 875.18 70.6867 880.911 70.8292C885.154 70.9591 889.385 71.3252 893.58 71.9256C897.013 72.328 899.592 72.9109 901.361 73.244L904 73.7714L901.361 73.1608C899.637 72.7583 897.058 72.1199 893.655 71.5786C883.759 69.8572 873.654 69.4043 863.625 70.2324C850.611 71.1761 835.154 75.0759 818.527 81.6959C810.176 84.9296 801.525 88.7739 792.289 92.4656C782.719 96.4644 772.817 99.7456 762.679 102.278L754.583 103.86C751.869 104.373 749.095 104.554 746.322 104.928L744.223 105.178C743.503 105.234 742.784 105.234 742.049 105.275L737.671 105.414C736.247 105.428 734.553 105.525 733.353 105.497L728.99 105.289C716.867 104.618 704.923 102.255 693.562 98.2806C681.793 94.3253 670.159 88.9682 658.045 83.6667C645.69 77.9394 632.694 73.4855 619.289 70.3851L614.056 69.4275C612.317 69.0666 610.503 68.914 608.689 68.678L603.351 68.0674L597.939 67.6927L595.3 67.5817L593.981 67.5262L593.321 67.4984C593.167 67.478 593.011 67.4734 592.856 67.4845L592.512 67.4984L587.069 67.7066C585.24 67.8176 583.411 67.7621 581.612 68.0119L576.17 68.6642C568.899 69.6692 561.729 71.2194 554.73 73.2996C551.282 74.4376 547.758 75.5062 544.355 76.7691C540.952 78.0321 537.518 79.295 534.145 80.6689C520.712 86.137 507.758 92.3268 494.085 96.9344L488.972 98.6137C487.263 99.1411 485.524 99.5574 483.8 100.043C480.351 101.07 476.828 101.695 473.305 102.403C472.435 102.569 471.55 102.777 470.771 102.833L468.117 103.152L462.855 103.832C459.346 104.137 455.343 104.151 451.985 104.345C437.564 104.195 423.288 101.666 409.826 96.8789C396.212 92.3546 383.199 86.1093 369.765 80.6412C366.437 79.2256 363.003 77.9905 359.555 76.7414C356.107 75.4924 352.643 74.396 349.18 73.2718C342.169 71.1757 334.983 69.6206 327.696 68.6226C313.355 66.7537 298.765 67.3655 284.666 70.4268C271.253 73.5241 258.251 77.983 245.895 83.7223C233.781 89.0238 222.162 94.367 210.363 98.3223C208.893 98.8219 207.439 99.3632 205.955 99.7934C204.47 100.224 202.986 100.626 201.562 101.084C198.644 101.925 195.681 102.629 192.686 103.194C191.202 103.457 189.733 103.874 188.263 104.04L183.886 104.623C182.401 104.804 180.977 105.039 179.493 105.164C178.008 105.289 176.494 105.331 174.995 105.386C163.694 105.931 152.369 104.907 141.396 102.347C131.242 99.8037 121.324 96.5085 111.741 92.4934C102.505 88.8018 93.8393 84.9436 85.4884 81.7099C71.2107 75.723 56.0002 71.8634 40.4203 70.2741C34.6461 69.8166 28.8433 69.7517 23.0588 70.0798C18.8077 70.356 14.5776 70.8611 10.3899 71.5926C6.88165 72.0644 4.37787 72.7722 2.6687 73.1886L0 73.7715Z" fill="url(#paint2_linear_2169_3881)"/>
<path d="M0 182.981L2.6687 182.454C4.40785 182.121 7.00159 181.552 10.4499 181.136C14.6398 180.53 18.8655 180.159 23.1038 180.025C28.8659 179.9 34.6306 180.127 40.3604 180.705C55.7056 182.651 70.6223 186.829 84.5588 193.085C92.8048 196.554 101.276 200.538 110.496 204.465C120.159 208.757 130.201 212.277 140.512 214.985C151.849 217.772 163.574 218.97 175.295 218.538L179.807 218.385C181.322 218.26 182.881 218.038 184.425 217.886L189.103 217.33C190.677 217.178 192.176 216.789 193.736 216.512C196.85 215.975 199.933 215.289 202.971 214.458L207.619 213.209C209.163 212.778 210.647 212.237 212.117 211.821C224.321 207.935 236.195 202.633 248.294 197.568C260.361 192.137 273.002 187.877 286.016 184.855C299.462 182.036 313.357 181.56 326.991 183.453C333.904 184.441 340.718 185.949 347.366 187.964C350.694 189.074 354.038 190.115 357.366 191.364C360.694 192.613 363.993 193.862 367.276 195.264C380.455 200.69 393.528 207.047 407.637 211.862C421.801 216.943 436.826 219.659 452.015 219.884L457.727 219.62C459.586 219.509 461.385 219.565 463.35 219.273L469.092 218.538L471.97 218.177C472.9 218.038 473.829 217.816 474.744 217.636C478.463 216.968 482.141 216.12 485.764 215.096C487.578 214.582 489.407 214.138 491.176 213.583L496.483 211.807C510.622 207.046 523.59 200.593 536.829 195.222C540.112 193.793 543.441 192.599 546.739 191.322C550.037 190.045 553.336 189.102 556.754 187.908C563.412 185.893 570.236 184.384 577.159 183.398L582.302 182.745C584.026 182.51 585.75 182.551 587.489 182.44L592.632 182.204L592.961 182.204C593.036 182.135 592.961 182.204 593.156 182.19L593.816 182.218L595.135 182.274L597.774 182.385L603.037 182.593L608.044 183.203C609.708 183.439 611.387 183.523 613.022 183.87L617.969 184.841C630.979 187.854 643.616 192.109 655.676 197.54C667.775 202.633 679.664 207.921 691.868 211.807C703.716 215.737 716.133 218.006 728.705 218.538L733.248 218.69C734.942 218.732 736.247 218.69 737.776 218.524C739.305 218.357 740.67 218.427 742.169 218.316C742.888 218.288 743.608 218.26 744.343 218.191L746.547 217.899C749.47 217.497 752.424 217.233 755.227 216.664C758.031 216.095 760.82 215.54 763.548 214.902C773.855 212.194 783.896 208.684 793.564 204.41C802.784 200.482 811.255 196.36 819.501 193.029C833.447 186.76 848.381 182.586 863.745 180.664C869.446 180.105 875.18 179.897 880.911 180.039C885.154 180.169 889.385 180.535 893.58 181.136C897.013 181.538 899.592 182.121 901.361 182.454L904 182.981L901.361 182.371C899.637 181.968 897.058 181.33 893.655 180.789C883.759 179.067 873.654 178.614 863.625 179.442C850.611 180.386 835.154 184.286 818.527 190.906C810.176 194.14 801.525 197.984 792.289 201.676C782.719 205.674 772.817 208.956 762.679 211.488L754.583 213.07C751.869 213.583 749.095 213.764 746.322 214.138L744.223 214.388C743.503 214.444 742.784 214.444 742.049 214.485L737.671 214.624C736.247 214.638 734.553 214.735 733.353 214.707L728.99 214.499C716.867 213.828 704.923 211.465 693.562 207.491C681.793 203.535 670.159 198.178 658.045 192.877C645.69 187.149 632.694 182.695 619.289 179.595L614.056 178.637C612.317 178.277 610.503 178.124 608.689 177.888L603.351 177.277L597.939 176.903L595.3 176.792L593.981 176.736L593.321 176.708C593.167 176.688 593.011 176.683 592.856 176.694L592.512 176.708L587.069 176.917C585.24 177.028 583.411 176.972 581.612 177.222L576.17 177.874C568.899 178.879 561.729 180.429 554.73 182.51C551.282 183.648 547.758 184.716 544.355 185.979C540.952 187.242 537.518 188.505 534.145 189.879C520.712 195.347 507.758 201.537 494.085 206.144L488.972 207.824C487.263 208.351 485.524 208.767 483.8 209.253C480.351 210.28 476.828 210.905 473.305 211.612C472.435 211.779 471.55 211.987 470.771 212.043L468.117 212.362L462.855 213.042C459.346 213.347 455.343 213.361 451.985 213.555C437.564 213.405 423.288 210.876 409.826 206.089C396.212 201.565 383.199 195.319 369.765 189.851C366.437 188.436 363.003 187.2 359.555 185.951C356.107 184.702 352.643 183.606 349.18 182.482C342.169 180.386 334.983 178.831 327.696 177.833C313.355 175.964 298.765 176.575 284.666 179.637C271.253 182.734 258.251 187.193 245.895 192.932C233.781 198.234 222.162 203.577 210.363 207.532C208.893 208.032 207.439 208.573 205.955 209.003C204.47 209.434 202.986 209.836 201.562 210.294C198.644 211.135 195.681 211.839 192.686 212.404C191.202 212.667 189.733 213.084 188.263 213.25L183.886 213.833C182.401 214.013 180.977 214.249 179.493 214.374C178.008 214.499 176.494 214.541 174.995 214.596C163.694 215.141 152.369 214.117 141.396 211.557C131.242 209.014 121.324 205.718 111.741 201.703C102.505 198.012 93.8393 194.154 85.4884 190.92C71.2107 184.933 56.0002 181.073 40.4203 179.484C34.6461 179.027 28.8433 178.962 23.0588 179.29C18.8077 179.566 14.5776 180.071 10.3899 180.803C6.88165 181.274 4.37787 181.982 2.6687 182.399L0 182.981Z" fill="url(#paint3_linear_2169_3881)"/>
<path d="M0 45.5884L2.6687 45.061C4.40785 44.7279 7.00159 44.1589 10.4499 43.7426C14.6398 43.1367 18.8655 42.7659 23.1038 42.6323C28.8659 42.5068 34.6306 42.7339 40.3604 43.3123C55.7056 45.2583 70.6223 49.4363 84.5588 55.6918C92.8048 59.1614 101.276 63.1445 110.496 67.0721C120.159 71.3642 130.201 74.8837 140.512 77.5919C151.849 80.3789 163.574 81.5765 175.295 81.1447L179.807 80.9921C181.322 80.8672 182.881 80.6451 184.425 80.4925L189.103 79.9373C190.677 79.7847 192.176 79.3961 193.736 79.1185C196.85 78.5818 199.933 77.8962 202.971 77.0645L207.619 75.8155C209.163 75.3852 210.647 74.844 212.117 74.4276C224.321 70.5417 236.195 65.2401 248.294 60.1745C260.361 54.7439 273.002 50.4837 286.016 47.4619C299.462 44.6428 313.357 44.1674 326.991 46.0602C333.904 47.0479 340.718 48.5564 347.366 50.5707C350.694 51.6809 354.038 52.7218 357.366 53.9709C360.694 55.2199 363.993 56.469 367.276 57.8707C380.455 63.2971 393.528 69.6534 407.637 74.4692C421.801 79.55 436.826 82.266 452.015 82.4909L457.727 82.2272C459.586 82.1162 461.385 82.1717 463.35 81.8803L469.092 81.1447L471.97 80.7839C472.9 80.6451 473.829 80.423 474.744 80.2426C478.463 79.5746 482.141 78.7269 485.764 77.7029C487.578 77.1894 489.407 76.7452 491.176 76.1901L496.483 74.4137C510.622 69.6534 523.59 63.2 536.829 57.8291C540.112 56.3996 543.441 55.206 546.739 53.9292C550.037 52.6524 553.336 51.7086 556.754 50.5151C563.412 48.4995 570.236 46.991 577.159 46.0046L582.302 45.3524C584.026 45.1165 585.75 45.1581 587.489 45.0471L592.632 44.8111L592.961 44.8111C593.036 44.7417 592.961 44.8111 593.156 44.7972L593.816 44.825L595.135 44.8805L597.774 44.9915L603.037 45.1997L608.044 45.8104C609.708 46.0463 611.387 46.1296 613.022 46.4765L617.969 47.448C630.979 50.4606 643.616 54.7163 655.676 60.1467C667.775 65.2401 679.664 70.5277 691.868 74.4136C703.716 78.3443 716.133 80.613 728.705 81.1447L733.248 81.2973C734.942 81.339 736.247 81.2973 737.776 81.1308C739.305 80.9642 740.67 81.0336 742.169 80.9226C742.888 80.8949 743.608 80.8671 744.343 80.7977L746.547 80.5063C749.47 80.1038 752.424 79.8401 755.227 79.2711C758.031 78.7021 760.82 78.147 763.548 77.5086C773.855 74.8009 783.896 71.2911 793.564 67.0165C802.784 63.0889 811.255 58.9671 819.501 55.6362C833.447 49.3674 848.381 45.1933 863.745 43.2706C869.446 42.7123 875.18 42.5036 880.911 42.6461C885.154 42.776 889.385 43.1421 893.58 43.7425C897.013 44.1449 899.592 44.7278 901.361 45.0609L904 45.5883L901.361 44.9777C899.637 44.5752 897.058 43.9368 893.655 43.3955C883.759 41.6741 873.654 41.2212 863.625 42.0493C850.611 42.993 835.154 46.8928 818.527 53.5128C810.176 56.7465 801.525 60.5908 792.289 64.2825C782.719 68.2813 772.817 71.5625 762.679 74.0945L754.583 75.6766C751.869 76.1901 749.095 76.3705 746.322 76.7452L744.223 76.995C743.503 77.0505 742.784 77.0506 742.049 77.0922L737.671 77.231C736.247 77.2448 734.553 77.342 733.353 77.3142L728.99 77.1061C716.867 76.4347 704.923 74.0719 693.562 70.0975C681.793 66.1422 670.159 60.7851 658.045 55.4836C645.69 49.7563 632.694 45.3024 619.289 42.202L614.056 41.2444C612.317 40.8835 610.503 40.7309 608.689 40.4949L603.351 39.8843L597.939 39.5096L595.3 39.3986L593.981 39.3431L593.321 39.3153C593.167 39.2949 593.011 39.2903 592.856 39.3014L592.512 39.3153L587.069 39.5235C585.24 39.6345 583.411 39.579 581.612 39.8288L576.17 40.4811C568.899 41.4861 561.729 43.0363 554.73 45.1165C551.282 46.2545 547.758 47.3231 544.355 48.586C540.952 49.849 537.518 51.1119 534.145 52.4858C520.712 57.9539 507.758 64.1437 494.085 68.7513L488.972 70.4306C487.263 70.958 485.524 71.3743 483.8 71.8601C480.351 72.8871 476.828 73.5116 473.305 74.2194C472.435 74.386 471.55 74.5941 470.771 74.6496L468.117 74.9688L462.855 75.6489C459.346 75.9542 455.343 75.9681 451.985 76.1624C437.564 76.0116 423.288 73.4832 409.826 68.6958C396.212 64.1715 383.199 57.9262 369.765 52.4581C366.437 51.0425 363.003 49.8074 359.555 48.5583C356.107 47.3093 352.643 46.2129 349.18 45.0887C342.169 42.9926 334.983 41.4375 327.696 40.4395C313.355 38.5706 298.765 39.1824 284.666 42.2437C271.253 45.341 258.251 49.7999 245.895 55.5392C233.781 60.8407 222.162 66.1839 210.363 70.1392C208.893 70.6388 207.439 71.1801 205.955 71.6103C204.47 72.0405 202.986 72.443 201.562 72.901C198.644 73.7421 195.681 74.4462 192.686 75.0105C191.202 75.2742 189.733 75.6905 188.263 75.8571L183.886 76.44C182.401 76.6204 180.977 76.8563 179.493 76.9812C178.008 77.1061 176.494 77.1478 174.995 77.2033C163.694 77.7483 152.369 76.7238 141.396 74.1639C131.242 71.6206 121.324 68.3254 111.741 64.3103C102.505 60.6186 93.8393 56.7605 85.4884 53.5268C71.2107 47.5399 56.0002 43.6803 40.4203 42.091C34.6461 41.6335 28.8433 41.5686 23.0588 41.8967C18.8077 42.1729 14.5776 42.678 10.3899 43.4095C6.88165 43.8813 4.37787 44.5891 2.6687 45.0055L0 45.5884Z" fill="url(#paint4_linear_2169_3881)"/>
<path d="M0 154.798L2.6687 154.27C4.40785 153.937 7.00159 153.368 10.4499 152.952C14.6398 152.346 18.8655 151.975 23.1038 151.842C28.8659 151.716 34.6306 151.943 40.3604 152.522C55.7056 154.468 70.6223 158.646 84.5588 164.901C92.8048 168.371 101.276 172.354 110.496 176.282C120.159 180.574 130.201 184.093 140.512 186.801C151.849 189.588 163.574 190.786 175.295 190.354L179.807 190.202C181.322 190.077 182.881 189.855 184.425 189.702L189.103 189.147C190.677 188.994 192.176 188.606 193.736 188.328C196.85 187.791 199.933 187.106 202.971 186.274L207.619 185.025C209.163 184.595 210.647 184.053 212.117 183.637C224.321 179.751 236.195 174.45 248.294 169.384C260.361 163.953 273.002 159.693 286.016 156.671C299.462 153.852 313.357 153.377 326.991 155.27C333.904 156.257 340.718 157.766 347.366 159.78C350.694 160.89 354.038 161.931 357.366 163.18C360.694 164.429 363.993 165.678 367.276 167.08C380.455 172.507 393.528 178.863 407.637 183.679C421.801 188.76 436.826 191.475 452.015 191.7L457.727 191.437C459.586 191.326 461.385 191.381 463.35 191.09L469.092 190.354L471.97 189.993C472.9 189.855 473.829 189.633 474.744 189.452C478.463 188.784 482.141 187.936 485.764 186.912C487.578 186.399 489.407 185.955 491.176 185.4L496.483 183.623C510.622 178.863 523.59 172.409 536.829 167.039C540.112 165.609 543.441 164.415 546.739 163.139C550.037 161.862 553.336 160.918 556.754 159.725C563.412 157.709 570.236 156.201 577.159 155.214L582.302 154.562C584.026 154.326 585.75 154.368 587.489 154.257L592.632 154.021L592.961 154.021C593.036 153.951 592.961 154.021 593.156 154.007L593.816 154.034L595.135 154.09L597.774 154.201L603.037 154.409L608.044 155.02C609.708 155.256 611.387 155.339 613.022 155.686L617.969 156.657C630.979 159.67 643.616 163.926 655.676 169.356C667.775 174.45 679.664 179.737 691.868 183.623C703.716 187.554 716.133 189.822 728.705 190.354L733.248 190.507C734.942 190.548 736.247 190.507 737.776 190.34C739.305 190.174 740.67 190.243 742.169 190.132C742.888 190.104 743.608 190.077 744.343 190.007L746.547 189.716C749.47 189.313 752.424 189.05 755.227 188.481C758.031 187.912 760.82 187.356 763.548 186.718C773.855 184.01 783.896 180.501 793.564 176.226C802.784 172.298 811.255 168.177 819.501 164.846C833.447 158.577 848.381 154.403 863.745 152.48C869.446 151.922 875.18 151.713 880.911 151.856C885.154 151.985 889.385 152.352 893.58 152.952C897.013 153.354 899.592 153.937 901.361 154.27L904 154.798L901.361 154.187C899.637 153.785 897.058 153.146 893.655 152.605C883.759 150.884 873.654 150.431 863.625 151.259C850.611 152.202 835.154 156.102 818.527 162.722C810.176 165.956 801.525 169.8 792.289 173.492C782.719 177.491 772.817 180.772 762.679 183.304L754.583 184.886C751.869 185.4 749.095 185.58 746.322 185.955L744.223 186.204C743.503 186.26 742.784 186.26 742.049 186.302L737.671 186.44C736.247 186.454 734.553 186.551 733.353 186.524L728.99 186.316C716.867 185.644 704.923 183.281 693.562 179.307C681.793 175.352 670.159 169.995 658.045 164.693C645.69 158.966 632.694 154.512 619.289 151.411L614.056 150.454C612.317 150.093 610.503 149.94 608.689 149.704L603.351 149.094L597.939 148.719L595.3 148.608L593.981 148.553L593.321 148.525C593.167 148.504 593.011 148.5 592.856 148.511L592.512 148.525L587.069 148.733C585.24 148.844 583.411 148.788 581.612 149.038L576.17 149.691C568.899 150.696 561.729 152.246 554.73 154.326C551.282 155.464 547.758 156.533 544.355 157.796C540.952 159.058 537.518 160.321 534.145 161.695C520.712 167.163 507.758 173.353 494.085 177.961L488.972 179.64C487.263 180.167 485.524 180.584 483.8 181.07C480.351 182.097 476.828 182.721 473.305 183.429C472.435 183.595 471.55 183.804 470.771 183.859L468.117 184.178L462.855 184.858C459.346 185.164 455.343 185.178 451.985 185.372C437.564 185.221 423.288 182.693 409.826 177.905C396.212 173.381 383.199 167.136 369.765 161.668C366.437 160.252 363.003 159.017 359.555 157.768C356.107 156.519 352.643 155.422 349.18 154.298C342.169 152.202 334.983 150.647 327.696 149.649C313.355 147.78 298.765 148.392 284.666 151.453C271.253 154.55 258.251 159.009 245.895 164.749C233.781 170.05 222.162 175.393 210.363 179.349C208.893 179.848 207.439 180.39 205.955 180.82C204.47 181.25 202.986 181.652 201.562 182.11C198.644 182.952 195.681 183.656 192.686 184.22C191.202 184.484 189.733 184.9 188.263 185.067L183.886 185.649C182.401 185.83 180.977 186.066 179.493 186.191C178.008 186.316 176.494 186.357 174.995 186.413C163.694 186.958 152.369 185.933 141.396 183.373C131.242 180.83 121.324 177.535 111.741 173.52C102.505 169.828 93.8393 165.97 85.4884 162.736C71.2107 156.749 56.0002 152.89 40.4203 151.3C34.6461 150.843 28.8433 150.778 23.0588 151.106C18.8077 151.382 14.5776 151.887 10.3899 152.619C6.88165 153.091 4.37787 153.799 2.6687 154.215L0 154.798Z" fill="url(#paint5_linear_2169_3881)"/>
<path d="M0 17.4053L2.6687 16.8779C4.40785 16.5448 7.00159 15.9758 10.4499 15.5594C14.6398 14.9536 18.8655 14.5828 23.1038 14.4492C28.8659 14.3237 34.6306 14.5508 40.3604 15.1292C55.7056 17.0752 70.6223 21.2532 84.5588 27.5087C92.8048 30.9783 101.276 34.9614 110.496 38.889C120.159 43.1811 130.201 46.7006 140.512 49.4088C151.849 52.1958 163.574 53.3934 175.295 52.9616L179.807 52.809C181.322 52.6841 182.881 52.462 184.425 52.3094L189.103 51.7542C190.677 51.6016 192.176 51.213 193.736 50.9354C196.85 50.3987 199.933 49.7131 202.971 48.8814L207.619 47.6323C209.163 47.2021 210.647 46.6609 212.117 46.2445C224.321 42.3586 236.195 37.057 248.294 31.9914C260.361 26.5608 273.002 22.3006 286.016 19.2788C299.462 16.4597 313.357 15.9843 326.991 17.8771C333.904 18.8648 340.718 20.3733 347.366 22.3876C350.694 23.4978 354.038 24.5387 357.366 25.7878C360.694 27.0368 363.993 28.2859 367.276 29.6876C380.455 35.114 393.528 41.4703 407.637 46.2861C421.801 51.3669 436.826 54.0829 452.015 54.3078L457.727 54.0441C459.586 53.9331 461.385 53.9886 463.35 53.6972L469.092 52.9616L471.97 52.6008C472.9 52.462 473.829 52.2399 474.744 52.0595C478.463 51.3915 482.141 50.5438 485.764 49.5198C487.578 49.0063 489.407 48.5621 491.176 48.007L496.483 46.2306C510.622 41.4703 523.59 35.0169 536.829 29.646C540.112 28.2165 543.441 27.0229 546.739 25.7461C550.037 24.4693 553.336 23.5255 556.754 22.332C563.412 20.3164 570.236 18.8079 577.159 17.8215L582.302 17.1693C584.026 16.9333 585.75 16.975 587.489 16.864L592.632 16.628L592.961 16.628C593.036 16.5586 592.961 16.628 593.156 16.6141L593.816 16.6419L595.135 16.6974L597.774 16.8084L603.037 17.0166L608.044 17.6272C609.708 17.8632 611.387 17.9465 613.022 18.2934L617.969 19.2649C630.979 22.2775 643.616 26.5332 655.676 31.9636C667.775 37.057 679.664 42.3446 691.868 46.2305C703.716 50.1612 716.133 52.4299 728.705 52.9616L733.248 53.1142C734.942 53.1559 736.247 53.1142 737.776 52.9477C739.305 52.7811 740.67 52.8505 742.169 52.7395C742.888 52.7117 743.608 52.684 744.343 52.6146L746.547 52.3231C749.47 51.9207 752.424 51.657 755.227 51.088C758.031 50.519 760.82 49.9639 763.548 49.3255C773.855 46.6178 783.896 43.108 793.564 38.8334C802.784 34.9058 811.255 30.784 819.501 27.4531C833.447 21.1843 848.381 17.0102 863.745 15.0875C869.446 14.5292 875.18 14.3205 880.911 14.463C885.154 14.5929 889.385 14.959 893.58 15.5594C897.013 15.9618 899.592 16.5447 901.361 16.8778L904 17.4052L901.361 16.7946C899.637 16.3921 897.058 15.7537 893.655 15.2124C883.759 13.491 873.654 13.038 863.625 13.8662C850.611 14.8099 835.154 18.7097 818.527 25.3297C810.176 28.5634 801.525 32.4077 792.289 36.0994C782.719 40.0982 772.817 43.3794 762.679 45.9114L754.583 47.4935C751.869 48.007 749.095 48.1874 746.322 48.5621L744.223 48.8119C743.503 48.8674 742.784 48.8675 742.049 48.9091L737.671 49.0479C736.247 49.0617 734.553 49.1589 733.353 49.1311L728.99 48.923C716.867 48.2516 704.923 45.8888 693.562 41.9144C681.793 37.9591 670.159 32.602 658.045 27.3005C645.69 21.5732 632.694 17.1193 619.289 14.0189L614.056 13.0613C612.317 12.7004 610.503 12.5478 608.689 12.3118L603.351 11.7012L597.939 11.3265L595.3 11.2155L593.981 11.1599L593.321 11.1322C593.167 11.1118 593.011 11.1071 592.856 11.1183L592.512 11.1322L587.069 11.3404C585.24 11.4514 583.411 11.3959 581.612 11.6457L576.17 12.298C568.899 13.303 561.729 14.8532 554.73 16.9334C551.282 18.0714 547.758 19.14 544.355 20.4029C540.952 21.6659 537.518 22.9288 534.145 24.3027C520.712 29.7708 507.758 35.9606 494.085 40.5682L488.972 42.2475C487.263 42.7749 485.524 43.1912 483.8 43.677C480.351 44.704 476.828 45.3285 473.305 46.0363C472.435 46.2028 471.55 46.411 470.771 46.4665L468.117 46.7857L462.855 47.4658C459.346 47.7711 455.343 47.785 451.985 47.9793C437.564 47.8285 423.288 45.3001 409.826 40.5127C396.212 35.9884 383.199 29.7431 369.765 24.275C366.437 22.8594 363.003 21.6243 359.555 20.3752C356.107 19.1262 352.643 18.0298 349.18 16.9056C342.169 14.8095 334.983 13.2544 327.696 12.2564C313.355 10.3875 298.765 10.9993 284.666 14.0606C271.253 17.1579 258.251 21.6168 245.895 27.356C233.781 32.6576 222.162 38.0008 210.363 41.9561C208.893 42.4557 207.439 42.997 205.955 43.4272C204.47 43.8574 202.986 44.2599 201.562 44.7179C198.644 45.559 195.681 46.2631 192.686 46.8274C191.202 47.0911 189.733 47.5074 188.263 47.674L183.886 48.2569C182.401 48.4373 180.977 48.6732 179.493 48.7981C178.008 48.923 176.494 48.9647 174.995 49.0202C163.694 49.5652 152.369 48.5407 141.396 45.9808C131.242 43.4375 121.324 40.1423 111.741 36.1272C102.505 32.4355 93.8393 28.5773 85.4884 25.3437C71.2107 19.3568 56.0002 15.4972 40.4203 13.9079C34.6461 13.4504 28.8433 13.3855 23.0588 13.7136C18.8077 13.9898 14.5776 14.4949 10.3899 15.2264C6.88165 15.6982 4.37787 16.406 2.6687 16.8224L0 17.4053Z" fill="url(#paint6_linear_2169_3881)"/>
<path d="M0 126.615L2.6687 126.087C4.40785 125.754 7.00159 125.185 10.4499 124.769C14.6398 124.163 18.8655 123.792 23.1038 123.659C28.8659 123.533 34.6306 123.76 40.3604 124.339C55.7056 126.285 70.6223 130.463 84.5588 136.718C92.8048 140.188 101.276 144.171 110.496 148.098C120.159 152.391 130.201 155.91 140.512 158.618C151.849 161.405 163.574 162.603 175.295 162.171L179.807 162.018C181.322 161.894 182.881 161.671 184.425 161.519L189.103 160.964C190.677 160.811 192.176 160.422 193.736 160.145C196.85 159.608 199.933 158.923 202.971 158.091L207.619 156.842C209.163 156.412 210.647 155.87 212.117 155.454C224.321 151.568 236.195 146.266 248.294 141.201C260.361 135.77 273.002 131.51 286.016 128.488C299.462 125.669 313.357 125.194 326.991 127.087C333.904 128.074 340.718 129.583 347.366 131.597C350.694 132.707 354.038 133.748 357.366 134.997C360.694 136.246 363.993 137.495 367.276 138.897C380.455 144.323 393.528 150.68 407.637 155.496C421.801 160.576 436.826 163.292 452.015 163.517L457.727 163.254C459.586 163.143 461.385 163.198 463.35 162.907L469.092 162.171L471.97 161.81C472.9 161.671 473.829 161.449 474.744 161.269C478.463 160.601 482.141 159.753 485.764 158.729C487.578 158.216 489.407 157.772 491.176 157.217L496.483 155.44C510.622 150.68 523.59 144.226 536.829 138.855C540.112 137.426 543.441 136.232 546.739 134.956C550.037 133.679 553.336 132.735 556.754 131.541C563.412 129.526 570.236 128.017 577.159 127.031L582.302 126.379C584.026 126.143 585.75 126.184 587.489 126.073L592.632 125.837L592.961 125.837C593.036 125.768 592.961 125.837 593.156 125.824L593.816 125.851L595.135 125.907L597.774 126.018L603.037 126.226L608.044 126.837C609.708 127.073 611.387 127.156 613.022 127.503L617.969 128.474C630.979 131.487 643.616 135.743 655.676 141.173C667.775 146.266 679.664 151.554 691.868 155.44C703.716 159.371 716.133 161.639 728.705 162.171L733.248 162.324C734.942 162.365 736.247 162.324 737.776 162.157C739.305 161.991 740.67 162.06 742.169 161.949C742.888 161.921 743.608 161.893 744.343 161.824L746.547 161.533C749.47 161.13 752.424 160.866 755.227 160.297C758.031 159.728 760.82 159.173 763.548 158.535C773.855 155.827 783.896 152.317 793.564 148.043C802.784 144.115 811.255 139.993 819.501 136.663C833.447 130.394 848.381 126.22 863.745 124.297C869.446 123.739 875.18 123.53 880.911 123.672C885.154 123.802 889.385 124.168 893.58 124.769C897.013 125.171 899.592 125.754 901.361 126.087L904 126.615L901.361 126.004C899.637 125.602 897.058 124.963 893.655 124.422C883.759 122.7 873.654 122.248 863.625 123.076C850.611 124.019 835.154 127.919 818.527 134.539C810.176 137.773 801.525 141.617 792.289 145.309C782.719 149.308 772.817 152.589 762.679 155.121L754.583 156.703C751.869 157.216 749.095 157.397 746.322 157.772L744.223 158.021C743.503 158.077 742.784 158.077 742.049 158.119L737.671 158.257C736.247 158.271 734.553 158.368 733.353 158.341L728.99 158.132C716.867 157.461 704.923 155.098 693.562 151.124C681.793 147.169 670.159 141.811 658.045 136.51C645.69 130.783 632.694 126.329 619.289 123.228L614.056 122.271C612.317 121.91 610.503 121.757 608.689 121.521L603.351 120.911L597.939 120.536L595.3 120.425L593.981 120.369L593.321 120.342C593.167 120.321 593.011 120.317 592.856 120.328L592.512 120.342L587.069 120.55C585.24 120.661 583.411 120.605 581.612 120.855L576.17 121.507C568.899 122.512 561.729 124.063 554.73 126.143C551.282 127.281 547.758 128.349 544.355 129.612C540.952 130.875 537.518 132.138 534.145 133.512C520.712 138.98 507.758 145.17 494.085 149.778L488.972 151.457C487.263 151.984 485.524 152.401 483.8 152.886C480.351 153.913 476.828 154.538 473.305 155.246C472.435 155.412 471.55 155.62 470.771 155.676L468.117 155.995L462.855 156.675C459.346 156.981 455.343 156.994 451.985 157.189C437.564 157.038 423.288 154.51 409.826 149.722C396.212 145.198 383.199 138.953 369.765 133.484C366.437 132.069 363.003 130.834 359.555 129.585C356.107 128.336 352.643 127.239 349.18 126.115C342.169 124.019 334.983 122.464 327.696 121.466C313.355 119.597 298.765 120.209 284.666 123.27C271.253 126.367 258.251 130.826 245.895 136.566C233.781 141.867 222.162 147.21 210.363 151.166C208.893 151.665 207.439 152.206 205.955 152.637C204.47 153.067 202.986 153.469 201.562 153.927C198.644 154.768 195.681 155.473 192.686 156.037C191.202 156.301 189.733 156.717 188.263 156.883L183.886 157.466C182.401 157.647 180.977 157.883 179.493 158.008C178.008 158.133 176.494 158.174 174.995 158.23C163.694 158.775 152.369 157.75 141.396 155.19C131.242 152.647 121.324 149.352 111.741 145.337C102.505 141.645 93.8393 137.787 85.4884 134.553C71.2107 128.566 56.0002 124.707 40.4203 123.117C34.6461 122.66 28.8433 122.595 23.0588 122.923C18.8077 123.199 14.5776 123.704 10.3899 124.436C6.88165 124.908 4.37787 125.616 2.6687 126.032L0 126.615Z" fill="url(#paint7_linear_2169_3881)"/>
</g>
<defs>
<linearGradient id="paint0_linear_2169_3881" x1="226" y1="311.157" x2="643.16" y2="-139.498" gradientUnits="userSpaceOnUse">
<stop offset="0.317708" stop-color="#007A79"/>
<stop offset="0.526042" stop-color="#142034"/>
</linearGradient>
<linearGradient id="paint1_linear_2169_3881" x1="226" y1="420.367" x2="643.16" y2="-30.2882" gradientUnits="userSpaceOnUse">
<stop offset="0.317708" stop-color="#007A79"/>
<stop offset="0.526042" stop-color="#142034"/>
</linearGradient>
<linearGradient id="paint2_linear_2169_3881" x1="226" y1="282.974" x2="643.16" y2="-167.681" gradientUnits="userSpaceOnUse">
<stop offset="0.317708" stop-color="#007A79"/>
<stop offset="0.526042" stop-color="#142034"/>
</linearGradient>
<linearGradient id="paint3_linear_2169_3881" x1="226" y1="392.184" x2="643.16" y2="-58.4714" gradientUnits="userSpaceOnUse">
<stop offset="0.317708" stop-color="#007A79"/>
<stop offset="0.526042" stop-color="#142034"/>
</linearGradient>
<linearGradient id="paint4_linear_2169_3881" x1="226" y1="254.791" x2="643.16" y2="-195.864" gradientUnits="userSpaceOnUse">
<stop offset="0.317708" stop-color="#007A79"/>
<stop offset="0.526042" stop-color="#142034"/>
</linearGradient>
<linearGradient id="paint5_linear_2169_3881" x1="226" y1="364" x2="643.16" y2="-86.6549" gradientUnits="userSpaceOnUse">
<stop offset="0.317708" stop-color="#007A79"/>
<stop offset="0.526042" stop-color="#142034"/>
</linearGradient>
<linearGradient id="paint6_linear_2169_3881" x1="226" y1="226.608" x2="643.16" y2="-224.048" gradientUnits="userSpaceOnUse">
<stop offset="0.317708" stop-color="#007A79"/>
<stop offset="0.526042" stop-color="#142034"/>
</linearGradient>
<linearGradient id="paint7_linear_2169_3881" x1="226" y1="335.817" x2="643.16" y2="-114.838" gradientUnits="userSpaceOnUse">
<stop offset="0.317708" stop-color="#007A79"/>
<stop offset="0.526042" stop-color="#142034"/>
</linearGradient>
<clipPath id="clip0_2169_3881">
<rect width="456" height="264" fill="white"/>
</clipPath>
</defs>
</svg>
