<svg width="337" height="345" viewBox="0 0 337 345" fill="none" xmlns="http://www.w3.org/2000/svg">
<g clip-path="url(#clip0_2119_8684)">
<mask id="mask0_2119_8684" style="mask-type:alpha" maskUnits="userSpaceOnUse" x="-102" y="18" width="492" height="429">
<path d="M389.489 446.461C389.489 446.461 388.387 444.146 386.247 439.854C384.107 435.562 381.19 429.208 377.591 421.076C373.993 412.944 369.519 403.146 363.652 392.218C360.604 386.825 357.363 381.065 353.343 375.276C349.319 369.175 344.813 363.326 339.857 357.769C334.554 351.721 328.7 346.056 322.351 340.827L311.815 332.723L300.534 325.438C283.54 315.858 265.302 308.067 246.201 302.228C226.329 295.648 204.998 290.086 184.153 281.699C162.669 273.518 143.047 262.041 126.223 247.815C122.397 244.088 118.475 240.587 114.779 236.52L109.333 230.308L106.642 227.202L104.276 224.012L99.5426 217.574C97.9541 215.456 96.7222 213.169 95.2958 210.966C93.8694 208.764 92.4755 206.561 91.2436 204.302L87.3534 197.751C77.628 179.623 71.339 161.043 63.7856 143.734C57.0869 127.065 48.1534 111.142 37.1705 96.2964L28.6769 86.3571L19.5675 77.3495C18.2708 75.9659 16.3257 74.5259 14.8345 73.1705C13.3433 71.8152 11.5927 70.3468 9.9718 69.1891L5.14157 65.4901L0.116733 62.0452C-6.26986 57.7292 -12.9849 53.7953 -19.9823 50.2705C-26.4659 46.7973 -33.1765 43.9737 -39.4331 41.3194C-51.9465 36.2085 -63.2603 32.3401 -72.5643 29.1493C-81.8682 25.9585 -89.1623 23.5019 -94.1223 21.6101L-101.676 18.7864L-93.9278 21.1301L-71.8835 27.4834C-62.4175 30.307 -50.8443 33.639 -37.8771 38.2416C-23.2046 43.3921 -9.27746 50.0262 3.61792 58.0074L8.93442 61.3958L14.3806 65.0383C16.2285 66.2807 17.817 67.6361 19.5027 68.9632C21.1884 70.2903 22.7445 71.4763 24.5923 73.1423L34.3177 82.291L43.4596 92.4562C55.3642 107.475 65.0369 123.746 72.2467 140.882C80.1567 158.361 87.0941 176.658 96.3981 194.109L100.061 200.575C101.228 202.749 102.655 204.811 103.984 206.928C105.313 209.046 106.545 211.22 108.069 213.225L112.575 219.296L114.844 222.317L117.34 225.141L122.3 230.788C125.801 234.516 129.918 238.13 133.711 241.829L139.676 246.573C141.751 248.154 143.663 249.933 145.868 251.373L152.351 255.778L155.593 257.98L159.062 259.957L166.032 263.882C168.334 265.209 170.862 266.254 173.261 267.44C175.66 268.626 178.059 269.812 180.555 270.856L188.206 273.991C208.24 282.095 229.247 288.109 249.314 295.027C268.983 301.303 287.663 309.718 304.91 320.073L316.71 328.149L326.987 336.62C333.421 342.258 339.309 348.349 344.59 354.833C353.753 366.065 361.369 378.196 367.283 390.976C372.599 402.271 376.424 412.323 379.634 420.568L386.928 439.769L389.489 446.461Z" fill="#007A79"/>
<path d="M359.664 446.461C359.664 446.461 358.692 444.287 356.779 440.249C354.866 436.211 352.078 430.281 348.48 422.742C344.152 413.746 339.205 404.987 333.665 396.51C330.618 391.541 326.663 386.656 322.643 381.432C320.536 378.89 318.104 376.434 315.803 373.836C314.636 372.537 313.501 371.182 312.204 369.939L308.184 366.24L304.067 362.457L302.09 360.65L299.756 358.842C296.514 356.47 293.272 353.957 290.03 351.557L279.721 344.95C276.123 342.832 272.265 340.855 268.472 338.766C251.84 330.696 234.39 323.976 216.344 318.69C197.607 312.76 177.67 307.225 158.251 299.15C138.342 291.191 120.15 280.312 104.47 266.988L98.9266 261.679C97.1436 259.929 95.2958 258.291 93.5452 256.456C90.3034 252.587 86.6402 248.775 83.5605 244.822C77.5205 236.957 72.1673 228.707 67.546 220.143C58.1772 203.257 51.953 185.892 45.21 169.514C39.1519 153.806 31.4471 138.617 22.1933 124.138C19.7619 120.834 17.5251 117.474 15.0614 114.311L7.37823 105.276C4.65512 102.452 1.86719 99.6284 -0.823517 97.0588L-2.83337 95.054L-4.97299 93.3033L-9.38177 89.6608L-13.7258 86.0747C-15.1522 84.9452 -16.6759 84.0134 -18.1347 82.9687C-21.1171 80.9639 -23.9051 78.9026 -26.8227 77.0672C-32.4016 73.6123 -38.1795 70.408 -44.1338 67.4666C-53.8724 62.6445 -63.9286 58.3262 -74.2501 54.5342C-91.4641 48.2374 -101.449 44.7925 -101.449 44.7925L-94.1223 46.8538C-89.3569 48.2091 -82.3546 50.1575 -73.5045 52.9247C-62.8579 56.2594 -52.4447 60.1345 -42.3184 64.53C-36.0556 67.2554 -29.9533 70.2522 -24.0347 73.5093C-20.7929 75.26 -17.8753 77.3495 -14.6659 79.3261C-13.1099 80.3426 -11.4241 81.3309 -9.90048 82.4322L-5.42679 85.8488L-0.855834 89.3502L1.5755 91.2138L3.74744 93.2186C6.66507 96.0423 9.71237 98.6118 12.6624 101.464L20.9938 110.669C23.6521 113.888 26.1159 117.305 28.7418 120.693C38.7616 135.273 47.1012 150.681 53.6387 166.691C60.7382 183.096 67.6109 200.038 76.5258 216.275C80.9904 224.406 86.1372 232.239 91.9243 239.711C94.8419 243.41 98.0837 246.799 101.131 250.385C104.178 253.971 108.49 257.387 111.764 260.522C126.527 273.284 143.714 283.725 162.563 291.385C181.203 299.178 200.654 305.136 219.521 311.32C237.939 317.025 255.661 324.308 272.427 333.062C276.35 335.349 280.24 337.467 283.968 339.811L294.634 347.124C297.876 349.694 300.89 352.263 303.938 354.776L306.175 356.64L308.347 358.786L312.431 362.824L316.451 366.777C317.715 368.132 318.818 369.601 319.985 370.928C322.221 373.751 324.62 376.293 326.468 379.003C330.261 384.651 333.989 389.733 336.777 394.929C341.838 403.753 346.287 412.833 350.101 422.121C353.343 429.801 355.547 435.929 357.103 440.08L359.664 446.461Z" fill="#007A79"/>
<path d="M329.807 446.461L326.922 440.814C326.014 438.95 324.815 436.635 323.324 433.981C321.833 431.326 320.277 428.333 318.267 424.888C313.594 416.766 308.23 408.961 302.22 401.536L296.676 395.042L290.193 388.519C288.053 386.26 285.492 384.227 283.093 381.997C281.861 380.952 280.629 379.653 279.365 378.778L275.378 375.502L271.131 372.255L268.959 370.589L266.657 369.149L257.353 363.219L247.077 357.572C243.608 355.708 239.815 354.183 236.12 352.433C220.08 345.721 203.567 339.902 186.682 335.01C168.223 329.74 150.144 323.507 132.544 316.346C128.07 314.369 123.662 312.195 119.22 310.106L106.253 302.962C102.201 300.138 98.0514 297.597 94.0316 294.829L82.4908 285.681L72.4088 276.024C69.167 272.494 66.0874 268.852 62.9428 265.266C59.7983 261.679 57.4642 257.783 54.7411 253.971C52.018 250.159 49.8784 246.262 47.6091 242.365C39.3901 227.044 32.2345 211.307 26.1809 195.238C20.5914 180.612 13.9543 166.306 6.30865 152.403C4.29873 149.184 2.54815 145.909 0.408596 142.859C-1.73099 139.809 -3.87061 136.873 -6.07505 133.936L-12.9476 125.747L-14.6333 123.714L-16.4811 121.879L-20.1769 118.236L-23.7752 114.65C-24.9432 113.496 -26.1881 112.402 -27.5032 111.375C-30.0967 109.257 -32.528 106.97 -35.089 105.106L-42.5128 99.459L-49.9688 94.6587C-58.4749 89.3586 -67.4382 84.6385 -76.7786 80.5403C-80.6363 78.7896 -84.1699 77.3778 -87.2172 76.1071C-90.2644 74.8365 -92.8903 73.7917 -95.0623 73.0011L-101.546 70.488L-94.7705 72.5493C-92.5661 73.1988 -89.843 74.0459 -86.666 75.1189C-83.489 76.1919 -79.8583 77.3778 -75.8709 78.9591C-66.1416 82.5929 -56.7454 86.869 -47.7644 91.7503L-39.8221 96.2964L-31.7176 101.633C-28.8649 103.44 -26.4659 105.586 -23.7427 107.619C-22.3812 108.721 -21.0521 109.568 -19.6581 110.895C-18.2642 112.222 -17.0647 113.267 -15.7679 114.453C-14.4712 115.639 -13.1421 116.881 -11.7805 118.095L-9.7706 119.959L-7.92288 121.964L-0.369449 130.237C1.89981 133.061 4.23388 136.223 6.56796 139.301C8.90207 142.379 10.8471 145.739 13.0516 149.015C21.4579 163.042 28.7056 177.574 34.7392 192.499C41.0662 208.137 48.3379 223.472 56.5241 238.441C58.7285 242.168 61.1274 245.782 63.4291 249.481L71.1445 260.352L79.865 270.207L90.1415 279.638L100.677 288.109L112.121 295.818L124.278 302.679C128.524 304.684 132.706 306.774 136.953 308.694C154.147 315.82 171.764 322.144 189.729 327.641C206.889 332.934 223.594 339.285 239.718 346.644C243.478 348.564 247.336 350.258 250.87 352.291L261.308 358.334L271.034 364.97L273.368 366.607L275.443 368.33L279.527 371.747C289.611 379.991 298.397 389.363 305.656 399.616C311.142 407.446 315.953 415.619 320.05 424.069C321.865 427.543 323.291 430.733 324.458 433.5C325.625 436.268 326.695 438.611 327.441 440.56C328.997 444.4 329.807 446.461 329.807 446.461Z" fill="#007A79"/>
<path d="M299.043 446.461L295.801 441.322C293.791 437.99 290.582 433.218 286.367 427.204C281.154 420.142 275.311 413.448 268.894 407.184C267.046 405.405 265.166 403.513 262.994 401.734L259.752 398.91L259.169 398.233L258.974 398.063L258.812 398.063L258.391 397.724L256.575 396.397L249.249 390.75L247.369 389.338L245.359 388.067L241.306 385.498C235.583 381.891 229.642 378.555 223.509 375.502L213.589 371.012C210.347 369.431 206.619 368.189 203.086 366.749C188.757 361.101 173.034 356.555 156.696 351.501C139.602 346.574 122.93 340.601 106.804 333.627C98.4806 329.842 90.4556 325.578 82.7826 320.864C79.0546 318.351 75.1644 315.979 71.5661 313.296L60.8357 304.825L51.5317 295.902C48.4844 292.825 45.6317 289.295 42.7141 286.02C37.268 279.34 32.3611 272.339 28.0288 265.068C20.0189 251.013 13.1615 236.482 7.50814 221.583C1.70531 207.465 -3.64362 193.629 -9.99754 181.148C-11.6509 178.07 -13.0772 174.936 -14.8602 172.028L-20.0471 163.387C-23.5582 158.027 -27.4112 152.842 -31.5879 147.857C-32.5929 146.671 -33.5653 145.457 -34.5703 144.299L-36.0291 142.548L-37.65 140.939L-43.9067 134.642C-45.8518 132.524 -48.0563 130.745 -50.1635 128.995C-52.2706 127.244 -54.3777 125.493 -56.4201 123.856C-63.6282 118.279 -71.3237 113.2 -79.4368 108.664C-86.277 104.965 -91.7881 102.198 -95.6458 100.447L-101.513 97.6236L-95.3864 99.8825C-91.4314 101.407 -85.661 103.666 -78.4642 107.055C-69.8815 111.178 -61.6963 115.899 -53.9887 121.173C-51.7519 122.726 -49.3854 124.307 -47.2134 126.058C-44.8309 127.834 -42.5585 129.719 -40.4056 131.705C-35.5775 135.804 -31.0719 140.181 -26.9197 144.807C-22.3464 149.794 -18.0932 154.998 -14.1795 160.394L-8.44144 169.176C-6.46393 171.999 -4.90797 175.303 -3.06016 178.409C3.90972 191.059 9.90713 204.811 15.9693 218.929C21.8783 233.322 28.8297 247.375 36.7816 261.002C40.9274 267.867 45.6178 274.471 50.8185 280.768C53.574 283.789 56.0378 286.895 58.9879 289.86L68.3891 298.754L78.1144 306.52C81.3562 309.089 85.1491 311.32 88.6503 313.748C95.8889 318.274 103.47 322.368 111.343 326.003C127.032 332.929 143.209 338.983 159.775 344.131C175.984 349.383 191.804 354.635 206.295 360.706C209.893 362.287 213.524 363.671 216.928 365.393L226.978 370.391C233.198 373.804 239.194 377.518 244.937 381.517C250.205 385.116 255.197 389.012 259.882 393.178L261.568 394.618L261.989 394.957L262.248 395.211L262.411 395.409L263.189 396.171C264.226 397.16 265.231 398.176 266.236 399.165C268.311 401.085 270.094 403.118 271.877 405.066C278.016 411.804 283.524 418.962 288.345 426.47C292.267 432.682 294.828 437.764 296.579 441.237L299.043 446.461Z" fill="#007A79"/>
<path d="M266.073 446.461C266.073 446.461 264.842 444.936 262.605 442.084C260.368 439.233 256.802 435.195 252.199 430.197C246.56 424.274 240.369 418.768 233.688 413.735C229.648 410.557 225.382 407.605 220.915 404.897L213.783 400.463L205.938 396.313C194.28 390.435 182.081 385.41 169.468 381.291C156.047 376.688 141.491 372.565 126.482 367.878C110.785 363.182 95.5347 357.423 80.8697 350.654L75.2289 347.971L69.7828 344.95C66.0805 343.012 62.5086 340.89 59.0848 338.597L53.8655 335.152C52.1042 334.051 50.4258 332.853 48.8407 331.566L39.1153 323.744L30.5895 315.555C29.0976 314.177 27.7113 312.715 26.4399 311.179L22.4526 306.604C19.8087 303.587 17.3521 300.448 15.0936 297.201L11.625 292.458L8.57768 287.573C0.810135 274.815 -5.78075 261.539 -11.1325 247.872C-16.5139 234.798 -21.2469 222.12 -26.531 210.43C-31.2902 199.431 -37.0914 188.796 -43.8746 178.635L-48.8022 171.773L-53.9241 165.561C-57.0185 161.702 -60.3857 158.015 -64.0062 154.521C-67.0615 151.343 -70.3078 148.308 -73.7315 145.429C-76.9733 142.605 -80.2151 140.515 -82.8085 138.341C-88.5465 134.36 -93.1175 131.169 -96.4241 129.305L-101.449 126.284L-96.1324 128.882C-91.1121 131.346 -86.2527 134.052 -81.5766 136.986C-74.2749 141.555 -67.4318 146.656 -61.1209 152.234C-57.1143 155.589 -53.357 159.164 -49.8719 162.935C-48.0241 164.912 -46.1114 166.945 -44.2312 169.091L-39.0768 175.924L-36.3536 179.454L-33.8575 183.209C-32.2042 185.751 -30.3887 188.292 -28.8002 190.974C-25.5584 196.368 -22.4787 201.987 -19.626 207.917C-13.7583 219.663 -8.40937 232.285 -2.83351 245.161C2.7491 258.306 9.38969 271.091 17.0387 283.422L20.1185 288.109L23.3603 292.571C25.4776 295.602 27.7939 298.525 30.2977 301.324L33.9933 305.503C35.1986 306.957 36.5202 308.334 37.9483 309.626L46.5391 317.786L55.5188 324.817C56.9989 326.055 58.5808 327.197 60.2519 328.234L65.1146 331.509C68.3262 333.714 71.6935 335.742 75.1965 337.58L80.3186 340.404L85.7 342.973C99.8001 349.696 114.437 355.528 129.497 360.424C144.312 365.28 158.673 369.968 172.256 375.05C179.031 377.535 185.482 380.302 191.707 383.041C194.786 384.425 197.704 386.006 200.622 387.446L204.933 389.62L209.018 391.992L217.025 396.595C219.521 398.261 221.855 399.927 224.157 401.565C228.449 404.598 232.53 407.851 236.379 411.306C242.778 416.815 248.644 422.774 253.917 429.124C257.283 433.202 260.378 437.444 263.188 441.83C265.004 444.852 266.073 446.461 266.073 446.461Z" fill="#007A79"/>
<path d="M229.312 446.461L225.519 442.96C224.319 441.802 222.796 440.39 220.883 438.865L217.868 436.352C216.831 435.449 215.696 434.573 214.399 433.529C211.806 431.665 208.986 429.576 205.906 427.317C202.826 425.058 199.163 423.081 195.435 420.737C186.858 415.775 177.901 411.331 168.625 407.438C158.284 403.372 146.938 399.277 134.586 395.55C122.235 391.823 109.073 388.096 95.6849 383.606C81.5966 379.157 67.9378 373.737 54.8382 367.398C41.3207 360.501 28.7947 352.226 17.5251 342.747L9.5503 335.321C6.90133 332.801 4.4329 330.142 2.15902 327.358C-2.56087 321.95 -6.89156 316.291 -10.8082 310.416C-18.1097 299.013 -24.3433 287.115 -29.4485 274.838C-34.5705 263.063 -38.7525 251.542 -43.1613 240.954C-47.5701 230.365 -52.1411 220.313 -56.8093 211.305C-61.2672 203.211 -66.3692 195.399 -72.0781 187.925C-74.8012 184.678 -77.1353 181.515 -79.6639 178.804L-86.7311 171.463C-88.8058 169.176 -91.0102 167.453 -92.7607 165.816C-94.5113 164.178 -96.0026 162.851 -97.4614 161.778L-101.514 158.22L-97.1372 161.043C-95.7108 162.004 -93.8954 163.161 -91.9828 164.686C-90.0701 166.211 -87.6387 167.764 -85.337 169.91L-77.4595 176.828C-74.6067 179.369 -72.0133 182.475 -68.966 185.609L-66.6967 188.038L-64.5895 190.664L-60.1808 196.311C-58.6387 198.252 -57.2104 200.259 -55.9016 202.326L-51.6224 208.764C-45.7978 218.364 -40.6026 228.244 -36.0618 238.356L-21.0847 271.873C-15.7609 283.606 -9.48847 294.995 -2.31469 305.955C1.41064 311.522 5.53593 316.879 10.0366 321.993C12.2005 324.604 14.55 327.093 17.0713 329.448L24.6571 336.648C35.2286 345.657 46.9798 353.552 59.6685 360.169C72.2555 366.43 85.3428 371.893 98.8294 376.519L137.309 389.564C148.919 393.519 160.262 398.044 171.284 403.118L178.642 406.704C181.025 407.844 183.341 409.088 185.58 410.431L192.063 414.271L195.111 416.107L197.899 418.083C201.4 420.822 204.998 423.081 207.883 425.538L215.761 432.343C217.887 434.188 219.899 436.13 221.791 438.16C223.541 439.854 224.87 441.407 225.94 442.649L229.312 446.461Z" fill="#007A79"/>
<path d="M186.552 446.461L182.63 444.005L177.897 441.181L174.882 439.346L171.348 437.454C168.884 436.155 166.129 434.63 163.114 433.133C160.099 431.637 156.63 430.169 153.064 428.531C149.499 426.893 145.479 425.425 141.362 423.646C137.245 421.867 132.738 420.822 128.135 419.071C118.766 416.022 108.684 412.972 97.6298 409.753C86.5752 406.534 75.1317 403.202 63.364 399.023C51.0907 394.843 39.2478 389.761 27.9636 383.832L19.2756 379.003C16.4228 377.337 13.7969 375.417 11.0414 373.638L6.95678 370.815C5.66006 369.855 4.39574 368.81 3.09904 367.822L-4.68136 361.61L-11.4567 355.143C-12.5589 354.042 -13.7259 353.026 -14.6985 351.868L-17.9403 348.282C-20.015 345.853 -22.2843 343.481 -24.1969 341.025L-29.7404 333.57C-36.566 323.76 -42.4015 313.453 -47.1812 302.764C-51.9791 292.486 -55.8368 282.405 -59.5 272.889C-63.1633 263.374 -66.6969 254.507 -70.1656 246.347C-72.0782 242.337 -73.764 238.441 -75.5794 234.826C-77.3948 231.212 -79.113 227.739 -80.9608 224.604L-86.2125 215.851L-91.2048 208.679L-93.3768 205.573L-95.484 202.975L-98.7258 198.881L-101.514 195.464L-98.272 198.57L-94.3818 202.326L-91.918 204.726L-89.4218 207.549L-83.5866 214.693L-77.4271 223.164C-75.2551 226.242 -73.2777 229.631 -70.9436 233.16C-68.6095 236.69 -66.7941 240.587 -64.46 244.455C-62.1259 248.323 -60.4726 252.7 -58.5275 257.049C-56.5825 261.397 -54.4429 266 -52.3357 270.687C-48.1538 280.033 -43.7774 289.832 -38.8823 299.771C-33.8817 309.902 -28.0306 319.699 -21.3766 329.081L-15.8979 336.112C-14.0825 338.427 -12.0078 340.517 -10.0951 342.719L-7.14504 346.023C-6.10767 347.096 -4.90821 348.169 -3.90325 349.242L3.0666 355.652L10.0689 361.299C11.2683 362.259 12.4353 363.247 13.6672 364.123L17.4926 366.72C20.0861 368.415 22.5174 370.25 25.1757 371.859L33.2477 376.49C44.0002 382.306 55.2374 387.412 66.8651 391.766C78.2762 396.03 89.5577 399.842 100.288 403.485L115.881 408.906C120.938 410.713 125.606 412.577 130.404 414.356C135.202 416.135 139.417 417.97 143.372 420.003C147.326 422.036 151.346 423.702 154.847 425.651L164.573 431.016L172.45 436.127L175.692 438.301L178.415 440.447L182.727 443.807L186.552 446.461Z" fill="#007A79"/>
<path d="M133.419 446.461L129.788 445.078C127.389 444.202 123.953 442.79 119.447 441.294C114.941 439.797 109.527 437.99 103.238 435.985C96.9489 433.981 89.7522 432.06 81.9071 429.83C74.0619 427.599 65.5036 425.312 56.5238 422.545C47.0092 419.754 37.6611 416.55 28.5147 412.944C18.6028 409.108 9.07191 404.566 0.0192607 399.362C-9.30419 393.865 -18.0482 387.657 -26.1096 380.811L-31.8475 375.417L-34.6355 372.763L-37.3262 369.939C-39.0768 367.991 -40.957 366.071 -42.6103 364.094L-47.4082 358.108C-53.4116 350.224 -58.6387 341.911 -63.0337 333.26C-67.1787 325.295 -70.8574 317.152 -74.0558 308.863C-77.2976 301.042 -79.891 293.615 -82.4196 286.754C-84.9482 279.892 -87.3147 273.708 -89.4867 268.202C-91.6587 262.696 -93.7334 257.924 -95.5813 254.084C-97.4291 250.244 -98.8231 247.166 -99.8929 245.104L-101.481 241.942L-99.4065 244.766C-98.1098 246.714 -95.9378 249.453 -93.7334 253.237C-91.529 257.02 -88.7411 261.482 -85.8559 266.819L-81.4471 275.29L-76.8761 284.834C-73.7964 291.498 -70.3925 298.698 -66.8913 306.322C-63.3902 313.946 -59.338 321.796 -54.8643 329.73C-50.3087 337.823 -45.0866 345.618 -39.2388 353.054C-37.7152 354.917 -36.1916 356.809 -34.6355 358.701C-33.0795 360.593 -31.3937 362.259 -29.7079 364.038L-27.2442 366.692L-24.4239 369.29L-18.8804 374.429C-11.3377 380.957 -3.14736 386.891 5.59515 392.162C14.1646 397.25 23.1341 401.807 32.4372 405.8C41.5143 409.697 50.5589 413.17 59.2793 416.276L83.9494 425.029L94.939 429.011L104.664 432.851C110.791 435.336 116.043 437.651 120.29 439.713C124.537 441.774 127.746 443.496 130.015 444.654L133.419 446.461Z" fill="#007A79"/>
<path d="M61.4193 446.461C61.4193 446.461 57.6912 445.671 51.2725 444.174C48.0307 443.44 44.1406 442.508 39.6993 441.35L32.5998 439.515L24.8194 437.228C19.3732 435.731 13.5704 433.698 7.47579 431.58C4.23399 430.592 1.38127 429.152 -1.79569 427.881C-5.07324 426.629 -8.26623 425.215 -11.359 423.646L-20.8899 418.733C-24.1317 417.01 -27.0817 414.977 -30.1939 413.085L-34.8296 410.092C-36.3532 409.047 -37.7472 407.861 -39.206 406.76L-48.0885 399.814L-55.6743 392.444C-56.9062 391.202 -58.2029 390.044 -59.4024 388.745L-62.9036 384.623C-65.1728 381.799 -67.6042 379.229 -69.5816 376.434L-75.2223 368.132C-77.026 365.454 -78.6601 362.692 -80.1175 359.859C-81.5763 357.035 -83.3593 354.494 -84.3642 351.783C-86.8604 346.446 -89.2269 341.42 -90.8478 336.676C-91.7555 334.305 -92.6308 332.017 -93.4737 329.871C-94.3165 327.725 -94.9 325.636 -95.5808 323.687C-96.9099 319.819 -97.9797 316.431 -98.8226 313.635C-100.541 307.988 -101.416 304.797 -101.416 304.797C-101.416 304.797 -99.7303 307.621 -96.9099 313.014L-91.8852 322.502C-90.005 326.172 -87.7681 330.267 -85.4016 334.728C-83.0351 339.19 -80.1823 343.905 -77.3619 348.847C-76.0004 351.388 -74.1202 353.788 -72.5317 356.329C-70.9432 358.871 -69.2899 361.581 -67.3448 364.038L-61.7689 371.605C-60.7696 372.882 -59.6872 374.107 -58.5271 375.276L-55.2853 378.975L-52.0435 382.702C-50.8765 383.945 -49.5149 385.131 -48.2506 386.345L-40.5675 393.602L-32.5928 399.955C-31.2636 401.028 -29.9345 402.158 -28.5405 403.174L-24.1965 405.998C-21.2789 407.833 -18.5558 409.895 -15.6058 411.645L-6.65839 416.784C-3.83803 418.535 -0.693479 419.777 2.1593 421.302C5.01208 422.827 7.73517 424.324 10.6528 425.481C16.4232 427.966 21.8046 430.507 26.8618 432.512C31.919 434.517 36.5872 436.522 40.8987 438.16L51.7912 442.536C57.9182 444.965 61.4193 446.461 61.4193 446.461Z" fill="#007A79"/>
</mask>
<g mask="url(#mask0_2119_8684)">
<rect x="-242" y="34" width="684" height="418" fill="url(#paint0_linear_2119_8684)"/>
</g>
</g>
<defs>
<linearGradient id="paint0_linear_2119_8684" x1="100" y1="34" x2="100" y2="452" gradientUnits="userSpaceOnUse">
<stop offset="0.395833" stop-color="#007A79"/>
<stop offset="1" stop-color="#142034"/>
</linearGradient>
<clipPath id="clip0_2119_8684">
<rect width="337" height="345" fill="white"/>
</clipPath>
</defs>
</svg>
