<svg width="320" height="80" viewBox="0 0 320 80" fill="none" xmlns="http://www.w3.org/2000/svg">
<g clip-path="url(#clip0_2344_19797)">
<path d="M-233 80.2559L-230.319 79.7963C-228.572 79.5061 -225.966 79.0103 -222.502 78.6475C-218.292 78.1195 -214.047 77.7965 -209.789 77.68C-204 77.5707 -198.209 77.7686 -192.452 78.2726C-177.036 79.9682 -162.05 83.6088 -148.049 89.0596C-139.765 92.0829 -131.255 95.5536 -121.991 98.976C-112.284 102.716 -102.195 105.783 -91.8368 108.143C-80.447 110.571 -68.6679 111.615 -56.8925 111.238L-52.3588 111.105C-50.8375 110.996 -49.271 110.803 -47.7196 110.67L-43.0202 110.186C-41.4386 110.053 -39.9324 109.715 -38.366 109.473C-35.2368 109.005 -32.1399 108.408 -29.0876 107.683L-24.4183 106.595C-22.8669 106.22 -21.3758 105.748 -19.8997 105.385C-7.63902 101.999 4.29026 97.3797 16.4455 92.9657C28.5679 88.2337 41.2678 84.5215 54.342 81.8884C67.8501 79.4319 81.81 79.0177 95.5071 80.667C102.452 81.5276 109.298 82.8421 115.977 84.5972C119.32 85.5647 122.679 86.4717 126.023 87.5601C129.367 88.6484 132.681 89.7368 135.979 90.9582C149.219 95.6866 162.353 101.225 176.527 105.422C190.757 109.849 205.852 112.215 221.111 112.411L226.85 112.182C228.717 112.085 230.525 112.133 232.498 111.879L238.267 111.238L241.159 110.924C242.093 110.803 243.026 110.609 243.945 110.452C247.681 109.87 251.376 109.131 255.016 108.239C256.839 107.792 258.676 107.405 260.453 106.921L265.786 105.373C279.989 101.225 293.018 95.6019 306.318 90.9219C309.617 89.6763 312.96 88.6363 316.274 87.5238C319.588 86.4112 322.901 85.5888 326.336 84.5488C333.024 82.7925 339.88 81.4781 346.835 80.6186L352.002 80.0502C353.734 79.8446 355.466 79.8809 357.213 79.7842L362.38 79.5786L362.711 79.5786C362.786 79.5181 362.711 79.5786 362.907 79.5665L363.569 79.5907L364.895 79.639L367.546 79.7358L372.833 79.9172L377.863 80.4493C379.535 80.6549 381.222 80.7274 382.864 81.0297L387.835 81.8763C400.905 84.5013 413.6 88.2096 425.716 92.9415C437.871 97.3796 449.816 101.987 462.076 105.373C473.979 108.798 486.453 110.775 499.084 111.238L503.648 111.371C505.35 111.408 506.661 111.371 508.197 111.226C509.733 111.081 511.104 111.142 512.61 111.045C513.333 111.021 514.056 110.996 514.794 110.936L517.008 110.682C519.945 110.331 522.913 110.102 525.729 109.606C528.546 109.11 531.348 108.626 534.089 108.07C544.444 105.711 554.531 102.652 564.243 98.9275C573.507 95.5052 582.017 91.9135 590.301 89.0112C604.311 83.5487 619.315 79.9116 634.75 78.2362C640.477 77.7497 646.239 77.5679 651.996 77.692C656.258 77.8052 660.509 78.1243 664.723 78.6474C668.173 78.9981 670.763 79.506 672.541 79.7963L675.192 80.2558L672.541 79.7237C670.809 79.373 668.218 78.8167 664.799 78.3451C654.857 76.8451 644.705 76.4504 634.629 77.172C621.555 77.9944 606.026 81.3925 589.322 87.1609C580.932 89.9786 572.241 93.3284 562.963 96.5452C553.348 100.03 543.4 102.889 533.215 105.095L525.082 106.474C522.355 106.921 519.569 107.078 516.782 107.405L514.674 107.622C513.951 107.671 513.228 107.671 512.49 107.707L508.091 107.828C506.661 107.84 504.959 107.925 503.754 107.901L499.37 107.719C487.191 107.134 475.192 105.075 463.778 101.612C451.955 98.1657 440.266 93.4977 428.096 88.8782C415.684 83.8876 402.627 80.0067 389.16 77.3051L383.903 76.4706C382.156 76.1562 380.334 76.0232 378.511 75.8176L373.149 75.2855L367.712 74.959L365.061 74.8623L363.735 74.8139L363.072 74.7897C362.918 74.7719 362.761 74.7679 362.605 74.7776L362.259 74.7897L356.791 74.9711C354.954 75.0679 353.116 75.0195 351.309 75.2372L345.841 75.8055C338.537 76.6813 331.334 78.0321 324.302 79.8446C320.838 80.8363 317.298 81.7674 313.879 82.8679C310.46 83.9684 307.011 85.0688 303.622 86.266C290.126 91.0307 277.112 96.4243 263.376 100.439L258.239 101.902C256.522 102.362 254.775 102.725 253.043 103.148C249.579 104.043 246.039 104.587 242.499 105.204C241.626 105.349 240.737 105.53 239.954 105.579L237.288 105.857L232.001 106.449C228.476 106.716 224.455 106.728 221.081 106.897C206.593 106.765 192.251 104.562 178.726 100.391C165.049 96.4485 151.975 91.0066 138.48 86.2419C135.136 85.0084 131.687 83.9321 128.222 82.8437C124.758 81.7554 121.279 80.8 117.799 79.8205C110.756 77.994 103.537 76.639 96.215 75.7693C81.8085 74.1409 67.1506 74.6739 52.9864 77.3414C39.5113 80.0403 26.4485 83.9256 14.0355 88.9266C1.86525 93.5462 -9.80799 98.202 -21.662 101.649C-23.1381 102.084 -24.5991 102.556 -26.0903 102.93C-27.5814 103.305 -29.0726 103.656 -30.5035 104.055C-33.4353 104.788 -36.4114 105.401 -39.4203 105.893C-40.9115 106.123 -42.3876 106.486 -43.8637 106.631L-48.2618 107.139C-49.753 107.296 -51.1839 107.502 -52.6751 107.61C-54.1662 107.719 -55.6875 107.756 -57.1937 107.804C-68.5468 108.279 -79.9244 107.386 -90.9482 105.156C-101.15 102.939 -111.113 100.068 -120.741 96.5694C-130.02 93.3527 -138.726 89.9908 -147.115 87.1731C-161.459 81.9563 -176.74 78.5933 -192.392 77.2084C-198.193 76.8097 -204.023 76.7531 -209.834 77.0391C-214.105 77.2797 -218.355 77.7199 -222.562 78.3572C-226.086 78.7684 -228.602 79.3852 -230.319 79.7479L-233 80.2559Z" fill="url(#paint0_linear_2344_19797)"/>
<path d="M-233 175.417L-230.319 174.958C-228.572 174.668 -225.966 174.172 -222.502 173.809C-218.292 173.281 -214.047 172.958 -209.789 172.842C-204 172.732 -198.209 172.93 -192.452 173.434C-177.036 175.13 -162.05 178.77 -148.049 184.221C-139.765 187.245 -131.255 190.715 -121.991 194.138C-112.284 197.878 -102.195 200.944 -91.8368 203.304C-80.447 205.733 -68.6679 206.776 -56.8925 206.4L-52.3588 206.267C-50.8375 206.158 -49.271 205.965 -47.7196 205.832L-43.0202 205.348C-41.4386 205.215 -39.9324 204.876 -38.366 204.634C-35.2368 204.167 -32.1399 203.569 -29.0876 202.845L-24.4183 201.756C-22.8669 201.381 -21.3758 200.91 -19.8997 200.547C-7.63902 197.161 4.29026 192.541 16.4455 188.127C28.5679 183.395 41.2678 179.683 54.342 177.05C67.8501 174.594 81.81 174.179 95.5071 175.829C102.452 176.689 109.298 178.004 115.977 179.759C119.32 180.726 122.679 181.633 126.023 182.722C129.367 183.81 132.681 184.898 135.979 186.12C149.219 190.848 162.353 196.387 176.527 200.583C190.757 205.01 205.852 207.377 221.111 207.573L226.85 207.343C228.717 207.246 230.525 207.295 232.498 207.041L238.267 206.4L241.159 206.086C242.093 205.965 243.026 205.771 243.945 205.614C247.681 205.032 251.376 204.293 255.016 203.401C256.839 202.953 258.676 202.566 260.453 202.083L265.786 200.535C279.989 196.387 293.018 190.764 306.318 186.084C309.617 184.838 312.96 183.798 316.274 182.685C319.588 181.573 322.901 180.75 326.336 179.71C333.024 177.954 339.88 176.64 346.835 175.78L352.002 175.212C353.734 175.006 355.466 175.043 357.213 174.946L362.38 174.74L362.711 174.74C362.786 174.68 362.711 174.74 362.907 174.728L363.569 174.752L364.895 174.801L367.546 174.897L372.833 175.079L377.863 175.611C379.535 175.816 381.222 175.889 382.864 176.191L387.835 177.038C400.905 179.663 413.6 183.371 425.716 188.103C437.871 192.541 449.816 197.149 462.076 200.535C473.979 203.96 486.453 205.937 499.084 206.4L503.648 206.533C505.35 206.569 506.661 206.533 508.197 206.388C509.733 206.243 511.104 206.303 512.61 206.206C513.333 206.182 514.056 206.158 514.794 206.098L517.008 205.844C519.945 205.493 522.913 205.263 525.729 204.767C528.546 204.272 531.348 203.788 534.089 203.232C544.444 200.872 554.531 197.814 564.243 194.089C573.507 190.667 582.017 187.075 590.301 184.173C604.311 178.71 619.315 175.073 634.75 173.398C640.477 172.911 646.239 172.73 651.996 172.854C656.258 172.967 660.509 173.286 664.723 173.809C668.173 174.16 670.763 174.668 672.541 174.958L675.192 175.417L672.541 174.885C670.809 174.535 668.218 173.978 664.799 173.507C654.857 172.007 644.705 171.612 634.629 172.334C621.555 173.156 606.026 176.554 589.322 182.323C580.932 185.14 572.241 188.49 562.963 191.707C553.348 195.191 543.4 198.05 533.215 200.257L525.082 201.635C522.355 202.083 519.569 202.24 516.782 202.566L514.674 202.784C513.951 202.832 513.228 202.832 512.49 202.869L508.091 202.99C506.661 203.002 504.959 203.086 503.754 203.062L499.37 202.881C487.191 202.296 475.192 200.237 463.778 196.774C451.955 193.327 440.266 188.659 428.096 184.04C415.684 179.049 402.627 175.168 389.16 172.467L383.903 171.632C382.156 171.318 380.334 171.185 378.511 170.979L373.149 170.447L367.712 170.121L365.061 170.024L363.735 169.976L363.072 169.951C362.918 169.934 362.761 169.93 362.605 169.939L362.259 169.951L356.791 170.133C354.954 170.229 353.116 170.181 351.309 170.399L345.841 170.967C338.537 171.843 331.334 173.194 324.302 175.006C320.838 175.998 317.298 176.929 313.879 178.03C310.46 179.13 307.011 180.23 303.622 181.428C290.126 186.192 277.112 191.586 263.376 195.601L258.239 197.064C256.522 197.524 254.775 197.886 253.043 198.31C249.579 199.205 246.039 199.749 242.499 200.365C241.626 200.511 240.737 200.692 239.954 200.74L237.288 201.019L232.001 201.611C228.476 201.877 224.455 201.889 221.081 202.059C206.593 201.927 192.251 199.724 178.726 195.552C165.049 191.61 151.975 186.168 138.48 181.404C135.136 180.17 131.687 179.094 128.222 178.005C124.758 176.917 121.279 175.962 117.799 174.982C110.756 173.156 103.537 171.801 96.215 170.931C81.8085 169.302 67.1506 169.836 52.9864 172.503C39.5113 175.202 26.4485 179.087 14.0355 184.088C1.86525 188.708 -9.80799 193.364 -21.662 196.81C-23.1381 197.245 -24.5991 197.717 -26.0903 198.092C-27.5814 198.467 -29.0726 198.818 -30.5035 199.217C-33.4353 199.95 -36.4114 200.563 -39.4203 201.055C-40.9115 201.285 -42.3876 201.647 -43.8637 201.793L-48.2618 202.3C-49.753 202.458 -51.1839 202.663 -52.6751 202.772C-54.1662 202.881 -55.6875 202.917 -57.1937 202.966C-68.5468 203.44 -79.9244 202.548 -90.9482 200.317C-101.15 198.101 -111.113 195.23 -120.741 191.731C-130.02 188.514 -138.726 185.152 -147.115 182.335C-161.459 177.118 -176.74 173.755 -192.392 172.37C-198.193 171.971 -204.023 171.915 -209.834 172.201C-214.105 172.441 -218.355 172.881 -222.562 173.519C-226.086 173.93 -228.602 174.547 -230.319 174.91L-233 175.417Z" fill="url(#paint1_linear_2344_19797)"/>
<path d="M-233 55.6982L-230.319 55.2387C-228.572 54.9485 -225.966 54.4527 -222.502 54.0899C-218.292 53.5619 -214.047 53.2389 -209.789 53.1224C-204 53.013 -198.209 53.211 -192.452 53.715C-177.036 55.4106 -162.05 59.0512 -148.049 64.502C-139.765 67.5253 -131.255 70.996 -121.991 74.4183C-112.284 78.1584 -102.195 81.2251 -91.8368 83.5849C-80.447 86.0134 -68.6679 87.057 -56.8925 86.6807L-52.3588 86.5477C-50.8375 86.4389 -49.271 86.2454 -47.7196 86.1124L-43.0202 85.6286C-41.4386 85.4956 -39.9324 85.157 -38.366 84.9151C-35.2368 84.4475 -32.1399 83.8501 -29.0876 83.1254L-24.4183 82.037C-22.8669 81.6621 -21.3758 81.1905 -19.8997 80.8277C-7.63902 77.4416 4.29026 72.822 16.4455 68.408C28.5679 63.676 41.2678 59.9638 54.342 57.3308C67.8501 54.8743 81.81 54.4601 95.5071 56.1094C102.452 56.97 109.298 58.2845 115.977 60.0396C119.32 61.0071 122.679 61.9141 126.023 63.0024C129.367 64.0908 132.681 65.1792 135.979 66.4006C149.219 71.129 162.353 76.6676 176.527 80.8639C190.757 85.2912 205.852 87.6577 221.111 87.8538L226.85 87.624C228.717 87.5272 230.525 87.5756 232.498 87.3216L238.267 86.6807L241.159 86.3663C242.093 86.2454 243.026 86.0519 243.945 85.8947C247.681 85.3126 251.376 84.5739 255.016 83.6816C256.839 83.2342 258.676 82.8472 260.453 82.3635L265.786 80.8156C279.989 76.6676 293.018 71.0443 306.318 66.3643C309.617 65.1187 312.96 64.0787 316.274 62.9661C319.588 61.8535 322.901 61.0312 326.336 59.9912C333.024 58.2349 339.88 56.9205 346.835 56.061L352.002 55.4926C353.734 55.287 355.466 55.3233 357.213 55.2265L362.38 55.021L362.711 55.021C362.786 54.9605 362.711 55.0209 362.907 55.0089L363.569 55.033L364.895 55.0814L367.546 55.1782L372.833 55.3596L377.863 55.8917C379.535 56.0973 381.222 56.1698 382.864 56.4721L387.835 57.3187C400.905 59.9437 413.6 63.652 425.716 68.3838C437.871 72.822 449.816 77.4294 462.076 80.8155C473.979 84.2405 486.453 86.2174 499.084 86.6807L503.648 86.8137C505.35 86.85 506.661 86.8137 508.197 86.6686C509.733 86.5235 511.104 86.5839 512.61 86.4872C513.333 86.463 514.056 86.4388 514.794 86.3783L517.008 86.1244C519.945 85.7737 522.913 85.5439 525.729 85.0481C528.546 84.5523 531.348 84.0686 534.089 83.5123C544.444 81.153 554.531 78.0946 564.243 74.3699C573.507 70.9476 582.017 67.3559 590.301 64.4536C604.311 58.9911 619.315 55.354 634.75 53.6786C640.477 53.1921 646.239 53.0103 651.996 53.1344C656.258 53.2476 660.509 53.5666 664.723 54.0898C668.173 54.4405 670.763 54.9484 672.541 55.2386L675.192 55.6982L672.541 55.166C670.809 54.8154 668.218 54.2591 664.799 53.7875C654.857 52.2875 644.705 51.8928 634.629 52.6144C621.555 53.4368 606.026 56.8349 589.322 62.6033C580.932 65.421 572.241 68.7708 562.963 71.9875C553.348 75.472 543.4 78.3311 533.215 80.5374L525.082 81.916C522.355 82.3634 519.569 82.5206 516.782 82.8472L514.674 83.0648C513.951 83.1132 513.228 83.1132 512.49 83.1495L508.091 83.2704C506.661 83.2825 504.959 83.3672 503.754 83.343L499.37 83.1616C487.191 82.5766 475.192 80.5177 463.778 77.0546C451.955 73.608 440.266 68.9401 428.096 64.3205C415.684 59.33 402.627 55.449 389.16 52.7475L383.903 51.913C382.156 51.5986 380.334 51.4656 378.511 51.26L373.149 50.7279L367.712 50.4014L365.061 50.3047L363.735 50.2563L363.072 50.2321C362.918 50.2143 362.761 50.2103 362.605 50.22L362.259 50.2321L356.791 50.4135C354.954 50.5102 353.116 50.4619 351.309 50.6795L345.841 51.2479C338.537 52.1236 331.334 53.4745 324.302 55.287C320.838 56.2787 317.298 57.2098 313.879 58.3103C310.46 59.4107 307.011 60.5112 303.622 61.7084C290.126 66.4731 277.112 71.8667 263.376 75.8815L258.239 77.3448C256.522 77.8044 254.775 78.1671 253.043 78.5904C249.579 79.4853 246.039 80.0295 242.499 80.6462C241.626 80.7914 240.737 80.9727 239.954 81.0211L237.288 81.2993L232.001 81.8918C228.476 82.1579 224.455 82.17 221.081 82.3393C206.593 82.2079 192.251 80.0048 178.726 75.8332C165.049 71.8909 151.975 66.449 138.48 61.6843C135.136 60.4508 131.687 59.3745 128.222 58.2861C124.758 57.1977 121.279 56.2424 117.799 55.2628C110.756 53.4364 103.537 52.0813 96.215 51.2117C81.8085 49.5832 67.1506 50.1163 52.9864 52.7838C39.5113 55.4827 26.4485 59.368 14.0355 64.369C1.86525 68.9885 -9.80799 73.6444 -21.662 77.0909C-23.1381 77.5263 -24.5991 77.9979 -26.0903 78.3728C-27.5814 78.7477 -29.0726 79.0984 -30.5035 79.4974C-33.4353 80.2304 -36.4114 80.8438 -39.4203 81.3356C-40.9115 81.5654 -42.3876 81.9282 -43.8637 82.0733L-48.2618 82.5812C-49.753 82.7384 -51.1839 82.944 -52.6751 83.0528C-54.1662 83.1616 -55.6875 83.1979 -57.1937 83.2463C-68.5468 83.7212 -79.9244 82.8285 -90.9482 80.5979C-101.15 78.3817 -111.113 75.5104 -120.741 72.0118C-130.02 68.7951 -138.726 65.4332 -147.115 62.6155C-161.459 57.3987 -176.74 54.0356 -192.392 52.6508C-198.193 52.2521 -204.023 52.1955 -209.834 52.4815C-214.105 52.7221 -218.355 53.1623 -222.562 53.7996C-226.086 54.2108 -228.602 54.8275 -230.319 55.1903L-233 55.6982Z" fill="url(#paint2_linear_2344_19797)"/>
<path d="M-233 150.86L-230.319 150.4C-228.572 150.11 -225.966 149.614 -222.502 149.251C-218.292 148.724 -214.047 148.4 -209.789 148.284C-204 148.175 -198.209 148.373 -192.452 148.877C-177.036 150.572 -162.05 154.213 -148.049 159.664C-139.765 162.687 -131.255 166.158 -121.991 169.58C-112.284 173.32 -102.195 176.387 -91.8368 178.747C-80.447 181.175 -68.6679 182.219 -56.8925 181.842L-52.3588 181.709C-50.8375 181.6 -49.271 181.407 -47.7196 181.274L-43.0202 180.79C-41.4386 180.657 -39.9324 180.319 -38.366 180.077C-35.2368 179.609 -32.1399 179.012 -29.0876 178.287L-24.4183 177.199C-22.8669 176.824 -21.3758 176.352 -19.8997 175.989C-7.63902 172.603 4.29026 167.984 16.4455 163.57C28.5679 158.838 41.2678 155.125 54.342 152.492C67.8501 150.036 81.81 149.622 95.5071 151.271C102.452 152.132 109.298 153.446 115.977 155.201C119.32 156.169 122.679 157.076 126.023 158.164C129.367 159.252 132.681 160.341 135.979 161.562C149.219 166.291 162.353 171.829 176.527 176.026C190.757 180.453 205.852 182.819 221.111 183.015L226.85 182.786C228.717 182.689 230.525 182.737 232.498 182.483L238.267 181.842L241.159 181.528C242.093 181.407 243.026 181.213 243.945 181.056C247.681 180.474 251.376 179.736 255.016 178.843C256.839 178.396 258.676 178.009 260.453 177.525L265.786 175.977C279.989 171.829 293.018 166.206 306.318 161.526C309.617 160.28 312.96 159.24 316.274 158.128C319.588 157.015 322.901 156.193 326.336 155.153C333.024 153.397 339.88 152.082 346.835 151.223L352.002 150.654C353.734 150.449 355.466 150.485 357.213 150.388L362.38 150.183L362.711 150.183C362.786 150.122 362.711 150.183 362.907 150.17L363.569 150.195L364.895 150.243L367.546 150.34L372.833 150.521L377.863 151.053C379.535 151.259 381.222 151.331 382.864 151.634L387.835 152.48C400.905 155.105 413.6 158.814 425.716 163.545C437.871 167.984 449.816 172.591 462.076 175.977C473.979 179.402 486.453 181.379 499.084 181.842L503.648 181.975C505.35 182.012 506.661 181.975 508.197 181.83C509.733 181.685 511.104 181.746 512.61 181.649C513.333 181.625 514.056 181.6 514.794 181.54L517.008 181.286C519.945 180.935 522.913 180.706 525.729 180.21C528.546 179.714 531.348 179.23 534.089 178.674C544.444 176.315 554.531 173.256 564.243 169.532C573.507 166.109 582.017 162.518 590.301 159.615C604.311 154.153 619.315 150.516 634.75 148.84C640.477 148.354 646.239 148.172 651.996 148.296C656.258 148.409 660.509 148.728 664.723 149.251C668.173 149.602 670.763 150.11 672.541 150.4L675.192 150.86L672.541 150.328C670.809 149.977 668.218 149.421 664.799 148.949C654.857 147.449 644.705 147.054 634.629 147.776C621.555 148.598 606.026 151.996 589.322 157.765C580.932 160.583 572.241 163.932 562.963 167.149C553.348 170.634 543.4 173.493 533.215 175.699L525.082 177.078C522.355 177.525 519.569 177.682 516.782 178.009L514.674 178.226C513.951 178.275 513.228 178.275 512.49 178.311L508.091 178.432C506.661 178.444 504.959 178.529 503.754 178.505L499.37 178.323C487.191 177.738 475.192 175.679 463.778 172.216C451.955 168.77 440.266 164.102 428.096 159.482C415.684 154.492 402.627 150.611 389.16 147.909L383.903 147.075C382.156 146.76 380.334 146.627 378.511 146.422L373.149 145.89L367.712 145.563L365.061 145.466L363.735 145.418L363.072 145.394C362.918 145.376 362.761 145.372 362.605 145.382L362.259 145.394L356.791 145.575C354.954 145.672 353.116 145.623 351.309 145.841L345.841 146.41C338.537 147.285 331.334 148.636 324.302 150.449C320.838 151.44 317.298 152.371 313.879 153.472C310.46 154.572 307.011 155.673 303.622 156.87C290.126 161.635 277.112 167.028 263.376 171.043L258.239 172.506C256.522 172.966 254.775 173.329 253.043 173.752C249.579 174.647 246.039 175.191 242.499 175.808C241.626 175.953 240.737 176.134 239.954 176.183L237.288 176.461L232.001 177.053C228.476 177.32 224.455 177.332 221.081 177.501C206.593 177.369 192.251 175.166 178.726 170.995C165.049 167.052 151.975 161.611 138.48 156.846C135.136 155.612 131.687 154.536 128.222 153.448C124.758 152.359 121.279 151.404 117.799 150.424C110.756 148.598 103.537 147.243 96.215 146.373C81.8085 144.745 67.1506 145.278 52.9864 147.945C39.5113 150.644 26.4485 154.53 14.0355 159.531C1.86525 164.15 -9.80799 168.806 -21.662 172.253C-23.1381 172.688 -24.5991 173.16 -26.0903 173.534C-27.5814 173.909 -29.0726 174.26 -30.5035 174.659C-33.4353 175.392 -36.4114 176.005 -39.4203 176.497C-40.9115 176.727 -42.3876 177.09 -43.8637 177.235L-48.2618 177.743C-49.753 177.9 -51.1839 178.106 -52.6751 178.214C-54.1662 178.323 -55.6875 178.36 -57.1937 178.408C-68.5468 178.883 -79.9244 177.99 -90.9482 175.76C-101.15 173.543 -111.113 170.672 -120.741 167.173C-130.02 163.957 -138.726 160.595 -147.115 157.777C-161.459 152.56 -176.74 149.197 -192.392 147.812C-198.193 147.414 -204.023 147.357 -209.834 147.643C-214.105 147.884 -218.355 148.324 -222.562 148.961C-226.086 149.372 -228.602 149.989 -230.319 150.352L-233 150.86Z" fill="url(#paint3_linear_2344_19797)"/>
<path d="M-233 31.1404L-230.319 30.6808C-228.572 30.3906 -225.966 29.8948 -222.502 29.532C-218.292 29.0041 -214.047 28.681 -209.789 28.5645C-204 28.4552 -198.209 28.6531 -192.452 29.1571C-177.036 30.8527 -162.05 34.4933 -148.049 39.9441C-139.765 42.9674 -131.255 46.4381 -121.991 49.8605C-112.284 53.6005 -102.195 56.6672 -91.8368 59.027C-80.447 61.4556 -68.6679 62.4991 -56.8925 62.1229L-52.3588 61.9899C-50.8375 61.881 -49.271 61.6875 -47.7196 61.5545L-43.0202 61.0708C-41.4386 60.9377 -39.9324 60.5991 -38.366 60.3573C-35.2368 59.8896 -32.1399 59.2922 -29.0876 58.5675L-24.4183 57.4791C-22.8669 57.1042 -21.3758 56.6326 -19.8997 56.2698C-7.63902 52.8838 4.29026 48.2642 16.4455 43.8502C28.5679 39.1182 41.2678 35.406 54.342 32.7729C67.8501 30.3164 81.81 29.9022 95.5071 31.5515C102.452 32.4121 109.298 33.7266 115.977 35.4818C119.32 36.4492 122.679 37.3562 126.023 38.4446C129.367 39.533 132.681 40.6213 135.979 41.8427C149.219 46.5711 162.353 52.1098 176.527 56.3061C190.757 60.7333 205.852 63.0999 221.111 63.2959L226.85 63.0661C228.717 62.9694 230.525 63.0177 232.498 62.7638L238.267 62.1228L241.159 61.8084C242.093 61.6875 243.026 61.494 243.945 61.3368C247.681 60.7547 251.376 60.016 255.016 59.1237C256.839 58.6763 258.676 58.2893 260.453 57.8056L265.786 56.2577C279.989 52.1098 293.018 46.4865 306.318 41.8064C309.617 40.5608 312.96 39.5208 316.274 38.4083C319.588 37.2957 322.901 36.4734 326.336 35.4334C333.024 33.6771 339.88 32.3626 346.835 31.5031L352.002 30.9347C353.734 30.7292 355.466 30.7654 357.213 30.6687L362.38 30.4631L362.711 30.4631C362.786 30.4026 362.711 30.4631 362.907 30.451L363.569 30.4752L364.895 30.5236L367.546 30.6203L372.833 30.8017L377.863 31.3338C379.535 31.5394 381.222 31.6119 382.864 31.9143L387.835 32.7608C400.905 35.3858 413.6 39.0941 425.716 43.826C437.871 48.2641 449.816 52.8716 462.076 56.2577C473.979 59.6827 486.453 61.6596 499.084 62.1228L503.648 62.2558C505.35 62.2921 506.661 62.2558 508.197 62.1107C509.733 61.9656 511.104 62.0261 512.61 61.9293C513.333 61.9051 514.056 61.8809 514.794 61.8205L517.008 61.5665C519.945 61.2158 522.913 60.9861 525.729 60.4902C528.546 59.9944 531.348 59.5107 534.089 58.9544C544.444 56.5951 554.531 53.5367 564.243 49.812C573.507 46.3897 582.017 42.798 590.301 39.8957C604.311 34.4333 619.315 30.7961 634.75 29.1208C640.477 28.6342 646.239 28.4524 651.996 28.5765C656.258 28.6898 660.509 29.0088 664.723 29.5319C668.173 29.8826 670.763 30.3905 672.541 30.6808L675.192 31.1403L672.541 30.6082C670.809 30.2575 668.218 29.7012 664.799 29.2296C654.857 27.7296 644.705 27.3349 634.629 28.0566C621.555 28.8789 606.026 32.277 589.322 38.0454C580.932 40.8631 572.241 44.2129 562.963 47.4297C553.348 50.9141 543.4 53.7732 533.215 55.9795L525.082 57.3581C522.355 57.8056 519.569 57.9628 516.782 58.2893L514.674 58.5069C513.951 58.5553 513.228 58.5554 512.49 58.5916L508.091 58.7125C506.661 58.7247 504.959 58.8093 503.754 58.7851L499.37 58.6037C487.191 58.0187 475.192 55.9599 463.778 52.4967C451.955 49.0502 440.266 44.3822 428.096 39.7627C415.684 34.7722 402.627 30.8912 389.16 28.1896L383.903 27.3552C382.156 27.0408 380.334 26.9077 378.511 26.7021L373.149 26.17L367.712 25.8435L365.061 25.7468L363.735 25.6984L363.072 25.6742C362.918 25.6565 362.761 25.6524 362.605 25.6621L362.259 25.6742L356.791 25.8556C354.954 25.9524 353.116 25.904 351.309 26.1217L345.841 26.6901C338.537 27.5658 331.334 28.9166 324.302 30.7291C320.838 31.7208 317.298 32.6519 313.879 33.7524C310.46 34.8529 307.011 35.9533 303.622 37.1506C290.126 41.9153 277.112 47.3088 263.376 51.3237L258.239 52.787C256.522 53.2465 254.775 53.6093 253.043 54.0326C249.579 54.9274 246.039 55.4716 242.499 56.0884C241.626 56.2335 240.737 56.4149 239.954 56.4633L237.288 56.7414L232.001 57.334C228.476 57.6 224.455 57.6121 221.081 57.7814C206.593 57.65 192.251 55.4469 178.726 51.2754C165.049 47.333 151.975 41.8911 138.48 37.1264C135.136 35.8929 131.687 34.8166 128.222 33.7283C124.758 32.6399 121.279 31.6845 117.799 30.705C110.756 28.8785 103.537 27.5235 96.215 26.6538C81.8085 25.0254 67.1506 25.5584 52.9864 28.2259C39.5113 30.9248 26.4485 34.8101 14.0355 39.8111C1.86525 44.4307 -9.80799 49.0865 -21.662 52.533C-23.1381 52.9684 -24.5991 53.44 -26.0903 53.8149C-27.5814 54.1898 -29.0726 54.5405 -30.5035 54.9396C-33.4353 55.6725 -36.4114 56.286 -39.4203 56.7777C-40.9115 57.0075 -42.3876 57.3703 -43.8637 57.5154L-48.2618 58.0233C-49.753 58.1805 -51.1839 58.3861 -52.6751 58.4949C-54.1662 58.6038 -55.6875 58.6401 -57.1937 58.6884C-68.5468 59.1633 -79.9244 58.2706 -90.9482 56.04C-101.15 53.8239 -111.113 50.9526 -120.741 47.454C-130.02 44.2372 -138.726 40.8753 -147.115 38.0576C-161.459 32.8409 -176.74 29.4778 -192.392 28.0929C-198.193 27.6943 -204.023 27.6377 -209.834 27.9236C-214.105 28.1643 -218.355 28.6044 -222.562 29.2418C-226.086 29.6529 -228.602 30.2697 -230.319 30.6325L-233 31.1404Z" fill="url(#paint4_linear_2344_19797)"/>
<path d="M-233 126.302L-230.319 125.842C-228.572 125.552 -225.966 125.056 -222.502 124.693C-218.292 124.165 -214.047 123.842 -209.789 123.726C-204 123.616 -198.209 123.814 -192.452 124.318C-177.036 126.014 -162.05 129.654 -148.049 135.105C-139.765 138.129 -131.255 141.599 -121.991 145.022C-112.284 148.762 -102.195 151.828 -91.8368 154.188C-80.447 156.617 -68.6679 157.66 -56.8925 157.284L-52.3588 157.151C-50.8375 157.042 -49.271 156.849 -47.7196 156.716L-43.0202 156.232C-41.4386 156.099 -39.9324 155.76 -38.366 155.518C-35.2368 155.051 -32.1399 154.453 -29.0876 153.729L-24.4183 152.64C-22.8669 152.265 -21.3758 151.794 -19.8997 151.431C-7.63902 148.045 4.29026 143.425 16.4455 139.011C28.5679 134.279 41.2678 130.567 54.342 127.934C67.8501 125.478 81.81 125.063 95.5071 126.713C102.452 127.573 109.298 128.888 115.977 130.643C119.32 131.61 122.679 132.517 126.023 133.606C129.367 134.694 132.681 135.782 135.979 137.004C149.219 141.732 162.353 147.271 176.527 151.467C190.757 155.894 205.852 158.261 221.111 158.457L226.85 158.227C228.717 158.131 230.525 158.179 232.498 157.925L238.267 157.284L241.159 156.97C242.093 156.849 243.026 156.655 243.945 156.498C247.681 155.916 251.376 155.177 255.016 154.285C256.839 153.837 258.676 153.45 260.453 152.967L265.786 151.419C279.989 147.271 293.018 141.648 306.318 136.968C309.617 135.722 312.96 134.682 316.274 133.569C319.588 132.457 322.901 131.634 326.336 130.594C333.024 128.838 339.88 127.524 346.835 126.664L352.002 126.096C353.734 125.89 355.466 125.927 357.213 125.83L362.38 125.624L362.711 125.624C362.786 125.564 362.711 125.624 362.907 125.612L363.569 125.636L364.895 125.685L367.546 125.781L372.833 125.963L377.863 126.495C379.535 126.701 381.222 126.773 382.864 127.075L387.835 127.922C400.905 130.547 413.6 134.255 425.716 138.987C437.871 143.425 449.816 148.033 462.076 151.419C473.979 154.844 486.453 156.821 499.084 157.284L503.648 157.417C505.35 157.453 506.661 157.417 508.197 157.272C509.733 157.127 511.104 157.187 512.61 157.09C513.333 157.066 514.056 157.042 514.794 156.982L517.008 156.728C519.945 156.377 522.913 156.147 525.729 155.651C528.546 155.156 531.348 154.672 534.089 154.116C544.444 151.756 554.531 148.698 564.243 144.973C573.507 141.551 582.017 137.959 590.301 135.057C604.311 129.594 619.315 125.957 634.75 124.282C640.477 123.795 646.239 123.614 651.996 123.738C656.258 123.851 660.509 124.17 664.723 124.693C668.173 125.044 670.763 125.552 672.541 125.842L675.192 126.301L672.541 125.769C670.809 125.419 668.218 124.862 664.799 124.391C654.857 122.891 644.705 122.496 634.629 123.218C621.555 124.04 606.026 127.438 589.322 133.207C580.932 136.024 572.241 139.374 562.963 142.591C553.348 146.075 543.4 148.934 533.215 151.141L525.082 152.519C522.355 152.967 519.569 153.124 516.782 153.45L514.674 153.668C513.951 153.716 513.228 153.716 512.49 153.753L508.091 153.874C506.661 153.886 504.959 153.97 503.754 153.946L499.37 153.765C487.191 153.18 475.192 151.121 463.778 147.658C451.955 144.211 440.266 139.543 428.096 134.924C415.684 129.933 402.627 126.052 389.16 123.351L383.903 122.516C382.156 122.202 380.334 122.069 378.511 121.863L373.149 121.331L367.712 121.005L365.061 120.908L363.735 120.86L363.072 120.835C362.918 120.818 362.761 120.814 362.605 120.823L362.259 120.835L356.791 121.017C354.954 121.114 353.116 121.065 351.309 121.283L345.841 121.851C338.537 122.727 331.334 124.078 324.302 125.89C320.838 126.882 317.298 127.813 313.879 128.914C310.46 130.014 307.011 131.114 303.622 132.312C290.126 137.076 277.112 142.47 263.376 146.485L258.239 147.948C256.522 148.408 254.775 148.77 253.043 149.194C249.579 150.089 246.039 150.633 242.499 151.25C241.626 151.395 240.737 151.576 239.954 151.624L237.288 151.903L232.001 152.495C228.476 152.761 224.455 152.773 221.081 152.943C206.593 152.811 192.251 150.608 178.726 146.436C165.049 142.494 151.975 137.052 138.48 132.288C135.136 131.054 131.687 129.978 128.222 128.889C124.758 127.801 121.279 126.846 117.799 125.866C110.756 124.04 103.537 122.685 96.215 121.815C81.8085 120.187 67.1506 120.72 52.9864 123.387C39.5113 126.086 26.4485 129.971 14.0355 134.972C1.86525 139.592 -9.80799 144.248 -21.662 147.694C-23.1381 148.13 -24.5991 148.601 -26.0903 148.976C-27.5814 149.351 -29.0726 149.702 -30.5035 150.101C-33.4353 150.834 -36.4114 151.447 -39.4203 151.939C-40.9115 152.169 -42.3876 152.531 -43.8637 152.677L-48.2618 153.184C-49.753 153.342 -51.1839 153.547 -52.6751 153.656C-54.1662 153.765 -55.6875 153.801 -57.1937 153.85C-68.5468 154.324 -79.9244 153.432 -90.9482 151.201C-101.15 148.985 -111.113 146.114 -120.741 142.615C-130.02 139.398 -138.726 136.036 -147.115 133.219C-161.459 128.002 -176.74 124.639 -192.392 123.254C-198.193 122.855 -204.023 122.799 -209.834 123.085C-214.105 123.325 -218.355 123.766 -222.562 124.403C-226.086 124.814 -228.602 125.431 -230.319 125.794L-233 126.302Z" fill="url(#paint5_linear_2344_19797)"/>
<path d="M-233 6.58276L-230.319 6.12323C-228.572 5.83299 -225.966 5.33717 -222.502 4.97438C-218.292 4.44645 -214.047 4.12338 -209.789 4.00693C-204 3.89756 -198.209 4.09552 -192.452 4.59949C-177.036 6.29512 -162.05 9.93568 -148.049 15.3865C-139.765 18.4098 -131.255 21.8805 -121.991 25.3029C-112.284 29.0429 -102.195 32.1096 -91.8368 34.4694C-80.447 36.898 -68.6679 37.9415 -56.8925 37.5653L-52.3588 37.4322C-50.8375 37.3234 -49.271 37.1299 -47.7196 36.9969L-43.0202 36.5132C-41.4386 36.3801 -39.9324 36.0415 -38.366 35.7997C-35.2368 35.332 -32.1399 34.7346 -29.0876 34.0099L-24.4183 32.9215C-22.8669 32.5466 -21.3758 32.075 -19.8997 31.7122C-7.63902 28.3261 4.29026 23.7066 16.4455 19.2926C28.5679 14.5606 41.2678 10.8484 54.342 8.2153C67.8501 5.7588 81.81 5.34459 95.5071 6.99388C102.452 7.85453 109.298 9.16897 115.977 10.9241C119.32 11.8916 122.679 12.7986 126.023 13.887C129.367 14.9753 132.681 16.0637 135.979 17.2851C149.219 22.0135 162.353 27.5522 176.527 31.7484C190.757 36.1757 205.852 38.5423 221.111 38.7383L226.85 38.5085C228.717 38.4118 230.525 38.4601 232.498 38.2062L238.267 37.5652L241.159 37.2508C242.093 37.1299 243.026 36.9364 243.945 36.7792C247.681 36.1971 251.376 35.4584 255.016 34.5661C256.839 34.1187 258.676 33.7317 260.453 33.248L265.786 31.7001C279.989 27.5521 293.018 21.9289 306.318 17.2488C309.617 16.0032 312.96 14.9632 316.274 13.8507C319.588 12.7381 322.901 11.9157 326.336 10.8757C333.024 9.11944 339.88 7.805 346.835 6.9455L352.002 6.37712C353.734 6.17154 355.466 6.20782 357.213 6.11107L362.38 5.90549L362.711 5.90549C362.786 5.84502 362.711 5.90547 362.907 5.89339L363.569 5.91756L364.895 5.96594L367.546 6.06269L372.833 6.24408L377.863 6.7762C379.535 6.98178 381.222 7.05432 382.864 7.35665L387.835 8.20318C400.905 10.8282 413.6 14.5365 425.716 19.2684C437.871 23.7065 449.816 28.314 462.076 31.7C473.979 35.125 486.453 37.1019 499.084 37.5652L503.648 37.6982C505.35 37.7345 506.661 37.6982 508.197 37.5531C509.733 37.408 511.104 37.4684 512.61 37.3717C513.333 37.3475 514.056 37.3233 514.794 37.2628L517.008 37.0089C519.945 36.6582 522.913 36.4285 525.729 35.9326C528.546 35.4368 531.348 34.9531 534.089 34.3968C544.444 32.0375 554.531 28.9791 564.243 25.2544C573.507 21.8321 582.017 18.2404 590.301 15.3381C604.311 9.87564 619.315 6.23849 634.75 4.56313C640.477 4.07662 646.239 3.89481 651.996 4.01892C656.258 4.13214 660.509 4.45117 664.723 4.97433C668.173 5.325 670.763 5.83291 672.541 6.12316L675.192 6.5827L672.541 6.05056C670.809 5.69989 668.218 5.14361 664.799 4.672C654.857 3.17203 644.705 2.77731 634.629 3.49894C621.555 4.32129 606.026 7.71939 589.322 13.4878C580.932 16.3055 572.241 19.6553 562.963 22.8721C553.348 26.3565 543.4 29.2156 533.215 31.4219L525.082 32.8005C522.355 33.2479 519.569 33.4052 516.782 33.7317L514.674 33.9493C513.951 33.9977 513.228 33.9977 512.49 34.034L508.091 34.1549C506.661 34.167 504.959 34.2517 503.754 34.2275L499.37 34.0461C487.191 33.4611 475.192 31.4022 463.778 27.9391C451.955 24.4926 440.266 19.8246 428.096 15.2051C415.684 10.2145 402.627 6.33357 389.16 3.63198L383.903 2.79755C382.156 2.48314 380.334 2.35011 378.511 2.14453L373.149 1.61243L367.712 1.28591L365.061 1.18918L363.735 1.14081L363.072 1.11662C362.918 1.09885 362.761 1.0948 362.605 1.10452L362.259 1.11662L356.791 1.29801C354.954 1.39476 353.116 1.34639 351.309 1.56406L345.841 2.13244C338.537 3.00816 331.334 4.359 324.302 6.17152C320.838 7.16318 317.298 8.09432 313.879 9.1948C310.46 10.2953 307.011 11.3957 303.622 12.593C290.126 17.3576 277.112 22.7512 263.376 26.7661L258.239 28.2294C256.522 28.6889 254.775 29.0517 253.043 29.4749C249.579 30.3698 246.039 30.914 242.499 31.5308C241.626 31.6759 240.737 31.8573 239.954 31.9057L237.288 32.1838L232.001 32.7764C228.476 33.0424 224.455 33.0545 221.081 33.2238C206.593 33.0924 192.251 30.8893 178.726 26.7177C165.049 22.7754 151.975 17.3335 138.48 12.5688C135.136 11.3353 131.687 10.259 128.222 9.17065C124.758 8.08227 121.279 7.12691 117.799 6.14737C110.756 4.32087 103.537 2.96586 96.215 2.09619C81.8085 0.467756 67.1506 1.00083 52.9864 3.6683C39.5113 6.36723 26.4485 10.2525 14.0355 15.2535C1.86525 19.8731 -9.80799 24.5289 -21.662 27.9754C-23.1381 28.4108 -24.5991 28.8824 -26.0903 29.2573C-27.5814 29.6322 -29.0726 29.9829 -30.5035 30.382C-33.4353 31.1149 -36.4114 31.7284 -39.4203 32.2201C-40.9115 32.4499 -42.3876 32.8127 -43.8637 32.9578L-48.2618 33.4657C-49.753 33.6229 -51.1839 33.8285 -52.6751 33.9373C-54.1662 34.0462 -55.6875 34.0824 -57.1937 34.1308C-68.5468 34.6057 -79.9244 33.713 -90.9482 31.4824C-101.15 29.2663 -111.113 26.395 -120.741 22.8963C-130.02 19.6796 -138.726 16.3177 -147.115 13.5C-161.459 8.28325 -176.74 4.92016 -192.392 3.5353C-198.193 3.13664 -204.023 3.08005 -209.834 3.366C-214.105 3.60664 -218.355 4.04677 -222.562 4.68415C-226.086 5.09531 -228.602 5.71206 -230.319 6.07485L-233 6.58276Z" fill="url(#paint6_linear_2344_19797)"/>
<path d="M-233 101.744L-230.319 101.284C-228.572 100.994 -225.966 100.498 -222.502 100.136C-218.292 99.6076 -214.047 99.2845 -209.789 99.1681C-204 99.0587 -198.209 99.2566 -192.452 99.7606C-177.036 101.456 -162.05 105.097 -148.049 110.548C-139.765 113.571 -131.255 117.042 -121.991 120.464C-112.284 124.204 -102.195 127.271 -91.8368 129.631C-80.447 132.059 -68.6679 133.103 -56.8925 132.726L-52.3588 132.593C-50.8375 132.485 -49.271 132.291 -47.7196 132.158L-43.0202 131.674C-41.4386 131.541 -39.9324 131.203 -38.366 130.961C-35.2368 130.493 -32.1399 129.896 -29.0876 129.171L-24.4183 128.083C-22.8669 127.708 -21.3758 127.236 -19.8997 126.873C-7.63902 123.487 4.29026 118.868 16.4455 114.454C28.5679 109.722 41.2678 106.01 54.342 103.376C67.8501 100.92 81.81 100.506 95.5071 102.155C102.452 103.016 109.298 104.33 115.977 106.085C119.32 107.053 122.679 107.96 126.023 109.048C129.367 110.136 132.681 111.225 135.979 112.446C149.219 117.175 162.353 122.713 176.527 126.91C190.757 131.337 205.852 133.703 221.111 133.899L226.85 133.67C228.717 133.573 230.525 133.621 232.498 133.367L238.267 132.726L241.159 132.412C242.093 132.291 243.026 132.098 243.945 131.94C247.681 131.358 251.376 130.62 255.016 129.727C256.839 129.28 258.676 128.893 260.453 128.409L265.786 126.861C279.989 122.713 293.018 117.09 306.318 112.41C309.617 111.164 312.96 110.124 316.274 109.012C319.588 107.899 322.901 107.077 326.336 106.037C333.024 104.281 339.88 102.966 346.835 102.107L352.002 101.538C353.734 101.333 355.466 101.369 357.213 101.272L362.38 101.067L362.711 101.067C362.786 101.006 362.711 101.067 362.907 101.055L363.569 101.079L364.895 101.127L367.546 101.224L372.833 101.405L377.863 101.937C379.535 102.143 381.222 102.215 382.864 102.518L387.835 103.364C400.905 105.989 413.6 109.698 425.716 114.429C437.871 118.868 449.816 123.475 462.076 126.861C473.979 130.286 486.453 132.263 499.084 132.726L503.648 132.859C505.35 132.896 506.661 132.859 508.197 132.714C509.733 132.569 511.104 132.63 512.61 132.533C513.333 132.509 514.056 132.484 514.794 132.424L517.008 132.17C519.945 131.819 522.913 131.59 525.729 131.094C528.546 130.598 531.348 130.114 534.089 129.558C544.444 127.199 554.531 124.14 564.243 120.416C573.507 116.993 582.017 113.402 590.301 110.499C604.311 105.037 619.315 101.4 634.75 99.7243C640.477 99.2378 646.239 99.0559 651.996 99.1801C656.258 99.2933 660.509 99.6123 664.723 100.135C668.173 100.486 670.763 100.994 672.541 101.284L675.192 101.744L672.541 101.212C670.809 100.861 668.218 100.305 664.799 99.8331C654.857 98.3332 644.705 97.9384 634.629 98.6601C621.555 99.4824 606.026 102.881 589.322 108.649C580.932 111.467 572.241 114.816 562.963 118.033C553.348 121.518 543.4 124.377 533.215 126.583L525.082 127.962C522.355 128.409 519.569 128.566 516.782 128.893L514.674 129.11C513.951 129.159 513.228 129.159 512.49 129.195L508.091 129.316C506.661 129.328 504.959 129.413 503.754 129.389L499.37 129.207C487.191 128.622 475.192 126.563 463.778 123.1C451.955 119.654 440.266 114.986 428.096 110.366C415.684 105.376 402.627 101.495 389.16 98.7931L383.903 97.9587C382.156 97.6443 380.334 97.5112 378.511 97.3057L373.149 96.7736L367.712 96.447L365.061 96.3503L363.735 96.3019L363.072 96.2778C362.918 96.26 362.761 96.2559 362.605 96.2657L362.259 96.2778L356.791 96.4591C354.954 96.5559 353.116 96.5075 351.309 96.7252L345.841 97.2936C338.537 98.1693 331.334 99.5201 324.302 101.333C320.838 102.324 317.298 103.255 313.879 104.356C310.46 105.456 307.011 106.557 303.622 107.754C290.126 112.519 277.112 117.912 263.376 121.927L258.239 123.39C256.522 123.85 254.775 124.213 253.043 124.636C249.579 125.531 246.039 126.075 242.499 126.692C241.626 126.837 240.737 127.018 239.954 127.067L237.288 127.345L232.001 127.937C228.476 128.204 224.455 128.216 221.081 128.385C206.593 128.254 192.251 126.05 178.726 121.879C165.049 117.937 151.975 112.495 138.48 107.73C135.136 106.496 131.687 105.42 128.222 104.332C124.758 103.243 121.279 102.288 117.799 101.309C110.756 99.482 103.537 98.127 96.215 97.2573C81.8085 95.6289 67.1506 96.162 52.9864 98.8294C39.5113 101.528 26.4485 105.414 14.0355 110.415C1.86525 115.034 -9.80799 119.69 -21.662 123.137C-23.1381 123.572 -24.5991 124.044 -26.0903 124.418C-27.5814 124.793 -29.0726 125.144 -30.5035 125.543C-33.4353 126.276 -36.4114 126.89 -39.4203 127.381C-40.9115 127.611 -42.3876 127.974 -43.8637 128.119L-48.2618 128.627C-49.753 128.784 -51.1839 128.99 -52.6751 129.098C-54.1662 129.207 -55.6875 129.244 -57.1937 129.292C-68.5468 129.767 -79.9244 128.874 -90.9482 126.644C-101.15 124.427 -111.113 121.556 -120.741 118.057C-130.02 114.841 -138.726 111.479 -147.115 108.661C-161.459 103.444 -176.74 100.081 -192.392 98.6964C-198.193 98.2978 -204.023 98.2412 -209.834 98.5271C-214.105 98.7678 -218.355 99.2079 -222.562 99.8453C-226.086 100.256 -228.602 100.873 -230.319 101.236L-233 101.744Z" fill="url(#paint7_linear_2344_19797)"/>
</g>
<defs>
<linearGradient id="paint0_linear_2344_19797" x1="-5.95204" y1="262.547" x2="350.016" y2="-180.82" gradientUnits="userSpaceOnUse">
<stop offset="0.479167" stop-color="#007A79"/>
<stop offset="1" stop-color="#142034"/>
</linearGradient>
<linearGradient id="paint1_linear_2344_19797" x1="-5.95204" y1="357.709" x2="350.016" y2="-85.658" gradientUnits="userSpaceOnUse">
<stop offset="0.479167" stop-color="#007A79"/>
<stop offset="1" stop-color="#142034"/>
</linearGradient>
<linearGradient id="paint2_linear_2344_19797" x1="-5.95204" y1="237.99" x2="350.016" y2="-205.377" gradientUnits="userSpaceOnUse">
<stop offset="0.479167" stop-color="#007A79"/>
<stop offset="1" stop-color="#142034"/>
</linearGradient>
<linearGradient id="paint3_linear_2344_19797" x1="-5.95204" y1="333.151" x2="350.016" y2="-110.216" gradientUnits="userSpaceOnUse">
<stop offset="0.479167" stop-color="#007A79"/>
<stop offset="1" stop-color="#142034"/>
</linearGradient>
<linearGradient id="paint4_linear_2344_19797" x1="-5.95204" y1="213.432" x2="350.016" y2="-229.935" gradientUnits="userSpaceOnUse">
<stop offset="0.479167" stop-color="#007A79"/>
<stop offset="1" stop-color="#142034"/>
</linearGradient>
<linearGradient id="paint5_linear_2344_19797" x1="-5.95204" y1="308.593" x2="350.016" y2="-134.774" gradientUnits="userSpaceOnUse">
<stop offset="0.479167" stop-color="#007A79"/>
<stop offset="1" stop-color="#142034"/>
</linearGradient>
<linearGradient id="paint6_linear_2344_19797" x1="-5.95204" y1="188.874" x2="350.016" y2="-254.493" gradientUnits="userSpaceOnUse">
<stop offset="0.479167" stop-color="#007A79"/>
<stop offset="1" stop-color="#142034"/>
</linearGradient>
<linearGradient id="paint7_linear_2344_19797" x1="-5.95204" y1="284.035" x2="350.016" y2="-159.332" gradientUnits="userSpaceOnUse">
<stop offset="0.479167" stop-color="#007A79"/>
<stop offset="1" stop-color="#142034"/>
</linearGradient>
<clipPath id="clip0_2344_19797">
<rect width="320" height="80" fill="white"/>
</clipPath>
</defs>
</svg>
