<svg width="1366" height="110" viewBox="0 0 1366 110" fill="none" xmlns="http://www.w3.org/2000/svg">
<g clip-path="url(#clip0_2169_3882)">
<path d="M0 133.622L4.03257 132.931C6.66054 132.495 10.5798 131.749 15.7905 131.203C22.1217 130.409 28.5069 129.923 34.9112 129.748C43.6181 129.584 52.329 129.881 60.987 130.639C84.1746 133.19 106.715 138.665 127.774 146.864C140.234 151.411 153.034 156.631 166.967 161.779C181.568 167.404 196.742 172.017 212.322 175.566C229.453 179.219 247.17 180.789 264.881 180.223L271.7 180.023C273.988 179.859 276.345 179.568 278.678 179.368L285.746 178.64C288.125 178.44 290.391 177.931 292.747 177.567C297.453 176.864 302.111 175.965 306.702 174.875L313.725 173.238C316.059 172.674 318.301 171.965 320.522 171.419C338.963 166.326 356.905 159.378 375.188 152.739C393.421 145.622 412.523 140.038 432.188 136.078C452.505 132.383 473.502 131.76 494.103 134.241C504.549 135.535 514.846 137.512 524.891 140.152C529.921 141.607 534.973 142.971 540.002 144.608C545.032 146.245 550.016 147.882 554.977 149.72C574.891 156.832 594.646 165.162 615.964 171.474C637.367 178.133 660.072 181.692 683.023 181.987L691.654 181.641C694.463 181.496 697.182 181.569 700.15 181.187L708.827 180.223L713.176 179.75C714.581 179.568 715.986 179.277 717.368 179.04C722.987 178.165 728.545 177.054 734.019 175.712C736.76 175.039 739.524 174.457 742.197 173.729L750.217 171.401C771.581 165.162 791.177 156.704 811.181 149.665C816.143 147.792 821.172 146.227 826.156 144.554C831.141 142.88 836.125 141.644 841.29 140.079C851.35 137.438 861.662 135.461 872.123 134.168L879.894 133.313C882.499 133.004 885.104 133.058 887.732 132.913L895.503 132.604L896.001 132.604C896.115 132.513 896.001 132.604 896.296 132.585L897.293 132.622L899.286 132.695L903.274 132.84L911.226 133.113L918.792 133.913C921.307 134.223 923.844 134.332 926.314 134.786L933.79 136.06C953.449 140.008 972.544 145.585 990.767 152.703C1009.05 159.378 1027.01 166.308 1045.46 171.401C1063.36 176.552 1082.12 179.526 1101.12 180.223L1107.98 180.423C1110.54 180.477 1112.51 180.423 1114.83 180.204C1117.14 179.986 1119.2 180.077 1121.46 179.932C1122.55 179.895 1123.64 179.859 1124.75 179.768L1128.08 179.386C1132.5 178.858 1136.96 178.513 1141.2 177.767C1145.43 177.021 1149.65 176.294 1153.77 175.457C1169.34 171.908 1184.52 167.308 1199.12 161.706C1213.06 156.559 1225.86 151.157 1238.32 146.791C1259.39 138.575 1281.96 133.105 1305.17 130.585C1313.79 129.853 1322.45 129.579 1331.11 129.766C1337.52 129.936 1343.92 130.416 1350.25 131.203C1355.44 131.731 1359.34 132.495 1362.01 132.931L1366 133.622L1362.01 132.822C1359.41 132.294 1355.51 131.458 1350.37 130.748C1335.41 128.492 1320.15 127.899 1304.99 128.984C1285.33 130.221 1261.97 135.332 1236.84 144.008C1224.23 148.246 1211.15 153.285 1197.2 158.123C1182.74 163.364 1167.77 167.664 1152.45 170.983L1140.22 173.056C1136.12 173.729 1131.93 173.966 1127.74 174.457L1124.57 174.784C1123.48 174.857 1122.39 174.857 1121.28 174.911L1114.67 175.093C1112.51 175.112 1109.95 175.239 1108.14 175.202L1101.55 174.93C1083.23 174.05 1065.18 170.953 1048.02 165.744C1030.23 160.56 1012.65 153.539 994.346 146.591C975.678 139.085 956.039 133.248 935.783 129.184L927.877 127.929C925.249 127.456 922.508 127.256 919.766 126.947L911.701 126.147L903.523 125.655L899.536 125.51L897.542 125.437L896.545 125.401C896.313 125.374 896.077 125.368 895.843 125.383L895.322 125.401L887.098 125.674C884.334 125.819 881.57 125.746 878.852 126.074L870.628 126.929C859.642 128.246 848.808 130.278 838.231 133.004C833.021 134.495 827.697 135.896 822.554 137.551C817.412 139.206 812.224 140.861 807.126 142.662C786.828 149.829 767.254 157.941 746.592 163.98L738.867 166.181C736.284 166.872 733.656 167.418 731.051 168.054C725.84 169.4 720.517 170.219 715.193 171.146C713.879 171.365 712.542 171.637 711.364 171.71L707.354 172.129L699.402 173.02C694.101 173.42 688.052 173.438 682.977 173.693C661.187 173.495 639.614 170.181 619.272 163.907C598.701 157.977 579.037 149.792 558.738 142.626C553.709 140.771 548.521 139.152 543.31 137.515C538.099 135.878 532.866 134.441 527.633 132.967C517.039 130.22 506.181 128.182 495.168 126.874C473.5 124.425 451.453 125.227 430.149 129.239C409.881 133.298 390.233 139.142 371.563 146.664C353.258 153.612 335.7 160.615 317.871 165.799C315.651 166.454 313.453 167.163 311.21 167.727C308.968 168.291 306.725 168.818 304.573 169.418C300.163 170.521 295.687 171.444 291.161 172.183C288.918 172.529 286.698 173.074 284.478 173.293L277.862 174.057C275.62 174.293 273.467 174.602 271.225 174.766C268.982 174.93 266.694 174.984 264.428 175.057C247.352 175.771 230.239 174.429 213.658 171.074C198.314 167.74 183.329 163.422 168.847 158.159C154.892 153.321 141.797 148.265 129.178 144.026C107.604 136.18 84.6198 131.122 61.0776 129.039C52.3523 128.439 43.584 128.354 34.8432 128.784C28.4196 129.146 22.0276 129.808 15.6998 130.767C10.3986 131.385 6.61523 132.313 4.03257 132.858L0 133.622Z" fill="url(#paint0_linear_2169_3882)"/>
<path d="M0 276.754L4.03257 276.062C6.66054 275.626 10.5798 274.88 15.7905 274.334C22.1217 273.54 28.5069 273.054 34.9112 272.879C43.6181 272.715 52.329 273.012 60.987 273.771C84.1746 276.321 106.715 281.797 127.774 289.995C140.234 294.542 153.034 299.763 166.967 304.91C181.568 310.536 196.742 315.148 212.322 318.698C229.453 322.35 247.17 323.92 264.881 323.354L271.7 323.154C273.988 322.99 276.345 322.699 278.678 322.499L285.746 321.771C288.125 321.571 290.391 321.062 292.747 320.698C297.453 319.995 302.111 319.096 306.702 318.006L313.725 316.369C316.059 315.805 318.301 315.096 320.522 314.55C338.963 309.457 356.905 302.509 375.188 295.87C393.421 288.753 412.523 283.169 432.188 279.209C452.505 275.514 473.502 274.891 494.103 277.372C504.549 278.666 514.846 280.643 524.891 283.283C529.921 284.738 534.973 286.103 540.002 287.74C545.032 289.377 550.016 291.014 554.977 292.851C574.891 299.963 594.646 308.293 615.964 314.605C637.367 321.264 660.072 324.823 683.023 325.118L691.654 324.773C694.463 324.627 697.182 324.7 700.15 324.318L708.827 323.354L713.176 322.881C714.581 322.699 715.986 322.408 717.368 322.172C722.987 321.296 728.545 320.185 734.019 318.843C736.76 318.17 739.524 317.588 742.197 316.86L750.217 314.532C771.581 308.293 791.177 299.835 811.181 292.796C816.143 290.923 821.172 289.359 826.156 287.685C831.141 286.012 836.125 284.775 841.29 283.211C851.35 280.569 861.662 278.592 872.123 277.299L879.894 276.444C882.499 276.135 885.104 276.19 887.732 276.044L895.503 275.735L896.001 275.735C896.115 275.644 896.001 275.735 896.296 275.717L897.293 275.753L899.286 275.826L903.274 275.971L911.226 276.244L918.792 277.044C921.307 277.354 923.844 277.463 926.314 277.918L933.79 279.191C953.449 283.139 972.544 288.717 990.767 295.834C1009.05 302.509 1027.01 309.439 1045.46 314.532C1063.36 319.684 1082.12 322.657 1101.12 323.354L1107.98 323.554C1110.54 323.608 1112.51 323.554 1114.83 323.336C1117.14 323.117 1119.2 323.208 1121.46 323.063C1122.55 323.026 1123.64 322.99 1124.75 322.899L1128.08 322.517C1132.5 321.99 1136.96 321.644 1141.2 320.898C1145.43 320.153 1149.65 319.425 1153.77 318.588C1169.34 315.04 1184.52 310.44 1199.12 304.837C1213.06 299.69 1225.86 294.288 1238.32 289.922C1259.39 281.706 1281.96 276.236 1305.17 273.716C1313.79 272.984 1322.45 272.711 1331.11 272.897C1337.52 273.068 1343.92 273.547 1350.25 274.334C1355.44 274.862 1359.34 275.626 1362.01 276.062L1366 276.753L1362.01 275.953C1359.41 275.426 1355.51 274.589 1350.37 273.88C1335.41 271.624 1320.15 271.03 1304.99 272.115C1285.33 273.352 1261.97 278.463 1236.84 287.139C1224.23 291.377 1211.15 296.416 1197.2 301.254C1182.74 306.495 1167.77 310.795 1152.45 314.114L1140.22 316.187C1136.12 316.86 1131.93 317.097 1127.74 317.588L1124.57 317.915C1123.48 317.988 1122.39 317.988 1121.28 318.043L1114.67 318.225C1112.51 318.243 1109.95 318.37 1108.14 318.334L1101.55 318.061C1083.23 317.181 1065.18 314.084 1048.02 308.875C1030.23 303.691 1012.65 296.671 994.346 289.722C975.678 282.216 956.039 276.379 935.783 272.315L927.877 271.06C925.249 270.587 922.508 270.387 919.766 270.078L911.701 269.278L903.523 268.787L899.536 268.641L897.542 268.568L896.545 268.532C896.313 268.505 896.077 268.499 895.843 268.514L895.322 268.532L887.098 268.805C884.334 268.95 881.57 268.878 878.852 269.205L870.628 270.06C859.642 271.377 848.808 273.409 838.231 276.135C833.021 277.627 827.697 279.027 822.554 280.682C817.412 282.338 812.224 283.993 807.126 285.793C786.828 292.96 767.254 301.072 746.592 307.111L738.867 309.312C736.284 310.003 733.656 310.549 731.051 311.185C725.84 312.531 720.517 313.35 715.193 314.278C713.879 314.496 712.542 314.769 711.364 314.841L707.354 315.26L699.402 316.151C694.101 316.551 688.052 316.569 682.977 316.824C661.187 316.626 639.614 313.313 619.272 307.038C598.701 301.109 579.037 292.924 558.738 285.757C553.709 283.902 548.521 282.283 543.31 280.646C538.099 279.009 532.866 277.572 527.633 276.099C517.039 273.351 506.181 271.313 495.168 270.005C473.5 267.556 451.453 268.358 430.149 272.37C409.881 276.429 390.233 282.273 371.563 289.795C353.258 296.743 335.7 303.746 317.871 308.93C315.651 309.585 313.453 310.294 311.21 310.858C308.968 311.422 306.725 311.949 304.573 312.55C300.163 313.652 295.687 314.575 291.161 315.314C288.918 315.66 286.698 316.206 284.478 316.424L277.862 317.188C275.62 317.424 273.467 317.734 271.225 317.897C268.982 318.061 266.694 318.115 264.428 318.188C247.352 318.903 230.239 317.56 213.658 314.205C198.314 310.872 183.329 306.553 168.847 301.291C154.892 296.452 141.797 291.396 129.178 287.158C107.604 279.311 84.6198 274.253 61.0776 272.17C52.3523 271.57 43.584 271.485 34.8432 271.915C28.4196 272.277 22.0276 272.939 15.6998 273.898C10.3986 274.516 6.61523 275.444 4.03257 275.99L0 276.754Z" fill="url(#paint1_linear_2169_3882)"/>
<path d="M0 96.6853L4.03257 95.9941C6.66054 95.5576 10.5798 94.8118 15.7905 94.2662C22.1217 93.4721 28.5069 92.9862 34.9112 92.811C43.6181 92.6465 52.329 92.9443 60.987 93.7023C84.1746 96.2527 106.715 101.728 127.774 109.927C140.234 114.474 153.034 119.694 166.967 124.842C181.568 130.467 196.742 135.08 212.322 138.629C229.453 142.282 247.17 143.852 264.881 143.286L271.7 143.086C273.988 142.922 276.345 142.631 278.678 142.431L285.746 141.703C288.125 141.503 290.391 140.994 292.747 140.63C297.453 139.927 302.111 139.028 306.702 137.938L313.725 136.301C316.059 135.737 318.301 135.028 320.522 134.482C338.963 129.389 356.905 122.441 375.188 115.802C393.421 108.685 412.523 103.101 432.188 99.1408C452.505 95.446 473.502 94.823 494.103 97.3037C504.549 98.5981 514.846 100.575 524.891 103.215C529.921 104.67 534.973 106.034 540.002 107.671C545.032 109.308 550.016 110.945 554.977 112.783C574.891 119.895 594.646 128.225 615.964 134.537C637.367 141.196 660.072 144.755 683.023 145.05L691.654 144.704C694.463 144.559 697.182 144.632 700.15 144.25L708.827 143.286L713.176 142.813C714.581 142.631 715.986 142.34 717.368 142.103C722.987 141.228 728.545 140.117 734.019 138.775C736.76 138.102 739.524 137.52 742.197 136.792L750.217 134.464C771.581 128.225 791.177 119.767 811.181 112.728C816.143 110.855 821.172 109.29 826.156 107.617C831.141 105.943 836.125 104.707 841.29 103.142C851.35 100.501 861.662 98.5236 872.123 97.2309L879.894 96.376C882.499 96.0668 885.104 96.1213 887.732 95.9759L895.503 95.6666L896.001 95.6666C896.115 95.5757 896.001 95.6666 896.296 95.6484L897.293 95.6848L899.286 95.7576L903.274 95.9031L911.226 96.176L918.792 96.9763C921.307 97.2855 923.844 97.3946 926.314 97.8493L933.79 99.1226C953.449 103.071 972.544 108.648 990.767 115.766C1009.05 122.441 1027.01 129.371 1045.46 134.464C1063.36 139.615 1082.12 142.589 1101.12 143.286L1107.98 143.486C1110.54 143.54 1112.51 143.486 1114.83 143.267C1117.14 143.049 1119.2 143.14 1121.46 142.995C1122.55 142.958 1123.64 142.922 1124.75 142.831L1128.08 142.449C1132.5 141.921 1136.96 141.576 1141.2 140.83C1145.43 140.084 1149.65 139.357 1153.77 138.52C1169.34 134.971 1184.52 130.371 1199.12 124.769C1213.06 119.622 1225.86 114.22 1238.32 109.854C1259.39 101.638 1281.96 96.1675 1305.17 93.6477C1313.79 92.9159 1322.45 92.6424 1331.11 92.8291C1337.52 92.9994 1343.92 93.4792 1350.25 94.2661C1355.44 94.7936 1359.34 95.5575 1362.01 95.9941L1366 96.6853L1362.01 95.885C1359.41 95.3574 1355.51 94.5207 1350.37 93.8114C1335.41 91.5553 1320.15 90.9616 1304.99 92.047C1285.33 93.2838 1261.97 98.3949 1236.84 107.071C1224.23 111.309 1211.15 116.348 1197.2 121.186C1182.74 126.427 1167.77 130.727 1152.45 134.046L1140.22 136.119C1136.12 136.792 1131.93 137.029 1127.74 137.52L1124.57 137.847C1123.48 137.92 1122.39 137.92 1121.28 137.974L1114.67 138.156C1112.51 138.175 1109.95 138.302 1108.14 138.265L1101.55 137.993C1083.23 137.113 1065.18 134.016 1048.02 128.807C1030.23 123.623 1012.65 116.602 994.346 109.654C975.678 102.148 956.039 96.3105 935.783 92.2471L927.877 90.9921C925.249 90.5191 922.508 90.3191 919.766 90.0098L911.701 89.2095L903.523 88.7184L899.536 88.5729L897.542 88.5002L896.545 88.4637C896.313 88.437 896.077 88.431 895.843 88.4456L895.322 88.4638L887.098 88.7366C884.334 88.8821 881.57 88.8094 878.852 89.1367L870.628 89.9916C859.642 91.3088 848.808 93.3406 838.231 96.0668C833.021 97.5583 827.697 98.9588 822.554 100.614C817.412 102.269 812.224 103.924 807.126 105.725C786.828 112.892 767.254 121.004 746.592 127.043L738.867 129.244C736.284 129.935 733.656 130.481 731.051 131.117C725.84 132.463 720.517 133.282 715.193 134.209C713.879 134.428 712.542 134.7 711.364 134.773L707.354 135.192L699.402 136.083C694.101 136.483 688.052 136.501 682.977 136.756C661.187 136.558 639.614 133.244 619.272 126.97C598.701 121.04 579.037 112.855 558.738 105.689C553.709 103.834 548.521 102.215 543.31 100.578C538.099 98.9407 532.866 97.5038 527.633 96.0304C517.039 93.2832 506.181 91.2452 495.168 89.9371C473.5 87.4878 451.453 88.2896 430.149 92.3017C409.881 96.3611 390.233 102.205 371.563 109.727C353.258 116.675 335.7 123.678 317.871 128.862C315.651 129.517 313.453 130.226 311.21 130.79C308.968 131.354 306.725 131.881 304.573 132.481C300.163 133.584 295.687 134.506 291.161 135.246C288.918 135.592 286.698 136.137 284.478 136.356L277.862 137.12C275.62 137.356 273.467 137.665 271.225 137.829C268.982 137.993 266.694 138.047 264.428 138.12C247.352 138.834 230.239 137.492 213.658 134.137C198.314 130.803 183.329 126.485 168.847 121.222C154.892 116.384 141.797 111.327 129.178 107.089C107.604 99.243 84.6198 94.1846 61.0776 92.1016C52.3523 91.502 43.584 91.4169 34.8432 91.847C28.4196 92.209 22.0276 92.871 15.6998 93.8296C10.3986 94.448 6.61523 95.3757 4.03257 95.9214L0 96.6853Z" fill="url(#paint2_linear_2169_3882)"/>
<path d="M0 239.817L4.03257 239.125C6.66054 238.689 10.5798 237.943 15.7905 237.398C22.1217 236.603 28.5069 236.118 34.9112 235.942C43.6181 235.778 52.329 236.076 60.987 236.834C84.1746 239.384 106.715 244.86 127.774 253.058C140.234 257.606 153.034 262.826 166.967 267.973C181.568 273.599 196.742 278.211 212.322 281.761C229.453 285.413 247.17 286.983 264.881 286.417L271.7 286.217C273.988 286.053 276.345 285.762 278.678 285.562L285.746 284.835C288.125 284.635 290.391 284.125 292.747 283.761C297.453 283.058 302.111 282.159 306.702 281.069L313.725 279.432C316.059 278.869 318.301 278.159 320.522 277.614C338.963 272.521 356.905 265.572 375.188 258.933C393.421 251.816 412.523 246.233 432.188 242.272C452.505 238.577 473.502 237.954 494.103 240.435C504.549 241.729 514.846 243.707 524.891 246.346C529.921 247.802 534.973 249.166 540.002 250.803C545.032 252.44 550.016 254.077 554.977 255.914C574.891 263.026 594.646 271.356 615.964 277.668C637.367 284.327 660.072 287.887 683.023 288.181L691.654 287.836C694.463 287.69 697.182 287.763 700.15 287.381L708.827 286.417L713.176 285.944C714.581 285.762 715.986 285.471 717.368 285.235C722.987 284.359 728.545 283.248 734.019 281.906C736.76 281.233 739.524 280.651 742.197 279.924L750.217 277.595C771.581 271.356 791.177 262.899 811.181 255.859C816.143 253.986 821.172 252.422 826.156 250.748C831.141 249.075 836.125 247.838 841.29 246.274C851.35 243.632 861.662 241.655 872.123 240.362L879.894 239.507C882.499 239.198 885.104 239.253 887.732 239.107L895.503 238.798L896.001 238.798C896.115 238.707 896.001 238.798 896.296 238.78L897.293 238.816L899.286 238.889L903.274 239.034L911.226 239.307L918.792 240.108C921.307 240.417 923.844 240.526 926.314 240.981L933.79 242.254C953.449 246.202 972.544 251.78 990.767 258.897C1009.05 265.572 1027.01 272.502 1045.46 277.595C1063.36 282.747 1082.12 285.72 1101.12 286.417L1107.98 286.617C1110.54 286.672 1112.51 286.617 1114.83 286.399C1117.14 286.181 1119.2 286.271 1121.46 286.126C1122.55 286.09 1123.64 286.053 1124.75 285.962L1128.08 285.58C1132.5 285.053 1136.96 284.707 1141.2 283.961C1145.43 283.216 1149.65 282.488 1153.77 281.651C1169.34 278.103 1184.52 273.503 1199.12 267.901C1213.06 262.753 1225.86 257.351 1238.32 252.985C1259.39 244.769 1281.96 239.299 1305.17 236.779C1313.79 236.047 1322.45 235.774 1331.11 235.96C1337.52 236.131 1343.92 236.611 1350.25 237.397C1355.44 237.925 1359.34 238.689 1362.01 239.125L1366 239.817L1362.01 239.016C1359.41 238.489 1355.51 237.652 1350.37 236.943C1335.41 234.687 1320.15 234.093 1304.99 235.178C1285.33 236.415 1261.97 241.526 1236.84 250.203C1224.23 254.441 1211.15 259.479 1197.2 264.317C1182.74 269.558 1167.77 273.858 1152.45 277.177L1140.22 279.25C1136.12 279.923 1131.93 280.16 1127.74 280.651L1124.57 280.978C1123.48 281.051 1122.39 281.051 1121.28 281.106L1114.67 281.288C1112.51 281.306 1109.95 281.433 1108.14 281.397L1101.55 281.124C1083.23 280.244 1065.18 277.147 1048.02 271.938C1030.23 266.755 1012.65 259.734 994.346 252.785C975.678 245.279 956.039 239.442 935.783 235.378L927.877 234.123C925.249 233.65 922.508 233.45 919.766 233.141L911.701 232.341L903.523 231.85L899.536 231.704L897.542 231.632L896.545 231.595C896.313 231.568 896.077 231.562 895.843 231.577L895.322 231.595L887.098 231.868C884.334 232.013 881.57 231.941 878.852 232.268L870.628 233.123C859.642 234.44 848.808 236.472 838.231 239.198C833.021 240.69 827.697 242.09 822.554 243.745C817.412 245.401 812.224 247.056 807.126 248.857C786.828 256.023 767.254 264.135 746.592 270.174L738.867 272.375C736.284 273.066 733.656 273.612 731.051 274.248C725.84 275.594 720.517 276.413 715.193 277.341C713.879 277.559 712.542 277.832 711.364 277.905L707.354 278.323L699.402 279.214C694.101 279.614 688.052 279.632 682.977 279.887C661.187 279.689 639.614 276.376 619.272 270.101C598.701 264.172 579.037 255.987 558.738 248.82C553.709 246.965 548.521 245.346 543.31 243.709C538.099 242.072 532.866 240.635 527.633 239.162C517.039 236.415 506.181 234.377 495.168 233.068C473.5 230.619 451.453 231.421 430.149 235.433C409.881 239.492 390.233 245.336 371.563 252.858C353.258 259.806 335.7 266.809 317.871 271.993C315.651 272.648 313.453 273.357 311.21 273.921C308.968 274.485 306.725 275.012 304.573 275.613C300.163 276.715 295.687 277.638 291.161 278.377C288.918 278.723 286.698 279.269 284.478 279.487L277.862 280.251C275.62 280.487 273.467 280.797 271.225 280.96C268.982 281.124 266.694 281.179 264.428 281.251C247.352 281.966 230.239 280.623 213.658 277.268C198.314 273.935 183.329 269.616 168.847 264.354C154.892 259.515 141.797 254.459 129.178 250.221C107.604 242.374 84.6198 237.316 61.0776 235.233C52.3523 234.633 43.584 234.548 34.8432 234.978C28.4196 235.34 22.0276 236.002 15.6998 236.961C10.3986 237.579 6.61523 238.507 4.03257 239.053L0 239.817Z" fill="url(#paint3_linear_2169_3882)"/>
<path d="M0 59.7484L4.03257 59.0572C6.66054 58.6207 10.5798 57.8749 15.7905 57.3293C22.1217 56.5352 28.5069 56.0493 34.9112 55.8741C43.6181 55.7096 52.329 56.0074 60.987 56.7654C84.1746 59.3158 106.715 64.7915 127.774 72.99C140.234 77.5373 153.034 82.7576 166.967 87.9051C181.568 93.5304 196.742 98.143 212.322 101.692C229.453 105.345 247.17 106.915 264.881 106.349L271.7 106.149C273.988 105.985 276.345 105.694 278.678 105.494L285.746 104.766C288.125 104.566 290.391 104.057 292.747 103.693C297.453 102.99 302.111 102.091 306.702 101.001L313.725 99.3642C316.059 98.8003 318.301 98.091 320.522 97.5453C338.963 92.4524 356.905 85.5041 375.188 78.8651C393.421 71.7477 412.523 66.1643 432.188 62.2039C452.505 58.5091 473.502 57.8861 494.103 60.3668C504.549 61.6613 514.846 63.6383 524.891 66.2782C529.921 67.7334 534.973 69.0976 540.002 70.7346C545.032 72.3716 550.016 74.0086 554.977 75.8457C574.891 82.9576 594.646 91.2882 615.964 97.5998C637.367 104.259 660.072 107.818 683.023 108.113L691.654 107.768C694.463 107.622 697.182 107.695 700.15 107.313L708.827 106.349L713.176 105.876C714.581 105.694 715.986 105.403 717.368 105.166C722.987 104.291 728.545 103.18 734.019 101.838C736.76 101.165 739.524 100.583 742.197 99.8553L750.217 97.5271C771.581 91.2882 791.177 82.8303 811.181 75.7911C816.143 73.9177 821.172 72.3534 826.156 70.68C831.141 69.0066 836.125 67.7697 841.29 66.2055C851.35 63.5638 861.662 61.5868 872.123 60.294L879.894 59.4391C882.499 59.1299 885.104 59.1845 887.732 59.039L895.503 58.7297L896.001 58.7297C896.115 58.6388 896.001 58.7297 896.296 58.7115L897.293 58.7479L899.286 58.8207L903.274 58.9662L911.226 59.2391L918.792 60.0394C921.307 60.3486 923.844 60.4577 926.314 60.9124L933.79 62.1857C953.449 66.134 972.544 71.7116 990.767 78.8287C1009.05 85.5041 1027.01 92.4341 1045.46 97.527C1063.36 102.679 1082.12 105.652 1101.12 106.349L1107.98 106.549C1110.54 106.603 1112.51 106.549 1114.83 106.331C1117.14 106.112 1119.2 106.203 1121.46 106.058C1122.55 106.021 1123.64 105.985 1124.75 105.894L1128.08 105.512C1132.5 104.985 1136.96 104.639 1141.2 103.893C1145.43 103.147 1149.65 102.42 1153.77 101.583C1169.34 98.0346 1184.52 93.4345 1199.12 87.8323C1213.06 82.6847 1225.86 77.2826 1238.32 72.9172C1259.39 64.7012 1281.96 59.2306 1305.17 56.7108C1313.79 55.979 1322.45 55.7055 1331.11 55.8922C1337.52 56.0625 1343.92 56.5423 1350.25 57.3292C1355.44 57.8567 1359.34 58.6206 1362.01 59.0572L1366 59.7484L1362.01 58.9481C1359.41 58.4206 1355.51 57.5838 1350.37 56.8745C1335.41 54.6184 1320.15 54.0248 1304.99 55.1101C1285.33 56.347 1261.97 61.4581 1236.84 70.1343C1224.23 74.3723 1211.15 79.4107 1197.2 84.249C1182.74 89.4899 1167.77 93.7903 1152.45 97.1087L1140.22 99.1822C1136.12 99.8552 1131.93 100.092 1127.74 100.583L1124.57 100.91C1123.48 100.983 1122.39 100.983 1121.28 101.038L1114.67 101.219C1112.51 101.238 1109.95 101.365 1108.14 101.329L1101.55 101.056C1083.23 100.176 1065.18 97.0791 1048.02 91.8702C1030.23 86.6864 1012.65 79.6654 994.346 72.7171C975.678 65.211 956.039 59.3736 935.783 55.3102L927.877 54.0552C925.249 53.5822 922.508 53.3822 919.766 53.0729L911.701 52.2726L903.523 51.7815L899.536 51.636L897.542 51.5633L896.545 51.5269C896.313 51.5001 896.077 51.4941 895.843 51.5087L895.322 51.5269L887.098 51.7997C884.334 51.9452 881.57 51.8725 878.852 52.1998L870.628 53.0548C859.642 54.372 848.808 56.4037 838.231 59.1299C833.021 60.6215 827.697 62.022 822.554 63.6772C817.412 65.3324 812.224 66.9876 807.126 68.7883C786.828 75.9548 767.254 84.0671 746.592 90.1059L738.867 92.3068C736.284 92.998 733.656 93.5437 731.051 94.1803C725.84 95.5263 720.517 96.3448 715.193 97.2724C713.879 97.4907 712.542 97.7635 711.364 97.8363L707.354 98.2546L699.402 99.1459C694.101 99.5461 688.052 99.5642 682.977 99.8189C661.187 99.6212 639.614 96.3076 619.272 90.0332C598.701 84.1036 579.037 75.9184 558.738 68.752C553.709 66.8967 548.521 65.2778 543.31 63.6408C538.099 62.0038 532.866 60.5669 527.633 59.0936C517.039 56.3463 506.181 54.3083 495.168 53.0002C473.5 50.5509 451.453 51.3527 430.149 55.3648C409.881 59.4242 390.233 65.268 371.563 72.79C353.258 79.7382 335.7 86.741 317.871 91.9249C315.651 92.5797 313.453 93.289 311.21 93.8529C308.968 94.4168 306.725 94.9443 304.573 95.5445C300.163 96.6469 295.687 97.5696 291.161 98.3092C288.918 98.6548 286.698 99.2005 284.478 99.4188L277.862 100.183C275.62 100.419 273.467 100.728 271.225 100.892C268.982 101.056 266.694 101.11 264.428 101.183C247.352 101.897 230.239 100.555 213.658 97.1997C198.314 93.8664 183.329 89.5477 168.847 84.2855C154.892 79.4472 141.797 74.3906 129.178 70.1526C107.604 62.3061 84.6198 57.2477 61.0776 55.1648C52.3523 54.5651 43.584 54.48 34.8432 54.9101C28.4196 55.2721 22.0276 55.9341 15.6998 56.8927C10.3986 57.5112 6.61523 58.4388 4.03257 58.9845L0 59.7484Z" fill="url(#paint4_linear_2169_3882)"/>
<path d="M0 202.879L4.03257 202.188C6.66054 201.751 10.5798 201.006 15.7905 200.46C22.1217 199.666 28.5069 199.18 34.9112 199.005C43.6181 198.84 52.329 199.138 60.987 199.896C84.1746 202.446 106.715 207.922 127.774 216.121C140.234 220.668 153.034 225.888 166.967 231.036C181.568 236.661 196.742 241.274 212.322 244.823C229.453 248.476 247.17 250.045 264.881 249.479L271.7 249.279C273.988 249.116 276.345 248.825 278.678 248.625L285.746 247.897C288.125 247.697 290.391 247.188 292.747 246.824C297.453 246.12 302.111 245.222 306.702 244.132L313.725 242.495C316.059 241.931 318.301 241.222 320.522 240.676C338.963 235.583 356.905 228.635 375.188 221.996C393.421 214.878 412.523 209.295 432.188 205.335C452.505 201.64 473.502 201.017 494.103 203.497C504.549 204.792 514.846 206.769 524.891 209.409C529.921 210.864 534.973 212.228 540.002 213.865C545.032 215.502 550.016 217.139 554.977 218.976C574.891 226.088 594.646 234.419 615.964 240.73C637.367 247.389 660.072 250.949 683.023 251.244L691.654 250.898C694.463 250.753 697.182 250.825 700.15 250.443L708.827 249.479L713.176 249.006C714.581 248.825 715.986 248.534 717.368 248.297C722.987 247.422 728.545 246.311 734.019 244.968C736.76 244.296 739.524 243.713 742.197 242.986L750.217 240.658C771.581 234.419 791.177 225.961 811.181 218.922C816.143 217.048 821.172 215.484 826.156 213.811C831.141 212.137 836.125 210.9 841.29 209.336C851.35 206.694 861.662 204.717 872.123 203.425L879.894 202.57C882.499 202.261 885.104 202.315 887.732 202.17L895.503 201.86L896.001 201.86C896.115 201.769 896.001 201.86 896.296 201.842L897.293 201.879L899.286 201.951L903.274 202.097L911.226 202.37L918.792 203.17C921.307 203.479 923.844 203.588 926.314 204.043L933.79 205.316C953.449 209.265 972.544 214.842 990.767 221.959C1009.05 228.635 1027.01 235.565 1045.46 240.658C1063.36 245.809 1082.12 248.783 1101.12 249.479L1107.98 249.679C1110.54 249.734 1112.51 249.679 1114.83 249.461C1117.14 249.243 1119.2 249.334 1121.46 249.188C1122.55 249.152 1123.64 249.116 1124.75 249.025L1128.08 248.643C1132.5 248.115 1136.96 247.77 1141.2 247.024C1145.43 246.278 1149.65 245.551 1153.77 244.714C1169.34 241.165 1184.52 236.565 1199.12 230.963C1213.06 225.815 1225.86 220.413 1238.32 216.048C1259.39 207.832 1281.96 202.361 1305.17 199.841C1313.79 199.11 1322.45 198.836 1331.11 199.023C1337.52 199.193 1343.92 199.673 1350.25 200.46C1355.44 200.987 1359.34 201.751 1362.01 202.188L1366 202.879L1362.01 202.079C1359.41 201.551 1355.51 200.714 1350.37 200.005C1335.41 197.749 1320.15 197.155 1304.99 198.241C1285.33 199.478 1261.97 204.589 1236.84 213.265C1224.23 217.503 1211.15 222.541 1197.2 227.38C1182.74 232.621 1167.77 236.921 1152.45 240.239L1140.22 242.313C1136.12 242.986 1131.93 243.222 1127.74 243.713L1124.57 244.041C1123.48 244.114 1122.39 244.114 1121.28 244.168L1114.67 244.35C1112.51 244.368 1109.95 244.496 1108.14 244.459L1101.55 244.186C1083.23 243.306 1065.18 240.21 1048.02 235.001C1030.23 229.817 1012.65 222.796 994.346 215.848C975.678 208.342 956.039 202.504 935.783 198.441L927.877 197.186C925.249 196.713 922.508 196.513 919.766 196.204L911.701 195.403L903.523 194.912L899.536 194.767L897.542 194.694L896.545 194.657C896.313 194.631 896.077 194.625 895.843 194.639L895.322 194.658L887.098 194.93C884.334 195.076 881.57 195.003 878.852 195.33L870.628 196.185C859.642 197.503 848.808 199.534 838.231 202.261C833.021 203.752 827.697 205.153 822.554 206.808C817.412 208.463 812.224 210.118 807.126 211.919C786.828 219.085 767.254 227.198 746.592 233.237L738.867 235.437C736.284 236.129 733.656 236.674 731.051 237.311C725.84 238.657 720.517 239.475 715.193 240.403C713.879 240.621 712.542 240.894 711.364 240.967L707.354 241.385L699.402 242.277C694.101 242.677 688.052 242.695 682.977 242.95C661.187 242.752 639.614 239.438 619.272 233.164C598.701 227.234 579.037 219.049 558.738 211.883C553.709 210.027 548.521 208.408 543.31 206.771C538.099 205.134 532.866 203.698 527.633 202.224C517.039 199.477 506.181 197.439 495.168 196.131C473.5 193.682 451.453 194.483 430.149 198.495C409.881 202.555 390.233 208.399 371.563 215.921C353.258 222.869 335.7 229.872 317.871 235.055C315.651 235.71 313.453 236.42 311.21 236.984C308.968 237.547 306.725 238.075 304.573 238.675C300.163 239.777 295.687 240.7 291.161 241.44C288.918 241.785 286.698 242.331 284.478 242.549L277.862 243.313C275.62 243.55 273.467 243.859 271.225 244.023C268.982 244.186 266.694 244.241 264.428 244.314C247.352 245.028 230.239 243.685 213.658 240.33C198.314 236.997 183.329 232.678 168.847 227.416C154.892 222.578 141.797 217.521 129.178 213.283C107.604 205.437 84.6198 200.378 61.0776 198.295C52.3523 197.696 43.584 197.611 34.8432 198.041C28.4196 198.403 22.0276 199.065 15.6998 200.023C10.3986 200.642 6.61523 201.569 4.03257 202.115L0 202.879Z" fill="url(#paint5_linear_2169_3882)"/>
<path d="M0 22.8114L4.03257 22.1202C6.66054 21.6837 10.5798 20.9379 15.7905 20.3923C22.1217 19.5982 28.5069 19.1123 34.9112 18.9371C43.6181 18.7726 52.329 19.0704 60.987 19.8284C84.1746 22.3788 106.715 27.8545 127.774 36.053C140.234 40.6003 153.034 45.8206 166.967 50.9681C181.568 56.5934 196.742 61.206 212.322 64.7554C229.453 68.4081 247.17 69.9777 264.881 69.4118L271.7 69.2117C273.988 69.048 276.345 68.757 278.678 68.5569L285.746 67.8293C288.125 67.6293 290.391 67.12 292.747 66.7562C297.453 66.0527 302.111 65.1542 306.702 64.0642L313.725 62.4272C316.059 61.8633 318.301 61.154 320.522 60.6083C338.963 55.5153 356.905 48.5671 375.188 41.9281C393.421 34.8107 412.523 29.2273 432.188 25.2669C452.505 21.5721 473.502 20.9491 494.103 23.4298C504.549 24.7242 514.846 26.7013 524.891 29.3412C529.921 30.7964 534.973 32.1606 540.002 33.7976C545.032 35.4346 550.016 37.0716 554.977 38.9087C574.891 46.0206 594.646 54.3512 615.964 60.6628C637.367 67.3218 660.072 70.8813 683.023 71.1761L691.654 70.8305C694.463 70.685 697.182 70.7578 700.15 70.3758L708.827 69.4117L713.176 68.9389C714.581 68.757 715.986 68.4659 717.368 68.2295C722.987 67.354 728.545 66.2429 734.019 64.9009C736.76 64.2279 739.524 63.6458 742.197 62.9183L750.217 60.5901C771.581 54.3512 791.177 45.8933 811.181 38.8541C816.143 36.9806 821.172 35.4164 826.156 33.743C831.141 32.0696 836.125 30.8327 841.29 29.2684C851.35 26.6268 861.662 24.6497 872.123 23.357L879.894 22.5021C882.499 22.1929 885.104 22.2474 887.732 22.102L895.503 21.7927L896.001 21.7927C896.115 21.7018 896.001 21.7927 896.296 21.7745L897.293 21.8109L899.286 21.8837L903.274 22.0292L911.226 22.302L918.792 23.1024C921.307 23.4116 923.844 23.5207 926.314 23.9754L933.79 25.2487C953.449 29.197 972.544 34.7746 990.767 41.8917C1009.05 48.567 1027.01 55.4971 1045.46 60.59C1063.36 65.7415 1082.12 68.715 1101.12 69.4117L1107.98 69.6118C1110.54 69.6663 1112.51 69.6118 1114.83 69.3935C1117.14 69.1753 1119.2 69.2662 1121.46 69.1207C1122.55 69.0843 1123.64 69.0479 1124.75 68.957L1128.08 68.575C1132.5 68.0475 1136.96 67.702 1141.2 66.9562C1145.43 66.2104 1149.65 65.4829 1153.77 64.6462C1169.34 61.0975 1184.52 56.4975 1199.12 50.8953C1213.06 45.7477 1225.86 40.3456 1238.32 35.9802C1259.39 27.7642 1281.96 22.2936 1305.17 19.7738C1313.79 19.042 1322.45 18.7685 1331.11 18.9552C1337.52 19.1255 1343.92 19.6053 1350.25 20.3922C1355.44 20.9196 1359.34 21.6836 1362.01 22.1202L1366 22.8114L1362.01 22.0111C1359.41 21.4835 1355.51 20.6468 1350.37 19.9375C1335.41 17.6814 1320.15 17.0877 1304.99 18.1731C1285.33 19.4099 1261.97 24.521 1236.84 33.1973C1224.23 37.4353 1211.15 42.4737 1197.2 47.312C1182.74 52.5529 1167.77 56.8532 1152.45 60.1717L1140.22 62.2452C1136.12 62.9182 1131.93 63.1547 1127.74 63.6458L1124.57 63.9732C1123.48 64.0459 1122.39 64.046 1121.28 64.1005L1114.67 64.2824C1112.51 64.3006 1109.95 64.4279 1108.14 64.3916L1101.55 64.1187C1083.23 63.2389 1065.18 60.1421 1048.02 54.9332C1030.23 49.7494 1012.65 42.7284 994.346 35.7801C975.678 28.274 956.039 22.4366 935.783 18.3732L927.877 17.1182C925.249 16.6452 922.508 16.4452 919.766 16.1359L911.701 15.3356L903.523 14.8445L899.536 14.699L897.542 14.6263L896.545 14.5898C896.313 14.5631 896.077 14.5571 895.843 14.5717L895.322 14.5899L887.098 14.8627C884.334 15.0082 881.57 14.9355 878.852 15.2628L870.628 16.1177C859.642 17.4349 848.808 19.4667 838.231 22.1929C833.021 23.6844 827.697 25.0849 822.554 26.7402C817.412 28.3954 812.224 30.0506 807.126 31.8513C786.828 39.0178 767.254 47.1301 746.592 53.1689L738.867 55.3698C736.284 56.061 733.656 56.6066 731.051 57.2432C725.84 58.5892 720.517 59.4078 715.193 60.3354C713.879 60.5537 712.542 60.8265 711.364 60.8993L707.354 61.3176L699.402 62.2089C694.101 62.609 688.052 62.6272 682.977 62.8819C661.187 62.6842 639.614 59.3706 619.272 53.0962C598.701 47.1666 579.037 38.9814 558.738 31.8149C553.709 29.9597 548.521 28.3408 543.31 26.7038C538.099 25.0668 532.866 23.6299 527.633 22.1565C517.039 19.4093 506.181 17.3713 495.168 16.0632C473.5 13.6139 451.453 14.4157 430.149 18.4278C409.881 22.4872 390.233 28.331 371.563 35.8529C353.258 42.8012 335.7 49.804 317.871 54.9879C315.651 55.6427 313.453 56.352 311.21 56.9159C308.968 57.4798 306.725 58.0072 304.573 58.6075C300.163 59.7098 295.687 60.6326 291.161 61.3722C288.918 61.7178 286.698 62.2635 284.478 62.4818L277.862 63.2457C275.62 63.4822 273.467 63.7914 271.225 63.9551C268.982 64.1188 266.694 64.1733 264.428 64.2461C247.352 64.9604 230.239 63.6177 213.658 60.2627C198.314 56.9294 183.329 52.6107 168.847 47.3485C154.892 42.5102 141.797 37.4536 129.178 33.2155C107.604 25.3691 84.6198 20.3107 61.0776 18.2277C52.3523 17.6281 43.584 17.543 34.8432 17.9731C28.4196 18.3351 22.0276 18.9971 15.6998 19.9557C10.3986 20.5741 6.61523 21.5018 4.03257 22.0475L0 22.8114Z" fill="url(#paint6_linear_2169_3882)"/>
<path d="M0 165.942L4.03257 165.251C6.66054 164.814 10.5798 164.069 15.7905 163.523C22.1217 162.729 28.5069 162.243 34.9112 162.068C43.6181 161.903 52.329 162.201 60.987 162.959C84.1746 165.509 106.715 170.985 127.774 179.184C140.234 183.731 153.034 188.951 166.967 194.099C181.568 199.724 196.742 204.337 212.322 207.886C229.453 211.539 247.17 213.108 264.881 212.542L271.7 212.342C273.988 212.179 276.345 211.888 278.678 211.688L285.746 210.96C288.125 210.76 290.391 210.251 292.747 209.887C297.453 209.183 302.111 208.285 306.702 207.195L313.725 205.558C316.059 204.994 318.301 204.285 320.522 203.739C338.963 198.646 356.905 191.698 375.188 185.059C393.421 177.941 412.523 172.358 432.188 168.397C452.505 164.703 473.502 164.08 494.103 166.56C504.549 167.855 514.846 169.832 524.891 172.472C529.921 173.927 534.973 175.291 540.002 176.928C545.032 178.565 550.016 180.202 554.977 182.039C574.891 189.151 594.646 197.482 615.964 203.793C637.367 210.452 660.072 214.012 683.023 214.307L691.654 213.961C694.463 213.816 697.182 213.888 700.15 213.506L708.827 212.542L713.176 212.069C714.581 211.888 715.986 211.597 717.368 211.36C722.987 210.485 728.545 209.374 734.019 208.031C736.76 207.358 739.524 206.776 742.197 206.049L750.217 203.721C771.581 197.482 791.177 189.024 811.181 181.985C816.143 180.111 821.172 178.547 826.156 176.874C831.141 175.2 836.125 173.963 841.29 172.399C851.35 169.757 861.662 167.78 872.123 166.488L879.894 165.633C882.499 165.323 885.104 165.378 887.732 165.233L895.503 164.923L896.001 164.923C896.115 164.832 896.001 164.923 896.296 164.905L897.293 164.942L899.286 165.014L903.274 165.16L911.226 165.433L918.792 166.233C921.307 166.542 923.844 166.651 926.314 167.106L933.79 168.379C953.449 172.328 972.544 177.905 990.767 185.022C1009.05 191.698 1027.01 198.628 1045.46 203.721C1063.36 208.872 1082.12 211.846 1101.12 212.542L1107.98 212.742C1110.54 212.797 1112.51 212.742 1114.83 212.524C1117.14 212.306 1119.2 212.397 1121.46 212.251C1122.55 212.215 1123.64 212.179 1124.75 212.088L1128.08 211.706C1132.5 211.178 1136.96 210.833 1141.2 210.087C1145.43 209.341 1149.65 208.614 1153.77 207.777C1169.34 204.228 1184.52 199.628 1199.12 194.026C1213.06 188.878 1225.86 183.476 1238.32 179.111C1259.39 170.895 1281.96 165.424 1305.17 162.904C1313.79 162.173 1322.45 161.899 1331.11 162.086C1337.52 162.256 1343.92 162.736 1350.25 163.523C1355.44 164.05 1359.34 164.814 1362.01 165.251L1366 165.942L1362.01 165.142C1359.41 164.614 1355.51 163.777 1350.37 163.068C1335.41 160.812 1320.15 160.218 1304.99 161.304C1285.33 162.541 1261.97 167.652 1236.84 176.328C1224.23 180.566 1211.15 185.604 1197.2 190.443C1182.74 195.684 1167.77 199.984 1152.45 203.302L1140.22 205.376C1136.12 206.049 1131.93 206.285 1127.74 206.776L1124.57 207.104C1123.48 207.177 1122.39 207.177 1121.28 207.231L1114.67 207.413C1112.51 207.431 1109.95 207.559 1108.14 207.522L1101.55 207.249C1083.23 206.369 1065.18 203.273 1048.02 198.064C1030.23 192.88 1012.65 185.859 994.346 178.911C975.678 171.405 956.039 165.567 935.783 161.504L927.877 160.249C925.249 159.776 922.508 159.576 919.766 159.267L911.701 158.466L903.523 157.975L899.536 157.83L897.542 157.757L896.545 157.72C896.313 157.694 896.077 157.688 895.843 157.702L895.322 157.721L887.098 157.993C884.334 158.139 881.57 158.066 878.852 158.393L870.628 159.248C859.642 160.566 848.808 162.597 838.231 165.324C833.021 166.815 827.697 168.216 822.554 169.871C817.412 171.526 812.224 173.181 807.126 174.982C786.828 182.148 767.254 190.261 746.592 196.299L738.867 198.5C736.284 199.192 733.656 199.737 731.051 200.374C725.84 201.72 720.517 202.538 715.193 203.466C713.879 203.684 712.542 203.957 711.364 204.03L707.354 204.448L699.402 205.34C694.101 205.74 688.052 205.758 682.977 206.012C661.187 205.815 639.614 202.501 619.272 196.227C598.701 190.297 579.037 182.112 558.738 174.946C553.709 173.09 548.521 171.471 543.31 169.834C538.099 168.197 532.866 166.76 527.633 165.287C517.039 162.54 506.181 160.502 495.168 159.194C473.5 156.745 451.453 157.546 430.149 161.558C409.881 165.618 390.233 171.462 371.563 178.984C353.258 185.932 335.7 192.935 317.871 198.118C315.651 198.773 313.453 199.483 311.21 200.047C308.968 200.61 306.725 201.138 304.573 201.738C300.163 202.84 295.687 203.763 291.161 204.503C288.918 204.848 286.698 205.394 284.478 205.612L277.862 206.376C275.62 206.613 273.467 206.922 271.225 207.086C268.982 207.249 266.694 207.304 264.428 207.377C247.352 208.091 230.239 206.748 213.658 203.393C198.314 200.06 183.329 195.741 168.847 190.479C154.892 185.641 141.797 180.584 129.178 176.346C107.604 168.5 84.6198 163.441 61.0776 161.358C52.3523 160.759 43.584 160.674 34.8432 161.104C28.4196 161.466 22.0276 162.128 15.6998 163.086C10.3986 163.705 6.61523 164.632 4.03257 165.178L0 165.942Z" fill="url(#paint7_linear_2169_3882)"/>
</g>
<defs>
<linearGradient id="paint0_linear_2169_3882" x1="341.5" y1="407.804" x2="876.908" y2="-259.058" gradientUnits="userSpaceOnUse">
<stop offset="0.479167" stop-color="#007A79"/>
<stop offset="1" stop-color="#142034"/>
</linearGradient>
<linearGradient id="paint1_linear_2169_3882" x1="341.5" y1="550.936" x2="876.908" y2="-115.927" gradientUnits="userSpaceOnUse">
<stop offset="0.479167" stop-color="#007A79"/>
<stop offset="1" stop-color="#142034"/>
</linearGradient>
<linearGradient id="paint2_linear_2169_3882" x1="341.5" y1="370.867" x2="876.908" y2="-295.995" gradientUnits="userSpaceOnUse">
<stop offset="0.479167" stop-color="#007A79"/>
<stop offset="1" stop-color="#142034"/>
</linearGradient>
<linearGradient id="paint3_linear_2169_3882" x1="341.5" y1="513.999" x2="876.908" y2="-152.864" gradientUnits="userSpaceOnUse">
<stop offset="0.479167" stop-color="#007A79"/>
<stop offset="1" stop-color="#142034"/>
</linearGradient>
<linearGradient id="paint4_linear_2169_3882" x1="341.5" y1="333.931" x2="876.908" y2="-332.932" gradientUnits="userSpaceOnUse">
<stop offset="0.479167" stop-color="#007A79"/>
<stop offset="1" stop-color="#142034"/>
</linearGradient>
<linearGradient id="paint5_linear_2169_3882" x1="341.5" y1="477.061" x2="876.908" y2="-189.801" gradientUnits="userSpaceOnUse">
<stop offset="0.479167" stop-color="#007A79"/>
<stop offset="1" stop-color="#142034"/>
</linearGradient>
<linearGradient id="paint6_linear_2169_3882" x1="341.5" y1="296.994" x2="876.908" y2="-369.869" gradientUnits="userSpaceOnUse">
<stop offset="0.479167" stop-color="#007A79"/>
<stop offset="1" stop-color="#142034"/>
</linearGradient>
<linearGradient id="paint7_linear_2169_3882" x1="341.5" y1="440.124" x2="876.908" y2="-226.738" gradientUnits="userSpaceOnUse">
<stop offset="0.479167" stop-color="#007A79"/>
<stop offset="1" stop-color="#142034"/>
</linearGradient>
<clipPath id="clip0_2169_3882">
<rect width="1366" height="110" fill="white"/>
</clipPath>
</defs>
</svg>
