<svg xmlns="http://www.w3.org/2000/svg" version="1.1" xmlns:xlink="http://www.w3.org/1999/xlink" xmlns:svgjs="http://svgjs.com/svgjs" width="1000" height="1000"><g transform="matrix(10,0,0,10,0,0)"><svg xmlns="http://www.w3.org/2000/svg" version="1.1" xmlns:xlink="http://www.w3.org/1999/xlink" xmlns:svgjs="http://svgjs.com/svgjs" width="100" height="100"><svg xmlns="http://www.w3.org/2000/svg" version="1.1" xmlns:xlink="http://www.w3.org/1999/xlink" xmlns:svgjs="http://svgjs.com/svgjs" width="100" height="100"><svg width="100" height="100" viewBox="0 0 100 100" fill="none" xmlns="http://www.w3.org/2000/svg">
<rect width="100" height="100" fill="white"></rect>
<path d="M14.6081 33L24.4111 57.9673L33.0251 35.5349L41.9981 58.1692L51.5767 33.0897H54.0892L41.4597 66.2H39.8222L31.7016 45.7192L23.9176 66.2H22.0557L9 33.0897L14.6081 33Z" fill="#142034"></path>
<path d="M66.1353 63.4462H72.035C73.8184 63.4659 75.5906 63.1541 77.2618 62.5265C78.8635 61.9446 80.3193 61.0179 81.5239 59.8121C82.7891 58.5373 83.7672 57.0079 84.3953 55.3256C85.1468 53.3812 85.5124 51.3084 85.472 49.224C85.4967 47.3146 85.1535 45.4184 84.4626 43.6383C83.8704 41.9642 82.9304 40.435 81.7034 39.1519C80.501 37.91 79.0474 36.9387 77.4412 36.3029C75.7296 35.6156 73.9014 35.2726 72.0575 35.2935H66.1802L66.1353 63.4462ZM60.5945 33.0054H71.5415C74.4712 32.954 77.3941 33.2705 80.2453 33.9475C82.4706 34.4763 84.5433 35.5127 86.302 36.9759C88.0809 38.4598 89.5054 40.3222 90.4745 42.427C91.4323 44.5397 91.9146 46.837 91.8877 49.1567C91.9034 51.389 91.4682 53.6017 90.6091 55.6621C89.8082 57.6698 88.5744 59.4772 86.9974 60.9562C85.2702 62.5644 83.231 63.8013 81.008 64.5902C78.3991 65.5021 75.6489 65.9427 72.8874 65.8913H60.6169L60.5945 33.0054Z" fill="#142034"></path>
</svg><style>@media (prefers-color-scheme: light) { :root { filter: none; } }
@media (prefers-color-scheme: dark) { :root { filter: invert(100%); } }
</style></svg></svg></g></svg>