<svg width="199" height="60" viewBox="0 0 199 60" fill="none" xmlns="http://www.w3.org/2000/svg">
<path d="M198.246 36.7633V37.3988H194.655V46.6472H192.989V37.3988H189.398V36.7633H198.246ZM179.515 36.7633H180.449L186.953 43.9971H187.027V36.7633H187.759V46.9041H187.366L180.334 38.8455H180.273V46.6472H179.521L179.515 36.7633ZM177.557 36.7633V37.3988H172.334V40.9413H175.829V41.5836H172.334V46.0117H177.557V46.6878H170.66V36.7633H177.557ZM156.854 36.7633H158.561L162.423 44.3486H162.504L166.291 36.7633H167.964V46.6472H166.291V38.5346H166.237L162.172 46.6472H161.827L157.715 38.6022H157.606V46.6472H156.861L156.854 36.7633ZM149.673 41.4957C149.863 41.5565 150.06 41.6106 150.276 41.6579C150.5 41.6998 150.727 41.7202 150.954 41.7188C151.274 41.7246 151.594 41.6719 151.895 41.5633C152.149 41.4645 152.379 41.315 152.573 41.1238C152.752 40.9304 152.887 40.6994 152.966 40.4478C153.056 40.1892 153.102 39.9172 153.101 39.6433C153.107 39.3351 153.05 39.0291 152.932 38.7441C152.82 38.4881 152.656 38.258 152.451 38.0681C152.259 37.873 152.028 37.7208 151.773 37.6219C151.497 37.5145 151.203 37.4617 150.906 37.4664H149.728L149.673 41.4957ZM148 36.7633H151.143C151.635 36.7597 152.125 36.8211 152.6 36.9458C153.026 37.057 153.427 37.2449 153.785 37.5002C154.116 37.7288 154.388 38.0323 154.578 38.3858C154.775 38.7562 154.875 39.17 154.869 39.5892C154.879 39.9972 154.781 40.4006 154.585 40.7588C154.405 41.088 154.152 41.3722 153.846 41.5903C153.529 41.8121 153.176 41.9789 152.803 42.0838C152.416 42.1862 152.018 42.2384 151.618 42.2393H151.069L150.52 42.1988L150.039 42.1447L149.673 42.0906V46.6472H148V36.7633ZM140.284 46.3971C140.807 46.406 141.324 46.2852 141.788 46.0455C142.228 45.8044 142.607 45.4641 142.892 45.0517C143.209 44.5974 143.438 44.0886 143.57 43.5509C143.729 42.9327 143.807 42.2963 143.8 41.6579C143.807 41.0262 143.73 40.3964 143.57 39.7853C143.44 39.2575 143.21 38.7595 142.892 38.3182C142.607 37.9159 142.228 37.5888 141.788 37.365C141.323 37.1277 140.806 37.0092 140.284 37.0202C139.755 37.0092 139.232 37.1276 138.76 37.365C138.323 37.5908 137.947 37.9176 137.662 38.3182C137.35 38.7625 137.12 39.2595 136.985 39.7853C136.83 40.3974 136.755 41.0267 136.761 41.6579C136.756 42.2958 136.831 42.9318 136.985 43.5509C137.121 44.0868 137.35 44.5948 137.662 45.0517C137.947 45.482 138.338 45.8322 138.797 46.0689C139.256 46.3057 139.768 46.421 140.284 46.4038V46.3971ZM140.284 46.8838C139.546 46.8891 138.815 46.7513 138.13 46.4782C137.487 46.215 136.899 45.8344 136.396 45.3559C135.908 44.8793 135.515 44.3151 135.237 43.6929C134.958 43.053 134.815 42.3624 134.817 41.6647C134.815 41.2073 134.879 40.7519 135.007 40.3126C135.133 39.8827 135.315 39.4713 135.549 39.0889C136.03 38.308 136.71 37.6687 137.52 37.2365C137.932 37.0105 138.372 36.8379 138.828 36.7227C139.794 36.4704 140.808 36.4704 141.774 36.7227C142.23 36.839 142.669 37.0116 143.082 37.2365C143.483 37.4532 143.855 37.7214 144.186 38.0343C144.512 38.3409 144.797 38.6886 145.033 39.0686C145.272 39.4493 145.456 39.8611 145.582 40.2923C145.709 40.7317 145.773 41.187 145.771 41.6444C145.774 42.113 145.71 42.5797 145.582 43.0303C145.456 43.4679 145.272 43.8864 145.033 44.2743C144.799 44.664 144.514 45.0209 144.186 45.3357C143.855 45.6571 143.484 45.9343 143.082 46.1604C142.67 46.3897 142.231 46.5668 141.774 46.6878C141.288 46.8169 140.787 46.8828 140.284 46.8838ZM127.108 36.743H128.774V46.0117H133.774V46.6878H127.108V36.743ZM125.15 36.743V37.3785H119.907V40.921H123.409V41.5633H119.907V45.9914H125.137V46.6675H118.254V36.7633L125.15 36.743ZM108.851 36.743L112.604 44.619L116.079 36.7498H116.872L112.367 46.8906H111.933L107.096 36.7498L108.851 36.743ZM106.453 36.743V37.3785H101.223V40.921H104.725V41.5633H101.223V45.9914H106.453V46.6675H99.5835V36.7633L106.453 36.743ZM89.5168 45.9103H91.2917C91.8283 45.9162 92.3613 45.8222 92.8633 45.6331C93.348 45.4594 93.7877 45.1799 94.1505 44.8151C94.5324 44.4309 94.828 43.97 95.0176 43.463C95.2449 42.877 95.3553 42.2524 95.3428 41.6241C95.3489 41.0494 95.2479 40.4786 95.0447 39.9408C94.8592 39.438 94.5734 38.978 94.2047 38.5886C93.8416 38.2144 93.4028 37.9217 92.9175 37.7301C92.403 37.5237 91.8529 37.4203 91.2984 37.4258H89.5168V45.9103ZM87.8638 36.7633H91.1697C92.0518 36.7463 92.9325 36.8394 93.7914 37.0405C94.4651 37.2012 95.093 37.5133 95.6273 37.9532C96.1603 38.4029 96.5872 38.9645 96.8776 39.5979C97.168 40.2313 97.3148 40.9209 97.3073 41.6174C97.3111 42.2894 97.1822 42.9556 96.928 43.5779C96.6788 44.1882 96.2997 44.7372 95.817 45.1869C95.2956 45.6636 94.6825 46.0293 94.015 46.2619C93.2273 46.5367 92.3969 46.6695 91.5626 46.654H87.8638V36.7633ZM137.52 18.5098V19.1453H132.29V22.6878H135.793V23.3301H132.29V27.7583H137.52V28.3937H130.624V18.5098H137.52ZM122.474 18.5098H124.141V27.7583H129.133V28.3937H122.474V18.5098ZM113.918 24.4591H117.576L115.774 20.5448L113.918 24.4591ZM116.425 18.28L121.085 28.4208H119.392L117.874 25.1014H113.62L112.062 28.3937H111.222L116.005 18.2529L116.425 18.28ZM103.188 23.6884V28.4208H101.514V18.5098H103.188V22.9853H108.167V18.5098H109.833V28.3937H108.167V23.6614L103.188 23.6884ZM88.1822 18.5436L91.1426 26.0614L93.7508 19.3008L96.4605 26.1222L99.3532 18.5707H100.159L96.3454 28.5425H95.8508L93.3714 22.3093L91.0275 28.4816H90.4584L86.5157 18.5098L88.1822 18.5436Z" fill="white"/>
<path d="M43.932 25.2303C44.0435 25.6506 44.2874 26.024 44.6277 26.2954C44.968 26.5669 45.3867 26.722 45.822 26.7379C46.2616 26.7031 46.6813 26.5405 47.0293 26.2701C47.3773 25.9998 47.6382 25.6336 47.7798 25.2168L47.6579 1.20338L40.8293 8.018V14.1025L43.81 16.6985L43.932 25.2303ZM45.0972 32.6669C41.8997 32.6669 40.4432 30.8551 40.3551 30.7808L40.3009 30.7131V14.3594L37.4489 11.8715V31.9638H36.9476V10.7695L40.3348 13.6901V7.80843L48.1524 0L48.2811 25.3182V25.3656C48.1059 25.8784 47.7842 26.3288 47.3557 26.6616C46.9272 26.9943 46.4106 27.1947 45.8694 27.2382C45.3135 27.2316 44.7755 27.0408 44.3401 26.6956C43.9048 26.3505 43.5967 25.8707 43.4645 25.3318V25.2709L43.3426 16.9554L40.8564 14.7921V30.5036C41.4633 31.0915 42.1904 31.5414 42.9878 31.8226C43.7853 32.1039 44.6343 32.2097 45.4765 32.1329H45.7678C47.4959 32.1855 49.1833 31.6033 50.5099 30.4968V3.82647L54.3645 7.81519L54.4865 31.8354H53.9919L53.87 8.01124L51.0112 5.06365V30.7131L50.9299 30.7875C49.5059 32.042 47.6523 32.7006 45.7543 32.6264H45.0768L45.0972 32.6669Z" fill="white"/>
<path d="M0 25.8452C0 25.8452 4.49142 33.2818 10.5477 29.1714C11.5165 28.7387 13.0814 28.0627 16.7937 28.9348C17.085 26.981 17.7692 23.3776 21.1903 21.7213C22.4571 21.1399 24.5775 17.9016 21.1903 11.9658C19.8354 14.5078 19.158 15.7788 16.0892 17.9219C15.2356 18.5033 13.4743 19.4835 14.0569 23.7697C12.0245 22.8909 9.2335 21.4982 5.25016 24.5201C4.09851 25.3314 3.12977 26.163 0 25.8452Z" fill="white"/>
<path d="M17.0377 28.9761C17.0377 28.9761 51.018 50.211 73.6039 23.0269C73.849 28.0032 73.3929 32.9893 72.249 37.8392C72.249 37.8392 70.115 42.5107 57.4537 44.6876C56.7763 45.9113 51.0248 57.8639 31.3384 60.0003C33.5672 58.1006 40.45 52.3473 42.5704 44.62C41.2545 44.5554 39.9479 44.3652 38.6683 44.0521C35.7866 43.3012 33.02 42.1641 30.4442 40.6719C28.4816 39.5487 26.5882 38.3093 24.774 36.9603C23.6766 36.1558 22.6062 35.3108 21.563 34.4454C20.4863 33.6723 19.5041 32.7761 18.6364 31.775C18.0362 30.882 17.5018 29.9465 17.0377 28.9761Z" fill="white"/>
<path d="M55.042 49.2575C55.042 49.2575 62.4938 49.1088 66.8227 46.5533C68.3266 45.0119 70.6299 42.6052 71.5647 39.4683C70.9483 40.0564 66.8227 44.1195 57.684 45.1809C56.9749 46.6432 56.0876 48.0124 55.042 49.2575Z" fill="white"/>
<path d="M51.9731 52.5225C51.9731 52.5225 60.7799 51.7113 65.2374 47.9321C61.8677 49.1612 58.3044 49.7771 54.7168 49.7507L51.9731 52.5225Z" fill="white"/>
<path d="M20.3233 34.1406C20.3233 34.1406 31.5959 44.3423 41.9472 45.0792C41.622 46.0392 40.7007 48.0809 40.7007 48.0809C40.7007 48.0809 33.8721 46.8099 24.6318 39.3598C23.1415 37.6764 20.3233 34.1406 20.3233 34.1406Z" fill="white"/>
<path d="M27.0027 41.7798C27.0027 41.7798 35.0236 47.6479 40.4635 48.5403C39.9893 49.4057 39.4405 50.3251 39.4405 50.3251C39.4405 50.3251 32.1784 47.0801 27.0027 41.7798Z" fill="white"/>
</svg>
