<!-- Generated by IcoMoon.io -->
<svg version="1.1" xmlns="http://www.w3.org/2000/svg" width="32" height="32" viewBox="0 0 32 32">
<title>scroll</title>
<path d="M16 31.467c-8.542 0-15.467-6.925-15.467-15.467s6.925-15.467 15.467-15.467c8.542 0 15.467 6.925 15.467 15.467s-6.925 15.467-15.467 15.467zM16 32c8.837 0 16-7.163 16-16s-7.163-16-16-16c-8.837 0-16 7.163-16 16s7.163 16 16 16z"></path>
<path d="M15.733 21.333c0-0.801-0.255-2.011-1.013-3.014-0.748-0.99-2.002-1.799-4.054-1.799v-0.533c2.215 0 3.628 0.884 4.479 2.011 0.239 0.316 0.433 0.65 0.587 0.986v-8.317h0.533v8.317c0.155-0.336 0.348-0.669 0.587-0.986 0.852-1.126 2.264-2.011 4.479-2.011v0.533c-2.052 0-3.306 0.809-4.054 1.799-0.758 1.003-1.013 2.213-1.013 3.014h-0.533z"></path>
</svg>
