<svg width="60" height="60" viewBox="0 0 60 60" fill="none" xmlns="http://www.w3.org/2000/svg">
<rect width="60" height="60" rx="30" fill="#007A79"/>
<path d="M28.4103 30.3331L28.4094 30.2664L28.3592 30.2225L25.6911 27.8832V22.4253L31.6224 16.4666L31.7317 38.1334C31.6101 38.4788 31.3926 38.7821 31.1047 39.0073C30.8127 39.2356 30.4611 39.3737 30.0926 39.4048C29.7309 39.3896 29.3832 39.259 29.1002 39.0317C28.8195 38.8063 28.6169 38.4976 28.5213 38.1497L28.4103 30.3331ZM24.9912 43.3612L25.0003 43.3726L25.0107 43.3815C25.0103 43.3811 25.01 43.3809 25.01 43.3809C25.0099 43.381 25.0145 43.3857 25.0286 43.4008L25.0344 43.4071C25.0485 43.4222 25.067 43.442 25.0894 43.4655C25.1409 43.5194 25.2133 43.5925 25.3071 43.6781C25.4946 43.8492 25.7673 44.0699 26.1306 44.2881C26.8581 44.725 27.9459 45.15 29.4345 45.15H29.5217H30.0435C31.9035 45.15 33.5265 44.5644 34.855 43.3862L34.855 43.3863L34.8571 43.3843L34.9313 43.3161L34.9797 43.2715V43.2057V20.0221L37.2879 22.418L37.3989 45.0007L37.3996 45.15H37.5489H38H38.1507L38.15 44.9993L38.0388 22.1764L38.0385 22.1165L37.997 22.0733L34.4806 18.4102L34.2223 18.1412V18.5141V42.9366C33.0481 43.9006 31.5517 44.4152 30.0435 44.4152H29.7826C28.967 44.4152 28.2666 44.334 27.5605 44.0833C26.8732 43.8393 26.2448 43.4529 25.7159 42.9495V28.9152L27.6849 30.6401L27.7952 38.2078V38.2089V38.2637V38.2817L27.7994 38.2992C27.9279 38.8263 28.2271 39.2957 28.6503 39.6334C29.0736 39.9712 29.5966 40.158 30.1373 40.1645L30.1373 40.1651L30.1511 40.164C30.6741 40.1217 31.1733 39.9267 31.5873 39.6031C32.0013 39.2795 32.3119 38.8414 32.4812 38.3429L32.4891 38.3195V38.2947L32.4891 38.2512L32.4891 38.2505L32.3717 14.9992L32.3699 14.6383L32.1154 14.8942L24.9836 22.0652L24.94 22.1091V22.1709V27.2436L22.0983 24.777L21.85 24.5615V24.8903V45V45.15H22H22.4573H22.6073V45V26.2337L24.9091 28.255V43.2057V43.2581L24.9418 43.2992L24.9912 43.3612Z" fill="white" stroke="white" stroke-width="0.3"/>
</svg>
