<svg width="209" height="17" viewBox="0 0 209 17" fill="none" xmlns="http://www.w3.org/2000/svg">
<path d="M0 1.43652L0.616425 1.33087C1.01814 1.26414 1.61725 1.15014 2.41376 1.06673C3.38156 0.945348 4.35761 0.871068 5.33658 0.844296C6.66753 0.81915 7.99909 0.864663 9.32257 0.980535C12.8671 1.37039 16.3126 2.20742 19.5317 3.46066C21.4364 4.15576 23.393 4.95374 25.5228 5.7406C27.7548 6.60049 30.0742 7.30558 32.4558 7.84815C35.0746 8.40651 37.7828 8.64644 40.4901 8.55993L41.5325 8.52935C41.8823 8.50433 42.2425 8.45984 42.5992 8.42925L43.6796 8.31804C44.0433 8.28745 44.3896 8.2096 44.7497 8.15399C45.4692 8.04647 46.1812 7.90911 46.883 7.74249L47.9565 7.49226C48.3132 7.40606 48.656 7.29763 48.9954 7.21422C51.8144 6.4357 54.5571 5.37358 57.3518 4.35873C60.139 3.27076 63.0589 2.41726 66.0649 1.81187C69.1706 1.24708 72.3802 1.15185 75.5294 1.53105C77.1262 1.72893 78.7002 2.03114 80.2357 2.43468C81.0045 2.65712 81.7768 2.86565 82.5456 3.11589C83.3144 3.36612 84.0763 3.61636 84.8347 3.89718C87.8787 4.98432 90.8985 6.25775 94.1572 7.22255C97.429 8.24045 100.9 8.78457 104.408 8.82963L105.727 8.7768C106.157 8.75456 106.572 8.76568 107.026 8.7073L108.352 8.55993L109.017 8.48764C109.232 8.45983 109.447 8.41535 109.658 8.3792C110.517 8.24537 111.366 8.07554 112.203 7.87039C112.622 7.76751 113.045 7.67854 113.453 7.56733L114.679 7.21143C117.945 6.25775 120.941 4.96486 123.998 3.88884C124.757 3.60246 125.526 3.36334 126.288 3.10754C127.049 2.85174 127.811 2.66267 128.601 2.42356C130.139 2.01975 131.715 1.71754 133.314 1.51993L134.502 1.38925C134.9 1.34198 135.298 1.35033 135.7 1.32808L136.888 1.28081L136.964 1.28081C136.981 1.26691 136.964 1.28081 137.009 1.27803L137.162 1.28359L137.466 1.29471L138.076 1.31696L139.291 1.35867L140.448 1.481C140.832 1.52827 141.22 1.54495 141.598 1.61446L142.741 1.80909C145.746 2.41263 148.665 3.26524 151.45 4.35317C154.245 5.37358 156.991 6.43291 159.81 7.21142C162.547 7.99889 165.415 8.45342 168.319 8.55992L169.368 8.59051C169.759 8.59885 170.061 8.59051 170.414 8.55714C170.767 8.52378 171.082 8.53768 171.429 8.51543C171.595 8.50988 171.761 8.50431 171.931 8.49041L172.44 8.43202C173.115 8.35139 173.797 8.29857 174.445 8.18457C175.093 8.07057 175.737 7.95936 176.367 7.83146C178.748 7.28901 181.067 6.58583 183.3 5.72947C185.43 4.94261 187.386 4.11684 189.291 3.44954C192.512 2.19362 195.962 1.35737 199.511 0.972185C200.827 0.860324 202.152 0.81853 203.476 0.847065C204.456 0.873087 205.433 0.946444 206.402 1.06672C207.195 1.14735 207.791 1.26414 208.199 1.33086L208.809 1.43652L208.199 1.31417C207.801 1.23355 207.205 1.10564 206.419 0.997208C204.134 0.652347 201.799 0.561604 199.483 0.727505C196.477 0.916577 192.907 1.69787 189.066 3.02412C187.137 3.67196 185.139 4.44213 183.006 5.18173C180.795 5.98286 178.508 6.64021 176.166 7.14748L174.296 7.46444C173.669 7.56731 173.029 7.60347 172.388 7.67853L171.903 7.72858C171.737 7.7397 171.571 7.73971 171.401 7.74805L170.39 7.77585C170.061 7.77863 169.669 7.79809 169.392 7.79253L168.385 7.75083C165.584 7.61633 162.825 7.14295 160.201 6.34672C157.483 5.55431 154.795 4.48106 151.997 3.41895C149.144 2.27154 146.142 1.37924 143.045 0.758095L141.837 0.566244C141.435 0.493952 141.016 0.463373 140.597 0.416105L139.364 0.293766L138.114 0.218694L137.504 0.196455L137.2 0.18533L137.047 0.179766C137.012 0.175682 136.976 0.174755 136.94 0.176991L136.86 0.179766L135.603 0.221479C135.181 0.243718 134.758 0.232594 134.343 0.282642L133.086 0.413321C131.406 0.614669 129.75 0.925249 128.133 1.34199C127.337 1.56998 126.523 1.78406 125.737 2.03708C124.951 2.2901 124.158 2.54311 123.379 2.81838C120.276 3.91386 117.284 5.15392 114.125 6.07702L112.944 6.41345C112.55 6.51911 112.148 6.60252 111.75 6.69983C110.953 6.90558 110.139 7.0307 109.325 7.1725C109.125 7.20587 108.92 7.24757 108.74 7.2587L108.127 7.32265L106.912 7.45889C106.101 7.52006 105.177 7.52283 104.401 7.56176C101.07 7.53155 97.7724 7.02501 94.6628 6.0659C91.5184 5.15949 88.5125 3.9083 85.4095 2.81282C84.6407 2.52922 83.8477 2.28176 83.0512 2.03153C82.2547 1.78129 81.4547 1.56164 80.6548 1.33642C79.0354 0.916481 77.3756 0.604938 75.6922 0.404986C72.3799 0.0305802 69.0098 0.153145 65.7532 0.766442C62.655 1.38697 59.6517 2.28026 56.7977 3.43008C53.9996 4.49219 51.3157 5.56265 48.5903 6.35507C48.2509 6.45516 47.915 6.5636 47.5721 6.64979C47.2293 6.73598 46.8864 6.81661 46.5574 6.90837C45.8834 7.07688 45.1991 7.21793 44.5073 7.33099C44.1645 7.38382 43.8251 7.46723 43.4857 7.5006L42.4745 7.61737C42.1316 7.65352 41.8026 7.70078 41.4598 7.72581C41.117 7.75083 40.7672 7.75918 40.4209 7.7703C37.8106 7.87948 35.1947 7.67424 32.6602 7.16139C30.3146 6.65185 28.0239 5.99169 25.8102 5.1873C23.677 4.44771 21.6753 3.67475 19.7464 3.02692C16.4485 1.82749 12.9351 1.05426 9.33642 0.735859C8.00266 0.6442 6.66232 0.631189 5.32619 0.696934C4.34426 0.752263 3.36718 0.853456 2.3999 0.999999C1.58955 1.09453 1.01121 1.23633 0.616425 1.31975L0 1.43652Z" fill="white"/>
<path d="M0 5.43652L0.616425 5.33087C1.01814 5.26414 1.61725 5.15014 2.41376 5.06673C3.38156 4.94535 4.35761 4.87107 5.33658 4.8443C6.66753 4.81915 7.99909 4.86466 9.32257 4.98054C12.8671 5.37039 16.3126 6.20742 19.5317 7.46066C21.4364 8.15576 23.393 8.95374 25.5228 9.7406C27.7548 10.6005 30.0742 11.3056 32.4558 11.8481C35.0746 12.4065 37.7828 12.6464 40.4901 12.5599L41.5325 12.5293C41.8823 12.5043 42.2425 12.4598 42.5992 12.4293L43.6796 12.318C44.0433 12.2875 44.3896 12.2096 44.7497 12.154C45.4692 12.0465 46.1812 11.9091 46.883 11.7425L47.9565 11.4923C48.3132 11.4061 48.656 11.2976 48.9954 11.2142C51.8144 10.4357 54.5571 9.37358 57.3518 8.35873C60.139 7.27076 63.0589 6.41726 66.0649 5.81187C69.1706 5.24708 72.3802 5.15185 75.5294 5.53105C77.1262 5.72893 78.7002 6.03114 80.2357 6.43468C81.0045 6.65712 81.7768 6.86565 82.5456 7.11589C83.3144 7.36612 84.0763 7.61636 84.8347 7.89718C87.8787 8.98432 90.8985 10.2578 94.1572 11.2226C97.429 12.2405 100.9 12.7846 104.408 12.8296L105.727 12.7768C106.157 12.7546 106.572 12.7657 107.026 12.7073L108.352 12.5599L109.017 12.4876C109.232 12.4598 109.447 12.4153 109.658 12.3792C110.517 12.2454 111.366 12.0755 112.203 11.8704C112.622 11.7675 113.045 11.6785 113.453 11.5673L114.679 11.2114C117.945 10.2578 120.941 8.96486 123.998 7.88884C124.757 7.60246 125.526 7.36334 126.288 7.10754C127.049 6.85174 127.811 6.66267 128.601 6.42356C130.139 6.01975 131.715 5.71754 133.314 5.51993L134.502 5.38925C134.9 5.34198 135.298 5.35033 135.7 5.32808L136.888 5.28081L136.964 5.28081C136.981 5.26691 136.964 5.28081 137.009 5.27803L137.162 5.28359L137.466 5.29471L138.076 5.31696L139.291 5.35867L140.448 5.481C140.832 5.52827 141.22 5.54495 141.598 5.61446L142.741 5.80909C145.746 6.41263 148.665 7.26524 151.45 8.35317C154.245 9.37358 156.991 10.4329 159.81 11.2114C162.547 11.9989 165.415 12.4534 168.319 12.5599L169.368 12.5905C169.759 12.5989 170.061 12.5905 170.414 12.5571C170.767 12.5238 171.082 12.5377 171.429 12.5154C171.595 12.5099 171.761 12.5043 171.931 12.4904L172.44 12.432C173.115 12.3514 173.797 12.2986 174.445 12.1846C175.093 12.0706 175.737 11.9594 176.367 11.8315C178.748 11.289 181.067 10.5858 183.3 9.72947C185.43 8.94261 187.386 8.11684 189.291 7.44954C192.512 6.19362 195.962 5.35737 199.511 4.97218C200.827 4.86032 202.152 4.81853 203.476 4.84706C204.456 4.87309 205.433 4.94644 206.402 5.06672C207.195 5.14735 207.791 5.26414 208.199 5.33086L208.809 5.43652L208.199 5.31417C207.801 5.23355 207.205 5.10564 206.419 4.99721C204.134 4.65235 201.799 4.5616 199.483 4.72751C196.477 4.91658 192.907 5.69787 189.066 7.02412C187.137 7.67196 185.139 8.44213 183.006 9.18173C180.795 9.98286 178.508 10.6402 176.166 11.1475L174.296 11.4644C173.669 11.5673 173.029 11.6035 172.388 11.6785L171.903 11.7286C171.737 11.7397 171.571 11.7397 171.401 11.748L170.39 11.7758C170.061 11.7786 169.669 11.7981 169.392 11.7925L168.385 11.7508C165.584 11.6163 162.825 11.143 160.201 10.3467C157.483 9.55431 154.795 8.48106 151.997 7.41895C149.144 6.27154 146.142 5.37924 143.045 4.7581L141.837 4.56624C141.435 4.49395 141.016 4.46337 140.597 4.41611L139.364 4.29377L138.114 4.21869L137.504 4.19645L137.2 4.18533L137.047 4.17977C137.012 4.17568 136.976 4.17476 136.94 4.17699L136.86 4.17977L135.603 4.22148C135.181 4.24372 134.758 4.23259 134.343 4.28264L133.086 4.41332C131.406 4.61467 129.75 4.92525 128.133 5.34199C127.337 5.56998 126.523 5.78406 125.737 6.03708C124.951 6.2901 124.158 6.54311 123.379 6.81838C120.276 7.91386 117.284 9.15392 114.125 10.077L112.944 10.4135C112.55 10.5191 112.148 10.6025 111.75 10.6998C110.953 10.9056 110.139 11.0307 109.325 11.1725C109.125 11.2059 108.92 11.2476 108.74 11.2587L108.127 11.3226L106.912 11.4589C106.101 11.5201 105.177 11.5228 104.401 11.5618C101.07 11.5316 97.7724 11.025 94.6628 10.0659C91.5184 9.15949 88.5125 7.9083 85.4095 6.81282C84.6407 6.52922 83.8477 6.28176 83.0512 6.03153C82.2547 5.78129 81.4547 5.56164 80.6548 5.33642C79.0354 4.91648 77.3756 4.60494 75.6922 4.40499C72.3799 4.03058 69.0098 4.15314 65.7532 4.76644C62.655 5.38697 59.6517 6.28026 56.7977 7.43008C53.9996 8.49219 51.3157 9.56265 48.5903 10.3551C48.2509 10.4552 47.915 10.5636 47.5721 10.6498C47.2293 10.736 46.8864 10.8166 46.5574 10.9084C45.8834 11.0769 45.1991 11.2179 44.5073 11.331C44.1645 11.3838 43.8251 11.4672 43.4857 11.5006L42.4745 11.6174C42.1316 11.6535 41.8026 11.7008 41.4598 11.7258C41.117 11.7508 40.7672 11.7592 40.4209 11.7703C37.8106 11.8795 35.1947 11.6742 32.6602 11.1614C30.3146 10.6518 28.0239 9.99169 25.8102 9.1873C23.677 8.44771 21.6753 7.67475 19.7464 7.02692C16.4485 5.82749 12.9351 5.05426 9.33642 4.73586C8.00266 4.6442 6.66232 4.63119 5.32619 4.69693C4.34426 4.75226 3.36718 4.85346 2.3999 5C1.58955 5.09453 1.01121 5.23633 0.616425 5.31975L0 5.43652Z" fill="white"/>
<path d="M0 9.43652L0.616425 9.33087C1.01814 9.26414 1.61725 9.15014 2.41376 9.06673C3.38156 8.94535 4.35761 8.87107 5.33658 8.8443C6.66753 8.81915 7.99909 8.86466 9.32257 8.98054C12.8671 9.37039 16.3126 10.2074 19.5317 11.4607C21.4364 12.1558 23.393 12.9537 25.5228 13.7406C27.7548 14.6005 30.0742 15.3056 32.4558 15.8481C35.0746 16.4065 37.7828 16.6464 40.4901 16.5599L41.5325 16.5293C41.8823 16.5043 42.2425 16.4598 42.5992 16.4293L43.6796 16.318C44.0433 16.2875 44.3896 16.2096 44.7497 16.154C45.4692 16.0465 46.1812 15.9091 46.883 15.7425L47.9565 15.4923C48.3132 15.4061 48.656 15.2976 48.9954 15.2142C51.8144 14.4357 54.5571 13.3736 57.3518 12.3587C60.139 11.2708 63.0589 10.4173 66.0649 9.81187C69.1706 9.24708 72.3802 9.15185 75.5294 9.53105C77.1262 9.72893 78.7002 10.0311 80.2357 10.4347C81.0045 10.6571 81.7768 10.8657 82.5456 11.1159C83.3144 11.3661 84.0763 11.6164 84.8347 11.8972C87.8787 12.9843 90.8985 14.2578 94.1572 15.2226C97.429 16.2405 100.9 16.7846 104.408 16.8296L105.727 16.7768C106.157 16.7546 106.572 16.7657 107.026 16.7073L108.352 16.5599L109.017 16.4876C109.232 16.4598 109.447 16.4153 109.658 16.3792C110.517 16.2454 111.366 16.0755 112.203 15.8704C112.622 15.7675 113.045 15.6785 113.453 15.5673L114.679 15.2114C117.945 14.2578 120.941 12.9649 123.998 11.8888C124.757 11.6025 125.526 11.3633 126.288 11.1075C127.049 10.8517 127.811 10.6627 128.601 10.4236C130.139 10.0198 131.715 9.71754 133.314 9.51993L134.502 9.38925C134.9 9.34198 135.298 9.35033 135.7 9.32808L136.888 9.28081L136.964 9.28081C136.981 9.26691 136.964 9.28081 137.009 9.27803L137.162 9.28359L137.466 9.29471L138.076 9.31696L139.291 9.35867L140.448 9.481C140.832 9.52827 141.22 9.54495 141.598 9.61446L142.741 9.80909C145.746 10.4126 148.665 11.2652 151.45 12.3532C154.245 13.3736 156.991 14.4329 159.81 15.2114C162.547 15.9989 165.415 16.4534 168.319 16.5599L169.368 16.5905C169.759 16.5989 170.061 16.5905 170.414 16.5571C170.767 16.5238 171.082 16.5377 171.429 16.5154C171.595 16.5099 171.761 16.5043 171.931 16.4904L172.44 16.432C173.115 16.3514 173.797 16.2986 174.445 16.1846C175.093 16.0706 175.737 15.9594 176.367 15.8315C178.748 15.289 181.067 14.5858 183.3 13.7295C185.43 12.9426 187.386 12.1168 189.291 11.4495C192.512 10.1936 195.962 9.35737 199.511 8.97218C200.827 8.86032 202.152 8.81853 203.476 8.84706C204.456 8.87309 205.433 8.94644 206.402 9.06672C207.195 9.14735 207.791 9.26414 208.199 9.33086L208.809 9.43652L208.199 9.31417C207.801 9.23355 207.205 9.10564 206.419 8.99721C204.134 8.65235 201.799 8.5616 199.483 8.72751C196.477 8.91658 192.907 9.69787 189.066 11.0241C187.137 11.672 185.139 12.4421 183.006 13.1817C180.795 13.9829 178.508 14.6402 176.166 15.1475L174.296 15.4644C173.669 15.5673 173.029 15.6035 172.388 15.6785L171.903 15.7286C171.737 15.7397 171.571 15.7397 171.401 15.748L170.39 15.7758C170.061 15.7786 169.669 15.7981 169.392 15.7925L168.385 15.7508C165.584 15.6163 162.825 15.143 160.201 14.3467C157.483 13.5543 154.795 12.4811 151.997 11.419C149.144 10.2715 146.142 9.37924 143.045 8.7581L141.837 8.56624C141.435 8.49395 141.016 8.46337 140.597 8.41611L139.364 8.29377L138.114 8.21869L137.504 8.19645L137.2 8.18533L137.047 8.17977C137.012 8.17568 136.976 8.17476 136.94 8.17699L136.86 8.17977L135.603 8.22148C135.181 8.24372 134.758 8.23259 134.343 8.28264L133.086 8.41332C131.406 8.61467 129.75 8.92525 128.133 9.34199C127.337 9.56998 126.523 9.78406 125.737 10.0371C124.951 10.2901 124.158 10.5431 123.379 10.8184C120.276 11.9139 117.284 13.1539 114.125 14.077L112.944 14.4135C112.55 14.5191 112.148 14.6025 111.75 14.6998C110.953 14.9056 110.139 15.0307 109.325 15.1725C109.125 15.2059 108.92 15.2476 108.74 15.2587L108.127 15.3226L106.912 15.4589C106.101 15.5201 105.177 15.5228 104.401 15.5618C101.07 15.5316 97.7724 15.025 94.6628 14.0659C91.5184 13.1595 88.5125 11.9083 85.4095 10.8128C84.6407 10.5292 83.8477 10.2818 83.0512 10.0315C82.2547 9.78129 81.4547 9.56164 80.6548 9.33642C79.0354 8.91648 77.3756 8.60494 75.6922 8.40499C72.3799 8.03058 69.0098 8.15314 65.7532 8.76644C62.655 9.38697 59.6517 10.2803 56.7977 11.4301C53.9996 12.4922 51.3157 13.5627 48.5903 14.3551C48.2509 14.4552 47.915 14.5636 47.5721 14.6498C47.2293 14.736 46.8864 14.8166 46.5574 14.9084C45.8834 15.0769 45.1991 15.2179 44.5073 15.331C44.1645 15.3838 43.8251 15.4672 43.4857 15.5006L42.4745 15.6174C42.1316 15.6535 41.8026 15.7008 41.4598 15.7258C41.117 15.7508 40.7672 15.7592 40.4209 15.7703C37.8106 15.8795 35.1947 15.6742 32.6602 15.1614C30.3146 14.6518 28.0239 13.9917 25.8102 13.1873C23.677 12.4477 21.6753 11.6748 19.7464 11.0269C16.4485 9.82749 12.9351 9.05426 9.33642 8.73586C8.00266 8.6442 6.66232 8.63119 5.32619 8.69693C4.34426 8.75226 3.36718 8.85346 2.3999 9C1.58955 9.09453 1.01121 9.23633 0.616425 9.31975L0 9.43652Z" fill="white"/>
</svg>
